<?xml version="1.0" standalone="no"?>
<!DOCTYPE svg PUBLIC "-//W3C//DTD SVG 1.1//EN" "http://www.w3.org/Graphics/SVG/1.1/DTD/svg11.dtd" >
<svg xmlns="http://www.w3.org/2000/svg" xmlns:xlink="http://www.w3.org/1999/xlink" version="1.1">
<metadata>
Created by FontForge 20170731 at Fri Jul  8 09:24:40 2022
 By Aleksey,,,
Copyright (c) 2009 by Hannes von Doehren. All rights reserved.
</metadata>
<defs>
<font id="BrandonGrotesque-BoldItalic" horiz-adv-x="489" >
  <font-face 
    font-family="Brandon Grotesque Bold"
    font-weight="450"
    font-style="italic"
    font-stretch="normal"
    units-per-em="2048"
    panose-1="2 11 8 3 2 2 3 13 2 2"
    ascent="1434"
    descent="-614"
    x-height="819"
    cap-height="1434"
    bbox="-374 -783.025 2093.09 2153.45"
    underline-thickness="102"
    underline-position="-307"
    slope="-8"
    unicode-range="U+0020-FB02"
  />
<missing-glyph horiz-adv-x="1226" 
d="M102 61v1311q0 62 62 62h899q32 0 46.5 -15t14.5 -47v-1311q0 -32 -14.5 -46.5t-46.5 -14.5h-899q-32 0 -47 14.5t-15 46.5zM537 643q0 -10 8.5 -17.5t19.5 -7.5h74q31 0 31 27v53q0 23 16 44.5t40 39t51.5 40.5t51.5 46.5t40 59.5t16 78q0 99 -73 163t-183 64
q-50 0 -96 -13t-75.5 -31.5t-52.5 -36.5t-33 -31l-10 -13q-16 -24 0 -37l46 -45q17 -11 34 0q1 1 15 14.5t20.5 19t23.5 17.5t31.5 17.5t36.5 10.5t45 5q59 0 92 -31t33 -75q0 -35 -21 -65t-50.5 -53t-59 -47.5t-50.5 -59.5t-21 -77v-59zM502 319q0 -40 29 -69t69 -29
q41 0 70.5 29t29.5 69t-29.5 69.5t-70.5 29.5q-40 0 -69 -29.5t-29 -69.5z" />
    <glyph glyph-name="fi" unicode="fi" horiz-adv-x="1073" 
d="M4 -575l166 1179h-70q-15 0 -23.5 11.5t-6.5 27.5l20 137q1 17 12.5 28t26.5 11h70l32 223q28 191 139.5 301.5t288.5 110.5q79 0 154 -30t121 -64q11 -8 12 -23.5t-8 -29.5l-76 -125q-12 -22 -24 -26t-29 7q-82 51 -160 51q-59 0 -103 -44t-57 -134l-30 -217h497
q14 0 23 -11t6 -28l-104 -741q-1 -15 -13 -27t-26 -12h-180q-15 0 -24 12t-7 27l80 565h-283l-164 -1179q-3 -22 -14.5 -30.5t-34.5 -8.5h-182q-14 0 -23 12t-6 27z" />
    <glyph glyph-name="fl" unicode="fl" horiz-adv-x="1110" 
d="M8 -575l166 1181h-74q-15 0 -23.5 11.5t-6.5 27.5l20 135q1 17 12.5 28t26.5 11h74l33 223q29 197 143.5 304.5t284.5 107.5q46 0 90 -12t74 -29t53.5 -33.5t34.5 -28.5l12 -12l30 58q19 37 52 37h67q13 0 22 -12t7 -27l-191 -1356q-2 -15 -13.5 -27t-24.5 -12h-185
q-13 0 -21.5 12t-6.5 27l151 1091q-7 13 -22.5 30.5t-51.5 39t-75 21.5q-64 0 -112.5 -45.5t-61.5 -135.5l-31 -221h137q14 0 23 -11t6 -28l-19 -135q-1 -15 -14 -27t-27 -12h-137l-164 -1181q-3 -15 -15.5 -27t-25.5 -12h-190q-13 0 -21.5 12t-5.5 27z" />
    <glyph glyph-name="f_f" unicode="ff" horiz-adv-x="1234" 
d="M4 -575l166 1179h-70q-15 0 -23.5 11.5t-6.5 27.5l20 137q1 17 13 28t26 11h72l24 182q28 210 152.5 321.5t302.5 111.5q150 0 250 -95q115 115 276 115q68 0 133 -26t88 -54q7 -7 8 -22t-5 -25l-72 -125q-21 -36 -55 -16q-47 26 -103 26q-60 0 -96 -41.5t-49 -130.5
l-33 -221h176q15 0 23.5 -11t7.5 -28l-21 -137q-2 -15 -14 -27t-25 -12h-176l-166 -1179q-3 -15 -15.5 -27t-25.5 -12h-188q-13 0 -23 12t-8 27l166 1179h-303l-166 -1179q-1 -15 -14 -27t-27 -12h-188q-13 0 -23 12t-8 27zM461 819h303l31 217q4 34 18 101q-17 27 -53.5 46
t-87.5 19q-71 0 -122.5 -54.5t-64.5 -150.5z" />
    <glyph glyph-name="f_f_i" unicode="ffi" horiz-adv-x="1638" 
d="M6 -575l164 1179h-70q-14 0 -22 11.5t-6 27.5l18 137q3 17 14.5 28t26.5 11h70l26 182q17 119 74 215.5t155.5 157t221.5 60.5q70 0 133 -24t91 -48l28 -23q115 115 297 115q79 0 152 -30t120 -64q11 -8 12 -23.5t-8 -29.5l-78 -123q-12 -22 -24 -26t-29 7
q-79 49 -158 49q-54 0 -100.5 -45t-58.5 -133l-31 -217h496q15 0 23.5 -11t6.5 -28l-104 -741q-3 -16 -14.5 -27.5t-26.5 -11.5h-180q-15 0 -23.5 12t-5.5 27l80 565h-283l-164 -1179q-3 -15 -15.5 -27t-25.5 -12h-190q-14 0 -23 12t-6 27l166 1179h-305l-166 -1179
q-2 -15 -14 -27t-25 -12h-190q-14 0 -23 12t-6 27zM461 819h303l33 215q6 52 16 99q-15 27 -52 47t-87 20q-72 0 -124 -54.5t-65 -150.5z" />
    <glyph glyph-name="f_f_l" unicode="ffl" horiz-adv-x="1675" 
d="M4 -575l166 1179h-70q-15 0 -23.5 11.5t-6.5 27.5l20 137q1 17 13 28t26 11h72l24 182q30 209 152 321t293 112q149 0 260 -95q115 115 299 115q46 0 90 -12t74 -29t53.5 -33.5t35.5 -28.5l11 -12l31 58q19 37 51 37h67q13 0 22 -12t7 -27l-190 -1356q-1 -15 -13 -27
t-26 -12h-185q-13 0 -21.5 12t-6.5 27l151 1091q-7 12 -23.5 30.5t-53.5 39.5t-76 21q-63 0 -112 -46t-60 -135l-33 -221h137q14 0 23 -11t8 -28l-21 -135q-1 -15 -13 -27t-26 -12h-137l-166 -1181q-3 -15 -15.5 -27t-25.5 -12h-188q-13 0 -23 12t-8 27l166 1179h-303
l-166 -1179q-1 -15 -14 -27t-27 -12h-188q-13 0 -23 12t-8 27zM461 819h303l31 213q3 27 18 98q-18 27 -54 47.5t-87 20.5q-71 0 -122.5 -54.5t-64.5 -150.5z" />
    <glyph glyph-name="f_f_h" unicode="ffh" horiz-adv-x="2181" 
d="M4 -575l166 1179h-70q-15 0 -23.5 11.5t-6.5 27.5l20 137q1 17 13 28t26 11h72l24 182q30 209 153 321t292 112q147 0 258 -95q115 115 301 115q46 0 90 -12t74 -29t53.5 -33.5t35.5 -28.5l11 -12l31 58q19 37 51 37h67q13 0 22 -12t7 -27l-88 -623q36 28 89 48t102 20
q68 0 122 -22.5t87.5 -61.5t55.5 -91t25 -111t-4 -122l-55 -393q-1 -15 -14 -27t-27 -12h-176q-14 0 -22.5 11.5t-6.5 27.5l56 391q12 85 -18 133.5t-97 48.5q-44 0 -82.5 -27.5t-55.5 -54.5l-16 -28l-65 -463q-7 -39 -45 -39h-181q-13 0 -21.5 12t-6.5 27l153 1091
q-7 12 -23.5 30.5t-53.5 39.5t-76 21q-63 0 -112 -46t-60 -135l-33 -221h137q14 0 23 -11t8 -28l-21 -135q-1 -15 -13 -27t-26 -12h-137l-166 -1181q-3 -15 -15.5 -27t-25.5 -12h-188q-13 0 -23 12t-8 27l166 1179h-303l-166 -1179q-1 -15 -14 -27t-27 -12h-188
q-13 0 -23 12t-8 27zM461 819h303l31 213q3 27 18 98q-18 27 -54 47.5t-87 20.5q-71 0 -122.5 -54.5t-64.5 -150.5z" />
    <glyph glyph-name="f_k" unicode="fk" horiz-adv-x="1562" 
d="M8 -575l166 1181h-74q-15 0 -23.5 11.5t-6.5 27.5l20 135q1 17 12.5 28t26.5 11h74l33 223q29 197 143 304.5t285 107.5q46 0 90 -12t74 -29t53.5 -33.5t34.5 -28.5l12 -12l30 58q19 37 52 37h67q13 0 22 -12t7 -27l-127 -887l250 287q21 24 49 24h221q23 0 27.5 -19
t-13.5 -36l-313 -330l268 -383q13 -17 3.5 -34t-33.5 -17h-213q-15 0 -27 16l-237 369l-48 -346q-3 -15 -15.5 -27t-25.5 -12h-184q-14 0 -23 12t-6 27l156 1091q-7 13 -22.5 30.5t-51.5 39t-75 21.5q-64 0 -112.5 -45.5t-61.5 -135.5l-31 -221h137q14 0 23 -11t6 -28
l-19 -135q-1 -15 -14 -27t-27 -12h-137l-164 -1181q-3 -15 -15.5 -27t-25.5 -12h-190q-13 0 -21.5 12t-5.5 27z" />
    <glyph glyph-name="f_j" unicode="fj" horiz-adv-x="1095" 
d="M4 -575l166 1179h-70q-15 0 -23.5 11.5t-6.5 27.5l20 137q1 17 12.5 28t26.5 11h70l32 223q28 191 139.5 301.5t288.5 110.5q79 0 154 -30t121 -64q11 -8 12 -23.5t-8 -29.5l-78 -123q-12 -22 -24 -26t-29 7q-79 49 -158 49q-59 0 -103 -44t-57 -134l-30 -217h518
q14 0 23 -11t6 -28l-142 -1001q-27 -199 -138.5 -306.5t-279.5 -107.5q-20 0 -28 2q-24 3 -19 35l39 186q3 12 9 17t9.5 5.5t12.5 0.5q58 0 94.5 48t48.5 138l115 807h-299l-164 -1179q-3 -22 -14.5 -30.5t-34.5 -8.5h-182q-14 0 -23 12t-6 27z" />
    <glyph glyph-name="f_f_j" unicode="ffj" horiz-adv-x="1660" 
d="M6 -575l164 1179h-70q-14 0 -22 11.5t-6 27.5l18 137q3 17 14.5 28t26.5 11h70l26 182q17 119 74 215.5t155.5 157t221.5 60.5q70 0 133 -24t91 -48l28 -23q115 115 297 115q79 0 152 -30t120 -64q11 -8 12 -23.5t-8 -29.5l-78 -123q-12 -22 -24 -26t-29 7
q-79 49 -158 49q-54 0 -100.5 -45t-58.5 -133l-31 -217h518q14 0 23 -11t6 -28l-141 -1001q-27 -196 -143 -305t-275 -109q-21 0 -29 2q-24 3 -18 35l39 186q3 12 8.5 17t9 5.5t12.5 0.5q116 0 144 186l114 807h-299l-164 -1179q-3 -15 -15.5 -27t-25.5 -12h-190
q-14 0 -23 12t-6 27l166 1179h-305l-166 -1179q-2 -15 -14 -27t-25 -12h-190q-14 0 -23 12t-6 27zM461 819h303l33 215q4 29 18 99q-15 26 -53 46.5t-88 20.5q-72 0 -124 -54.5t-65 -150.5z" />
    <glyph glyph-name="f_b" unicode="fb" horiz-adv-x="1576" 
d="M8 -575l166 1181h-74q-15 0 -23.5 11.5t-6.5 27.5l20 135q1 17 12.5 28t26.5 11h74l33 223q29 197 143.5 304.5t284.5 107.5q46 0 90 -12t74 -29t53.5 -33.5t34.5 -28.5l12 -12l30 58q19 37 52 37h67q13 0 22 -12t7 -27l-84 -592q72 37 149 37q137 0 230.5 -108.5
t93.5 -264.5q0 -129 -57.5 -241.5t-155.5 -179t-211 -66.5q-45 0 -85 12.5t-64.5 30.5t-43 36t-26.5 31l-8 12l-31 -67q-15 -35 -43 -35h-80q-14 0 -22.5 12t-5.5 27l153 1091q-7 13 -22.5 30.5t-51.5 39t-75 21.5q-64 0 -112.5 -45.5t-61.5 -135.5l-31 -221h137
q14 0 23 -11t6 -28l-19 -135q-1 -15 -14 -27t-27 -12h-137l-164 -1181q-3 -15 -15.5 -27t-25.5 -12h-190q-13 0 -21.5 12t-5.5 27zM948 336q6 -48 37 -91.5t88 -43.5q75 0 132 75t57 173q0 73 -38.5 121t-101.5 48q-37 0 -71.5 -12t-50.5 -24l-15 -11z" />
    <glyph glyph-name="f_f_k" unicode="ffk" horiz-adv-x="2127" 
d="M4 -575l166 1179h-70q-15 0 -23.5 11.5t-6.5 27.5l20 137q1 17 13 28t26 11h72l24 182q30 208 154 320.5t291 112.5q149 0 260 -95q115 115 299 115q46 0 90 -12t74 -29t53.5 -33.5t35.5 -28.5l11 -12l31 58q19 37 51 37h67q13 0 22 -12t7 -27l-127 -887l250 287
q21 24 49 24h221q23 0 28 -19t-13 -36l-314 -330l269 -383q12 -17 2.5 -34t-33.5 -17h-213q-15 0 -27 16l-237 369l-47 -346q-3 -15 -15.5 -27t-25.5 -12h-185q-13 0 -21.5 12t-6.5 27l155 1091q-7 12 -23.5 30.5t-53.5 39.5t-76 21q-63 0 -112 -46t-60 -135l-33 -221h137
q14 0 23 -11t8 -28l-21 -135q-1 -15 -13 -27t-26 -12h-137l-166 -1181q-3 -15 -15.5 -27t-25.5 -12h-188q-13 0 -23 12t-8 27l166 1179h-303l-166 -1179q-1 -15 -14 -27t-27 -12h-188q-13 0 -23 12t-8 27zM461 819h303l31 213q3 27 18 98q-18 27 -54 47.5t-87 20.5
q-71 0 -122.5 -54.5t-64.5 -150.5z" />
    <glyph glyph-name="f_h" unicode="fh" horiz-adv-x="1615" 
d="M8 -575l166 1181h-74q-15 0 -23.5 11.5t-6.5 27.5l20 135q1 17 12.5 28t26.5 11h74l33 223q29 195 145 303.5t283 108.5q46 0 90 -12t74 -29t53.5 -33.5t34.5 -28.5l12 -12l30 58q19 37 52 37h67q13 0 22 -12t7 -27l-88 -623q36 28 89 48t101 20q108 0 179.5 -59.5
t97 -150.5t10.5 -198l-55 -393q-1 -15 -14 -27t-27 -12h-176q-14 0 -22.5 11.5t-6.5 27.5l55 391q12 86 -17.5 134t-96.5 48q-44 0 -82.5 -27.5t-54.5 -54.5l-17 -28l-66 -463q-7 -39 -45 -39h-180q-13 0 -21.5 12t-6.5 27l153 1091q-7 13 -22.5 30.5t-51.5 39t-75 21.5
q-64 0 -112.5 -45.5t-61.5 -135.5l-31 -221h137q14 0 23 -11t6 -28l-19 -135q-1 -15 -14 -27t-27 -12h-137l-164 -1181q-3 -15 -15.5 -27t-25.5 -12h-190q-13 0 -21.5 12t-5.5 27z" />
    <glyph glyph-name="f_f_b" unicode="ffb" horiz-adv-x="2142" 
d="M4 -575l166 1179h-70q-15 0 -23.5 11.5t-6.5 27.5l20 137q1 17 13 28t26 11h72l24 182q30 209 152.5 321t292.5 112q149 0 260 -95q115 115 299 115q46 0 90 -12t74 -29t53.5 -33.5t35.5 -28.5l11 -12l31 58q19 37 51 37h67q13 0 22 -12t7 -27l-84 -592q72 37 150 37
q135 0 229 -109t94 -264q0 -130 -55 -241.5t-153 -178.5t-216 -67q-45 0 -85 12.5t-64.5 30.5t-43 36t-26.5 31l-8 12l-31 -67q-15 -35 -43 -35h-80q-14 0 -22.5 12t-5.5 27l153 1091q-7 12 -23.5 30.5t-53.5 39.5t-76 21q-63 0 -112 -46t-60 -135l-33 -221h137q14 0 23 -11
t8 -28l-21 -135q-1 -15 -13 -27t-26 -12h-137l-166 -1181q-3 -15 -15.5 -27t-25.5 -12h-188q-13 0 -23 12t-8 27l166 1179h-303l-166 -1179q-1 -15 -14 -27t-27 -12h-188q-13 0 -23 12t-8 27zM461 819h303l31 213q3 27 18 98q-18 27 -54 47.5t-87 20.5q-71 0 -122.5 -54.5
t-64.5 -150.5zM1513 336q6 -48 37 -91.5t88 -43.5q75 0 132 75t57 173q0 74 -38 121.5t-101 47.5q-37 0 -71.5 -12t-50.5 -24l-16 -11z" />
    <glyph glyph-name=".notdef" horiz-adv-x="1226" 
d="M102 61v1311q0 62 62 62h899q32 0 46.5 -15t14.5 -47v-1311q0 -32 -14.5 -46.5t-46.5 -14.5h-899q-32 0 -47 14.5t-15 46.5zM537 643q0 -10 8.5 -17.5t19.5 -7.5h74q31 0 31 27v53q0 23 16 44.5t40 39t51.5 40.5t51.5 46.5t40 59.5t16 78q0 99 -73 163t-183 64
q-50 0 -96 -13t-75.5 -31.5t-52.5 -36.5t-33 -31l-10 -13q-16 -24 0 -37l46 -45q17 -11 34 0q1 1 15 14.5t20.5 19t23.5 17.5t31.5 17.5t36.5 10.5t45 5q59 0 92 -31t33 -75q0 -35 -21 -65t-50.5 -53t-59 -47.5t-50.5 -59.5t-21 -77v-59zM502 319q0 -40 29 -69t69 -29
q41 0 70.5 29t29.5 69t-29.5 69.5t-70.5 29.5q-40 0 -69 -29.5t-29 -69.5z" />
    <glyph glyph-name=".null" horiz-adv-x="0" 
 />
    <glyph glyph-name="nonmarkingreturn" horiz-adv-x="682" 
 />
    <glyph glyph-name="space" unicode=" " horiz-adv-x="458" 
 />
    <glyph glyph-name="exclam" unicode="!" horiz-adv-x="636" 
d="M283 557q-13 0 -23 10.5t-8 22.5l-2 571l33 234q1 15 13 27t26 12h235q13 0 22 -12t7 -27l-33 -230l-162 -575q-3 -12 -16 -22.5t-25 -10.5h-67zM92 127q0 76 58 133t131 57q62 0 103.5 -44t41.5 -105q0 -75 -59 -131.5t-134 -56.5q-59 0 -100 43t-41 104z" />
    <glyph glyph-name="quotedbl" unicode="&#x22;" horiz-adv-x="679" 
d="M498 1026q-14 0 -23 12t-6 27l47 330q2 15 14 27t25 12h172q19 0 27.5 -15t-0.5 -37l-129 -325q-12 -31 -37 -31h-90zM172 1026q-14 0 -23 12t-6 27l47 330q2 15 14 27t25 12h172q19 0 27.5 -15t-0.5 -37l-129 -325q-12 -31 -37 -31h-90z" />
    <glyph glyph-name="numbersign" unicode="#" horiz-adv-x="1024" 
d="M127 45l90 340h-131q-15 0 -23.5 12t-5.5 27l4 29q1 17 12.5 28t26.5 11h146l90 335h-133q-13 0 -23 12t-8 27l4 29q1 15 14 27t27 12h145l125 467q3 12 15 22.5t24 10.5h33q15 0 23 -13t4 -32l-119 -455h291l121 467q3 12 16 22.5t25 10.5h30q15 0 24 -13.5t5 -31.5
l-121 -455h115q15 0 23 -12t5 -27l-4 -29q-2 -15 -13 -27t-26 -12h-129l-88 -335h117q14 0 23 -11t6 -28l-4 -29q-1 -15 -14 -27t-27 -12h-131l-93 -352q-3 -14 -15 -23.5t-25 -9.5h-31q-17 0 -24.5 13t-4.5 32l92 340h-293l-90 -352q-4 -13 -16.5 -23t-24.5 -10h-30
q-17 0 -25.5 13t-3.5 32zM348 492h291l88 335h-289z" />
    <glyph glyph-name="dollar" unicode="$" horiz-adv-x="1005" 
d="M39 133q-17 21 -18.5 32t14.5 36l80 114q34 47 73 13q28 -25 88.5 -59.5t120.5 -47.5l58 381q-55 36 -89.5 60.5t-82 67t-75 81.5t-47.5 94t-20 115q0 86 27 160.5t79 133.5t136 95.5t192 42.5l9 66q3 17 15 27.5t26 10.5h28q14 0 23 -10.5t6 -27.5l-8 -68
q174 -15 313 -133q12 -11 13 -32t-11 -36l-88 -114q-29 -36 -63 -9q-26 24 -80 53.5t-119 39.5l-51 -369q52 -30 85.5 -51.5t84.5 -64t81 -83t53 -100t23 -125.5q0 -191 -119.5 -315t-332.5 -131l-29 -211q-3 -17 -15 -27t-26 -10h-33q-12 0 -19.5 11t-4.5 26l29 213
q-80 5 -157 39t-112 61.5t-57 50.5zM489 901l48 326q-62 -11 -101 -57t-39 -109q0 -91 92 -160zM500 219q61 13 100 54.5t39 109.5q0 94 -90 172z" />
    <glyph glyph-name="percent" unicode="%" horiz-adv-x="1236" 
d="M358 901q-96 0 -160.5 69.5t-64.5 170.5q0 132 78.5 222.5t202.5 90.5q95 0 159 -70t64 -170q0 -130 -81.5 -221.5t-197.5 -91.5zM125 55l825 1358q14 21 35 21h107q20 0 27 -18t-5 -38l-827 -1358q-15 -20 -33 -20h-104q-22 0 -29.5 17.5t4.5 37.5zM371 1077
q33 0 59.5 35t26.5 80q0 35 -16.5 59.5t-43.5 24.5q-34 0 -61 -34t-27 -81q0 -35 17.5 -59.5t44.5 -24.5zM616 219q0 132 78.5 222.5t202.5 90.5q95 0 159 -69.5t64 -169.5q0 -130 -81 -221.5t-197 -91.5q-96 0 -161 69.5t-65 169.5zM793 240q0 -35 17 -59.5t44 -24.5
q33 0 59.5 34.5t26.5 79.5q0 35 -16 59.5t-43 24.5q-34 0 -61 -34t-27 -80z" />
    <glyph glyph-name="ampersand" unicode="&#x26;" horiz-adv-x="1282" 
d="M100 322q0 87 32.5 165t80.5 130.5t95 90t85 61.5t41 28v4l-31 47q-118 169 -100 291q9 61 37.5 115.5t75.5 100t121 72.5t165 27q134 0 226 -90t92 -213q0 -41 -8.5 -81t-24.5 -73t-35 -63.5t-43 -56t-45 -46t-45.5 -38.5t-39.5 -28.5t-31 -20.5t-17 -11l164 -241
q8 11 20.5 31t41 82.5t44.5 125.5q9 36 26.5 48.5t49.5 2.5l94 -28q54 -15 37 -84q-21 -90 -64 -176.5t-76 -127.5l-32 -42l129 -172q11 -14 14.5 -29t-3.5 -33t-27 -33l-88 -59q-22 -14 -44 -11.5t-34 21.5l-92 133q-7 -7 -19 -17.5t-54 -38.5t-88.5 -49t-119 -38.5
t-147.5 -17.5q-160 0 -261.5 100.5t-101.5 241.5zM621 901q1 1 17 10t29 18t33.5 24t35.5 32.5t30 38.5t23 47.5t8 54.5q0 55 -34 93t-91 38q-64 0 -106 -45t-42 -112q0 -27 10 -54t19.5 -43t34.5 -53zM344 365q0 -72 46.5 -120t115.5 -48q43 0 84.5 13t70.5 31.5t51 37.5
t33 32l11 13l-211 305l-22 -14q-22 -14 -40.5 -26.5t-46 -37.5t-46 -50.5t-32.5 -61.5t-14 -74z" />
    <glyph glyph-name="quotesingle" unicode="'" horiz-adv-x="352" 
d="M172 1026q-13 0 -23 12t-8 27l47 330q1 15 14 27t27 12h170q19 0 27.5 -15t-0.5 -37l-129 -325q-12 -31 -37 -31h-88z" />
    <glyph glyph-name="parenleft" unicode="(" horiz-adv-x="669" 
d="M94 424q0 173 20 318t53 247.5t81.5 182.5t99.5 130t113 83.5t116.5 48.5t114.5 20q15 1 24 -8t7 -23l-12 -135q-3 -29 -29 -37q-69 -16 -123.5 -60.5t-88.5 -96.5t-58.5 -130.5t-36 -138t-18 -145.5t-7 -125.5t-0.5 -104.5v-20q0 -153 41.5 -254.5t122.5 -134.5
q21 -8 16 -37l-24 -133q-7 -33 -41 -33q-54 2 -106 24.5t-100.5 69t-84.5 112.5t-58 164t-22 216z" />
    <glyph glyph-name="parenright" unicode=")" horiz-adv-x="671" 
d="M-16 6q2 28 28 37q54 17 100.5 52t90 99.5t74 152.5t49 219t18.5 292q0 159 -40 264t-124 129q-21 7 -16 37l24 135q3 14 14.5 23t26.5 8q56 -4 106.5 -25t100 -65.5t85 -109t57.5 -164.5t22 -224q0 -175 -20 -321t-53.5 -249.5t-81.5 -183.5t-99.5 -129.5t-113 -82
t-116.5 -46t-114 -16.5q-15 0 -23.5 9t-7.5 24z" />
    <glyph glyph-name="asterisk" unicode="*" horiz-adv-x="681" 
d="M332 758q-14 0 -23 12t-6 27l29 178l-150 -103q-12 -9 -26.5 -5t-20.5 16l-29 55q-7 14 -2 30t19 25l172 103l-143 102q-12 7 -12.5 25t10.5 30l47 56q9 11 23.5 13t23.5 -5l121 -103l22 181q2 15 13 27t26 12h70q14 0 22.5 -12t5.5 -27l-28 -181l149 105q12 8 26.5 5
t20.5 -15l29 -56q8 -13 3.5 -29.5t-19.5 -25.5l-170 -102l141 -105q12 -9 12 -24.5t-10 -28.5l-47 -55q-27 -31 -49 -13l-121 103l-21 -176q-1 -15 -14 -27t-27 -12h-67z" />
    <glyph glyph-name="plus" unicode="+" horiz-adv-x="1089" 
d="M403 307l43 305h-262q-13 0 -21.5 12t-6.5 27l16 115q1 15 14 27t27 12h260l45 309q1 15 13 26t26 11h133q14 0 23 -11t6 -26l-43 -309h270q13 0 22 -12t7 -27l-17 -115q-2 -15 -13.5 -27t-24.5 -12h-271l-43 -305q-1 -15 -14 -26t-27 -11h-131q-14 0 -23 11t-8 26z" />
    <glyph glyph-name="comma" unicode="," horiz-adv-x="526" 
d="M16 127q0 76 59.5 132t143.5 56q67 0 119.5 -52.5t52.5 -162.5q0 -80 -23 -154.5t-54.5 -125.5t-75.5 -99t-72.5 -71t-59.5 -45q-26 -20 -47 4l-36 39q-9 10 -5 26.5t19 28.5q1 1 12 9t20.5 15.5t25.5 21t29 27.5t29.5 32.5t29.5 39t25.5 44t21 50t12.5 54.5
q-39 -16 -86 -16q-59 0 -99.5 43t-40.5 104z" />
    <glyph glyph-name="hyphen" unicode="-" horiz-adv-x="712" 
d="M121 393q-15 0 -23 11t-6 26l19 137q1 17 13.5 28t27.5 11h417q15 0 23 -11t6 -28l-18 -137q-1 -15 -13.5 -26t-27.5 -11h-418z" />
    <glyph glyph-name="period" unicode="." horiz-adv-x="475" 
d="M14 127q0 76 58.5 133t132.5 57q61 0 102 -44t41 -105q0 -75 -58.5 -131.5t-133.5 -56.5q-60 0 -101 43.5t-41 103.5z" />
    <glyph glyph-name="slash" unicode="/" horiz-adv-x="690" 
d="M16 0q-19 0 -27 14.5t1 36.5l553 1356q12 27 37 27h159q19 0 26.5 -15t-1.5 -37l-549 -1355q-12 -27 -37 -27h-162z" />
    <glyph glyph-name="zero" unicode="0" horiz-adv-x="1196" 
d="M516 -20q-177 0 -280 147.5t-103 396.5q0 267 71 468.5t204 312t311 110.5t280.5 -147t102.5 -396q0 -269 -67 -469t-200.5 -311.5t-318.5 -111.5zM551 221q84 0 148 85.5t97 231t33 328.5q0 142 -38 225t-107 83q-84 0 -148 -85.5t-97 -231t-33 -327.5q0 -144 37 -226.5
t108 -82.5z" />
    <glyph glyph-name="one" unicode="1" horiz-adv-x="710" 
d="M199 39l139 981l-176 -39q-14 -3 -24 5.5t-9 21.5l10 112q3 28 27 47l291 226h151q13 0 22 -12t7 -27l-184 -1315q-1 -15 -13 -27t-26 -12h-185q-15 0 -23.5 11.5t-6.5 27.5z" />
    <glyph glyph-name="two" unicode="2" horiz-adv-x="983" 
d="M16 0q-14 0 -22 11.5t-6 27.5l6 47l579 682q117 139 117 246q0 69 -37.5 115.5t-107.5 46.5q-91 0 -215 -129q-26 -25 -51 0l-103 112q-8 8 -6.5 25t12.5 28q66 70 118 108q132 93 275 93q174 0 271.5 -106t97.5 -277q0 -177 -151 -356l-387 -455h374q13 0 22 -12t7 -27
l-18 -141q-1 -15 -14 -27t-27 -12h-734z" />
    <glyph glyph-name="three" unicode="3" horiz-adv-x="995" 
d="M18 162q-7 11 -4.5 26.5t13.5 24.5l108 98q11 13 29 11t31 -21q29 -38 79.5 -67t116.5 -29q87 0 146 59t59 152q0 75 -55 128.5t-152 53.5h-104q-14 0 -23 11.5t-6 29.5l18 129q3 20 14 30.5t27 10.5h103q112 0 180 65t68 158q0 61 -38.5 98t-97.5 37q-19 0 -36 -3
t-34 -11t-28 -13.5t-27 -19t-21.5 -18t-21 -19.5t-16.5 -16q-28 -28 -51 -2l-98 115q-9 11 -7 26.5t13 26.5q171 180 370 180q153 0 253 -90t100 -236q0 -128 -77 -232t-165 -146v-7q68 -34 124 -110.5t56 -179.5q0 -186 -129.5 -309t-343.5 -123q-66 0 -124.5 14.5
t-96.5 34.5t-72 47.5t-50 46.5t-30 39z" />
    <glyph glyph-name="four" unicode="4" horiz-adv-x="1124" 
d="M33 297q-15 0 -23.5 12t-5.5 27l23 170l778 897q9 12 31 12h118q14 0 23 -11t6 -28l-121 -872h146q15 0 23.5 -11t6.5 -26l-18 -127q-2 -15 -14 -27t-27 -12h-145l-35 -262q-3 -15 -15.5 -27t-25.5 -12h-178q-13 0 -23 12t-8 27l37 258h-553zM303 510h320l71 453z" />
    <glyph glyph-name="five" unicode="5" horiz-adv-x="1009" 
d="M51 162q-7 11 -5 26.5t13 24.5l105 98q28 28 59 -10q28 -32 81 -64t120 -32q103 0 175.5 84t72.5 196q0 84 -46 138.5t-130 54.5h-285q-26 0 -38 22t-9 50l86 604q2 15 14 27t27 12h588q15 0 23.5 -11.5t6.5 -27.5l-20 -140q-2 -15 -14 -26.5t-27 -11.5h-391l-39 -273
h143q168 0 265.5 -113t97.5 -290q0 -231 -138 -375.5t-362 -144.5q-77 0 -144.5 20.5t-112.5 52.5t-72 58t-44 51z" />
    <glyph glyph-name="six" unicode="6" horiz-adv-x="1036" 
d="M86 459q0 137 33 261.5t85.5 216t124 171.5t141 133t145 96t127.5 65t96 36q45 12 51 -29l33 -125q10 -40 -43 -59q-34 -13 -75 -31.5t-102.5 -53.5t-113.5 -74t-100.5 -95t-71.5 -115q73 37 184 37q151 0 250.5 -105t99.5 -282q0 -147 -64.5 -268.5t-173.5 -189.5
t-239 -68q-115 0 -204.5 66.5t-136 175t-46.5 237.5zM487 213q94 0 161 81.5t67 192.5q0 87 -49 144t-131 57q-67 0 -123 -41.5t-86 -85.5q-14 -51 -8 -111.5t23 -113t56 -88t90 -35.5z" />
    <glyph glyph-name="seven" unicode="7" horiz-adv-x="933" 
d="M23 39l4 22l639 1110h-467q-13 0 -23 12t-8 27l20 144q1 15 14 27t27 12h766q14 0 24 -12t7 -27l-6 -31l-721 -1268q-31 -55 -72 -55h-168q-43 0 -36 39z" />
    <glyph glyph-name="eight" unicode="8" horiz-adv-x="1087" 
d="M68 324q0 61 25 121t56.5 100.5t77.5 81t68.5 56t48.5 32.5v6q-55 38 -101 112.5t-46 165.5q0 182 130 298t326 116q157 0 263 -91.5t106 -236.5q0 -66 -24 -127t-63 -106t-75.5 -75t-75.5 -54l-2 -8q68 -42 124.5 -121.5t56.5 -181.5q0 -187 -135 -309.5t-369 -122.5
q-183 0 -287 96.5t-104 247.5zM580 834q86 24 133 83.5t47 135.5q0 62 -37.5 100.5t-93.5 38.5q-67 0 -120.5 -55t-53.5 -138q0 -58 31.5 -101.5t93.5 -63.5zM342 350q0 -69 43 -110t104 -41q77 0 139 56.5t62 147.5q0 63 -38.5 117.5t-106.5 73.5q-91 -26 -147 -95
t-56 -149z" />
    <glyph glyph-name="nine" unicode="9" horiz-adv-x="1034" 
d="M184 -4l-32 125q-10 40 43 59q46 17 101 44t130.5 73.5t138.5 113t92 138.5q-73 -37 -184 -37q-151 0 -250.5 105t-99.5 282q0 147 64.5 268.5t173.5 189.5t239 68q115 0 204.5 -66.5t136 -175t46.5 -237.5q0 -137 -33 -261.5t-85 -216t-123.5 -171.5t-141 -133t-145 -96
t-127.5 -65t-96 -36q-46 -13 -52 29zM539 717q67 0 123 41.5t86 85.5q14 51 8 111.5t-23.5 113t-56.5 88t-90 35.5q-94 0 -161 -81.5t-67 -192.5q0 -87 49.5 -144t131.5 -57z" />
    <glyph glyph-name="colon" unicode=":" horiz-adv-x="526" 
d="M260 545q-52 0 -86.5 37.5t-34.5 91.5q0 68 49 117t113 49q53 0 88 -37t35 -92q0 -68 -49.5 -117t-114.5 -49zM59 109q0 68 49.5 116.5t114.5 48.5q52 0 86.5 -37.5t34.5 -91.5q0 -68 -49.5 -116.5t-114.5 -48.5q-52 0 -86.5 37.5t-34.5 91.5z" />
    <glyph glyph-name="semicolon" unicode=";" horiz-adv-x="493" 
d="M233 545q-58 0 -92.5 42.5t-25.5 104.5q7 61 53.5 104.5t105.5 43.5q53 0 88 -37t35 -92q0 -68 -49.5 -117t-114.5 -49zM41 100q0 62 47 108t113 46q52 0 92.5 -43t40.5 -133q0 -63 -18 -124t-40.5 -102t-59 -84t-55 -60.5t-46.5 -41.5q-22 -19 -41 2l-29 33
q-8 10 -4.5 22.5t14.5 22.5q1 1 16 14.5t29 27t34 36.5t35.5 46.5t29.5 55.5t20 64l-4 -1l-10 -2.5t-14 -3t-18.5 -2.5t-20.5 -1q-47 0 -79 34.5t-32 85.5z" />
    <glyph glyph-name="less" unicode="&#x3c;" horiz-adv-x="819" 
d="M37 430q-15 12 -12 37l2 14q2 18 20 29l705 434q19 12 34.5 1.5t12.5 -34.5l-21 -159q-2 -20 -20 -33l-412 -258v-10l338 -248q14 -11 12 -33l-20 -139q-3 -23 -21.5 -28t-33.5 7z" />
    <glyph glyph-name="equal" unicode="=" horiz-adv-x="942" 
d="M178 690q-14 0 -22 11.5t-6 27.5l16 117q2 15 13 27t26 12h614q15 0 24 -12t7 -27l-16 -117q-2 -15 -14 -27t-27 -12h-615zM119 260q-14 0 -22.5 11.5t-6.5 27.5l16 117q2 15 13 27t26 12h615q15 0 24 -12t7 -27l-17 -117q-2 -15 -14 -27t-27 -12h-614z" />
    <glyph glyph-name="greater" unicode="&#x3e;" horiz-adv-x="817" 
d="M39 8q-20 -12 -35 -2t-12 35l22 162q2 22 21 33l418 251v5l-347 260q-13 9 -10 32l19 136q3 24 20.5 30.5t34.5 -6.5l582 -434q17 -14 14 -33l-2 -14q-4 -22 -23 -33z" />
    <glyph glyph-name="question" unicode="?" horiz-adv-x="866" 
d="M303 557q-14 0 -23 11t-8 28l13 86q8 56 43.5 106.5t80 88t88.5 73.5t73.5 78t29.5 86q0 47 -28.5 76t-79.5 29q-15 0 -30.5 -4t-28.5 -8.5t-28.5 -14t-25 -16t-24 -18.5t-19.5 -16.5t-17.5 -16.5t-13.5 -13q-16 -12 -31.5 -11t-27.5 13l-94 105q-8 11 -5.5 25.5
t13.5 27.5l12 14q12 13 20 21t25.5 25t34.5 28.5t40.5 27t49 26t55.5 20.5t65.5 15t72.5 5q142 0 240.5 -89t98.5 -220q0 -78 -32 -143t-79.5 -108t-95.5 -78.5t-86 -73t-46 -74.5l-17 -78q-7 -33 -39 -33h-176zM166 127q0 76 58 133t132 57q61 0 102.5 -44t41.5 -105
q0 -75 -59 -131.5t-132 -56.5q-61 0 -102 43t-41 104z" />
    <glyph glyph-name="at" unicode="@" horiz-adv-x="1861" 
d="M47 328q0 238 73 445.5t203 357.5t319.5 236.5t412.5 86.5q166 0 304 -56t231 -153.5t144.5 -231t51.5 -288.5q0 -101 -17.5 -202.5t-58 -200t-98 -174t-145.5 -122t-193 -46.5q-164 0 -197 159h-12q-47 -65 -124 -112t-159 -47q-126 0 -204 105.5t-78 258.5
q0 210 116.5 353t284.5 143q73 0 129.5 -38.5t87.5 -82.5l35 69q6 13 8 17t10 9t21 5h70q14 0 22.5 -11t5.5 -28l-53 -374q-28 -205 80 -205q69 0 123 72.5t82 184.5t28 238q0 93 -19 174t-59 150t-99 118.5t-142 77t-184 27.5q-225 0 -401 -112.5t-274 -316t-98 -464.5
q0 -203 93 -368.5t247 -245.5q32 -16 15 -49l-68 -129q-8 -15 -20.5 -22t-24.5 -1q-201 92 -335 311t-134 482zM729 352q0 -69 30.5 -110t80.5 -41q70 0 128.5 71t73.5 174l13 84q-13 30 -53.5 59t-92.5 29q-85 0 -132.5 -75.5t-47.5 -190.5z" />
    <glyph glyph-name="A" unicode="A" horiz-adv-x="1232" 
d="M-43 0q-21 0 -28.5 16.5t3.5 36.5l770 1379q13 22 35 22h19q21 0 28 -22l377 -1379q6 -20 -5.5 -36.5t-33.5 -16.5h-178q-24 0 -36.5 9t-16.5 32l-51 227h-510l-119 -227q-21 -41 -66 -41h-188zM451 489h323l-96 447h-4z" />
    <glyph glyph-name="B" unicode="B" horiz-adv-x="1177" 
d="M109 39l190 1356q2 15 14 27t27 12h426q147 0 245.5 -98.5t98.5 -235.5q0 -88 -42.5 -170.5t-97 -133t-110.5 -75.5q75 -30 133 -103t58 -182q0 -188 -128 -312t-333 -124h-453q-15 0 -23 12t-5 27zM485 831h148q81 0 135.5 62t54.5 151q0 64 -33.5 105t-87.5 41h-165z
M401 242h177q79 0 135.5 61.5t56.5 147.5q0 65 -43.5 110t-101.5 45h-170z" />
    <glyph glyph-name="C" unicode="C" horiz-adv-x="1282" 
d="M104 616q0 177 60 333.5t162.5 266.5t243.5 174t298 64q132 0 241 -52.5t185 -141.5q9 -12 7 -29t-15 -29l-110 -106q-18 -15 -36 -14.5t-32 14.5q-106 102 -254 102q-121 0 -227 -75t-169 -201.5t-63 -270.5q0 -169 85.5 -286t228.5 -117q141 0 280 121q38 33 66 -2
l106 -134q7 -11 4 -27.5t-14 -27.5q-207 -198 -463 -198q-130 0 -240 50t-185 136t-117 202.5t-42 247.5z" />
    <glyph glyph-name="D" unicode="D" horiz-adv-x="1398" 
d="M109 39l190 1356q1 15 13 27t26 12h442q119 0 223 -51t176.5 -136t114 -199t41.5 -237q0 -164 -58 -313.5t-157.5 -259t-240.5 -174t-299 -64.5h-445q-13 0 -21 12t-5 27zM403 250h191q124 0 228.5 71t166.5 196.5t62 275.5q0 170 -89.5 281.5t-234.5 111.5h-192z" />
    <glyph glyph-name="E" unicode="E" horiz-adv-x="1116" 
d="M109 39l190 1356q1 15 13 27t26 12h758q15 0 23.5 -11.5t6.5 -27.5l-24 -168q-2 -15 -14 -27t-27 -12h-524l-48 -336h435q13 0 22.5 -12t7.5 -27l-24 -170q-3 -17 -15 -28t-26 -11h-434l-52 -358h527q14 0 22 -11.5t6 -27.5l-22 -168q-2 -15 -14 -27t-27 -12h-758
q-15 0 -23 12t-5 27z" />
    <glyph glyph-name="F" unicode="F" horiz-adv-x="1073" 
d="M109 39l190 1356q1 15 13 27t26 12h758q15 0 23.5 -11.5t6.5 -27.5l-24 -168q-2 -15 -14 -27t-27 -12h-524l-56 -385h437q14 0 22.5 -12t5.5 -27l-22 -168q-1 -15 -14 -27t-27 -12h-437l-71 -518q-3 -15 -15.5 -27t-25.5 -12h-197q-15 0 -23 12t-5 27z" />
    <glyph glyph-name="G" unicode="G" horiz-adv-x="1337" 
d="M104 616q0 177 59.5 333t161.5 266.5t243.5 174.5t299.5 64q262 0 426 -194q9 -12 7 -29t-15 -29l-108 -106q-40 -28 -68 0q-106 102 -256 102q-121 0 -227 -75t-169 -201.5t-63 -270.5q0 -165 92.5 -285t225.5 -120t209 49l24 180h-131q-15 0 -24 11t-7 26l23 160
q3 17 14.5 28t26.5 11h362q13 0 22 -12t7 -27l-68 -492q-5 -40 -32 -63q-16 -13 -44 -29.5t-86.5 -44t-146 -45.5t-182.5 -18q-164 0 -296.5 85.5t-206 230.5t-73.5 320z" />
    <glyph glyph-name="H" unicode="H" horiz-adv-x="1462" 
d="M109 39l190 1356q1 15 14 27t27 12h197q15 0 23.5 -11.5t6.5 -27.5l-75 -543h559l75 543q2 15 14 27t27 12h197q13 0 23 -12t8 -27l-191 -1356q-3 -15 -15.5 -27t-25.5 -12h-198q-14 0 -22.5 11.5t-6.5 27.5l80 565h-559l-80 -565q-3 -16 -15 -27.5t-26 -11.5h-199
q-14 0 -22.5 12t-5.5 27z" />
    <glyph glyph-name="I" unicode="I" horiz-adv-x="634" 
d="M109 39l190 1356q1 15 13 27t26 12h201q14 0 22.5 -12t5.5 -27l-190 -1356q-1 -15 -13 -27t-26 -12h-201q-14 0 -22.5 12t-5.5 27z" />
    <glyph glyph-name="J" unicode="J" horiz-adv-x="823" 
d="M-72 129q-15 23 13 51l94 92q25 24 51 -2q56 -49 121 -49q57 0 104 53.5t60 153.5l137 967q2 15 14 27t25 12h203q15 0 23.5 -11.5t6.5 -27.5l-137 -967q-30 -221 -133.5 -334.5t-296.5 -113.5q-74 0 -138.5 29t-96 59.5t-50.5 60.5z" />
    <glyph glyph-name="K" unicode="K" horiz-adv-x="1255" 
d="M109 49l188 1335q3 21 17 35.5t34 14.5h193q19 0 29.5 -15t7.5 -35l-78 -553l481 566q18 21 35.5 29t48.5 8h203q26 0 33 -22.5t-13 -45.5l-559 -627l414 -676q11 -21 -2 -42t-39 -21h-187q-30 0 -45 8.5t-28 32.5l-365 633l-88 -625q-1 -20 -16 -34.5t-33 -14.5h-193
q-20 0 -30 14t-8 35z" />
    <glyph glyph-name="L" unicode="L" horiz-adv-x="952" 
d="M109 39l190 1356q2 15 14 27t27 12h199q13 0 21.5 -12t6.5 -27l-161 -1149h452q14 0 22.5 -11.5t6.5 -27.5l-23 -168q-2 -15 -14 -27t-27 -12h-684q-15 0 -23.5 11.5t-6.5 27.5z" />
    <glyph glyph-name="M" unicode="M" horiz-adv-x="1652" 
d="M25 47l405 1376q8 31 39 31h29q21 0 28 -20l279 -928h4l557 928q13 20 35 20h31q11 0 19.5 -9.5t8.5 -21.5l19 -1376q0 -21 -11.5 -34t-29.5 -13h-197q-14 0 -22.5 9.5t-8.5 21.5l17 735h-6l-428 -764q-11 -22 -35 -22h-33q-22 0 -29 22l-209 764h-4l-196 -735
q-9 -31 -39 -31h-195q-18 0 -26 13t-2 34z" />
    <glyph glyph-name="N" unicode="N" horiz-adv-x="1464" 
d="M109 35l192 1382q1 15 13 26t26 11h53l625 -885h2l110 826q2 15 13 27t26 12h199q13 0 23 -12t8 -27l-195 -1379q-1 -15 -13 -25.5t-26 -10.5h-55l-623 911h-2l-110 -852q-2 -15 -14 -27t-27 -12h-197q-12 0 -20.5 11t-7.5 24z" />
    <glyph glyph-name="O" unicode="O" horiz-adv-x="1505" 
d="M102 614q0 171 59 326t160 268t244 179.5t303 66.5q162 0 295 -87.5t207 -234t74 -319.5q0 -170 -59.5 -324t-161 -265.5t-244 -177.5t-301.5 -66q-163 0 -296 87.5t-206.5 232.5t-73.5 314zM707 246q88 0 172 42.5t147.5 114t102 171t38.5 206.5q0 169 -93 288.5
t-236 119.5q-87 0 -171 -43.5t-147 -116t-102 -173t-39 -206.5q0 -169 93 -286t235 -117z" />
    <glyph glyph-name="P" unicode="P" horiz-adv-x="1124" 
d="M109 39l190 1356q2 15 14 27t27 12h438q100 0 182 -57.5t127.5 -151.5t45.5 -201q0 -220 -140 -362t-342 -142h-209l-67 -481q-1 -15 -14 -27t-27 -12h-197q-15 0 -23 12t-5 27zM477 770h191q76 0 136 72t60 170q0 72 -39.5 121t-99.5 49h-190z" />
    <glyph glyph-name="Q" unicode="Q" horiz-adv-x="1511" 
d="M104 614q0 228 101 421t278 306t389 113q163 0 295 -86t205.5 -232.5t73.5 -322.5q0 -264 -119 -456t-323 -306l172 -401q9 -21 -3 -38.5t-34 -17.5h-201q-21 0 -32.5 8t-18.5 29l-139 355q-38 -6 -72 -6q-122 0 -230 53t-182 141t-117 203t-43 237zM709 246
q88 0 172 42.5t147.5 114t102 171t38.5 206.5q0 169 -93 288.5t-236 119.5q-87 0 -171 -43.5t-147 -116t-102 -173t-39 -206.5q0 -169 93 -286t235 -117z" />
    <glyph glyph-name="R" unicode="R" horiz-adv-x="1277" 
d="M109 39l190 1356q1 15 13 27t26 12h541q149 0 247.5 -111.5t98.5 -271.5q0 -182 -87.5 -304t-238.5 -169l168 -525q6 -21 -3.5 -37t-31.5 -16h-194q-37 0 -45 33l-150 528h-194l-74 -522q-1 -15 -13 -27t-26 -12h-199q-15 0 -23 12t-5 27zM481 780h256q95 0 155 69.5
t60 168.5q0 70 -38.5 120t-94.5 50h-280z" />
    <glyph glyph-name="S" unicode="S" horiz-adv-x="1038" 
d="M55 139q-26 26 0 62l80 116q12 20 32.5 20.5t31.5 -11.5q124 -107 254 -107q72 0 127 50t55 124q0 64 -41.5 114t-134.5 111q-40 26 -69 47t-66.5 52t-63 62.5t-49 70t-35.5 83.5t-12 95q0 80 28 153.5t82 135.5t145.5 99.5t207.5 37.5q124 0 223 -45.5t141 -87.5
q37 -37 6 -82l-79 -113q-12 -19 -31 -20t-41 16q-38 31 -101 60.5t-131 29.5q-75 0 -124.5 -48t-49.5 -111q0 -57 37.5 -96.5t140.5 -108.5q125 -84 176 -131q140 -130 140 -297q0 -186 -134.5 -313t-355.5 -127q-74 0 -144 19t-119 47.5t-79.5 51.5t-46.5 41z" />
    <glyph glyph-name="T" unicode="T" horiz-adv-x="935" 
d="M256 39l162 1149h-271q-15 0 -23.5 11.5t-6.5 27.5l24 168q1 15 13 27t26 12h813q15 0 24 -12t7 -27l-25 -168q-2 -15 -14 -27t-27 -12h-270l-162 -1149q-1 -15 -14 -27t-27 -12h-198q-13 0 -23 12t-8 27z" />
    <glyph glyph-name="U" unicode="U" horiz-adv-x="1370" 
d="M162 543l121 852q1 15 14 27t27 12h202q15 0 24 -12t7 -27l-119 -838q-19 -131 37.5 -219t163.5 -88q108 0 190 87.5t101 217.5l119 840q2 15 14 27t27 12h202q13 0 23 -12t8 -27l-121 -852q-22 -156 -102 -283.5t-210.5 -203.5t-287.5 -76q-140 0 -249 75.5t-160.5 205
t-30.5 282.5z" />
    <glyph glyph-name="V" unicode="V" horiz-adv-x="1234" 
d="M492 2l-379 1378q-6 20 6.5 37t32.5 17h202q10 0 18.5 -7.5t10.5 -15.5l211 -856h8l455 856q14 23 33 23h229q21 0 28 -17t-4 -37l-770 -1378q-11 -22 -34 -22h-19q-21 0 -28 22z" />
    <glyph glyph-name="W" unicode="W" horiz-adv-x="1679" 
d="M330 8l-154 1376q-3 21 8.5 35.5t30.5 14.5h178q10 0 18.5 -9t10.5 -20l70 -776h8l413 803q11 22 35 22h33q25 0 29 -22l166 -803h8l291 776q5 11 15.5 20t20.5 9h195q20 0 28 -14t-1 -36l-541 -1376q-4 -12 -15 -20t-22 -8h-31q-24 0 -28 22l-209 887h-8l-455 -887
q-11 -22 -35 -22h-29q-26 0 -30 28z" />
    <glyph glyph-name="X" unicode="X" horiz-adv-x="1218" 
d="M12 0q-23 0 -28 16.5t10 36.5l479 682l-283 645q-8 21 3.5 37.5t35.5 16.5h207q21 0 27 -19l186 -465h4l301 465q14 19 33 19h250q23 0 29 -17t-9 -37l-464 -645l290 -682q9 -22 -1 -37.5t-33 -15.5h-197q-11 0 -19 6t-10 12l-205 500h-6l-329 -500q-13 -18 -35 -18h-236
z" />
    <glyph glyph-name="Y" unicode="Y" horiz-adv-x="1091" 
d="M332 39l92 651l-320 694q-9 20 2 35t33 15h193q16 0 24.5 -6.5t14.5 -22.5l215 -471l344 481q14 19 33 19h225q23 0 27.5 -17t-9.5 -37l-516 -688l-90 -653q-1 -15 -14 -27t-27 -12h-199q-14 0 -22 11.5t-6 27.5z" />
    <glyph glyph-name="Z" unicode="Z" horiz-adv-x="1026" 
d="M14 0q-14 0 -22.5 12t-5.5 27l4 37l680 1102v8h-434q-13 0 -23 12t-8 27l24 170q1 15 14 27t27 12h777q13 0 22.5 -12t7.5 -27l-4 -27l-667 -1112v-8h438q14 0 22 -11.5t6 -27.5l-22 -170q-2 -15 -14 -27t-27 -12h-795z" />
    <glyph glyph-name="bracketleft" unicode="[" horiz-adv-x="679" 
d="M231 -410h236q14 0 23 -10.5t8 -25.5l-19 -129q-1 -15 -14 -27t-27 -12h-436q-13 0 -23 12t-8 27l279 1970q2 15 14 27t25 12h438q13 0 22 -12t7 -27l-17 -127q-1 -17 -14 -28t-27 -11h-235z" />
    <glyph glyph-name="backslash" unicode="\" horiz-adv-x="673" 
d="M324 27l-168 1355q-3 22 9 37t32 15h141q11 0 20.5 -8.5t10.5 -18.5l170 -1356q3 -21 -9.5 -36t-31.5 -15h-144q-10 0 -19 8t-11 19z" />
    <glyph glyph-name="bracketright" unicode="]" horiz-adv-x="681" 
d="M-61 -410h235l232 1639h-238q-14 0 -23 11t-6 28l19 127q2 15 14 27t25 12h438q14 0 23 -12t6 -27l-277 -1970q-1 -15 -14 -27t-27 -12h-436q-13 0 -23 12t-8 27l19 129q1 15 14 25.5t27 10.5z" />
    <glyph glyph-name="asciicircum" unicode="^" horiz-adv-x="966" 
d="M119 788q-22 0 -27 15.5t10 34.5l469 604q16 20 35 20h10q21 0 29 -20l293 -602q9 -20 0 -36t-31 -16h-133q-25 0 -33 19l-163 344h-3l-264 -344q-14 -19 -43 -19h-149z" />
    <glyph glyph-name="underscore" unicode="_" horiz-adv-x="794" 
d="M-8 -20h645q15 0 24.5 -11t6.5 -28l-13 -80q-3 -16 -14 -26.5t-25 -10.5h-647q-13 0 -21.5 11t-6.5 26l10 80q1 17 13.5 28t27.5 11z" />
    <glyph glyph-name="grave" unicode="`" horiz-adv-x="557" 
d="M465 1087l-307 158q-29 17 -4 55l59 89q12 19 30.5 21.5t24.5 -5.5l281 -199q8 -5 10.5 -16t-4.5 -23l-41 -67q-19 -29 -49 -13z" />
    <glyph glyph-name="a" unicode="a" horiz-adv-x="970" 
d="M569 334l25 170q-6 37 -41 75.5t-92 38.5q-75 0 -134 -71.5t-59 -186.5q0 -68 37 -113.5t98 -45.5q57 0 104.5 46t61.5 87zM872 780l-102 -741q-1 -15 -14 -27t-27 -12h-80q-26 0 -33 35l-12 61q-22 -20 -36.5 -32t-50.5 -35.5t-81 -36t-96 -12.5q-128 0 -214.5 109
t-86.5 267q0 200 122 342t300 142q78 0 138.5 -36.5t90.5 -76.5l37 66q15 26 37 26h80q14 0 22.5 -11t5.5 -28z" />
    <glyph glyph-name="b" unicode="b" horiz-adv-x="960" 
d="M45 39l191 1356q1 15 13.5 27t26.5 12h183q13 0 22.5 -12t7.5 -27l-83 -592q72 37 149 37q148 0 236 -106.5t88 -266.5q0 -130 -56 -241.5t-154 -178.5t-214 -67q-45 0 -85 12.5t-65 30.5t-43.5 36t-26.5 31l-8 12l-30 -67q-15 -35 -43 -35h-80q-14 0 -23 12t-6 27z
M332 336q6 -48 37 -91.5t88 -43.5q75 0 131.5 75t56.5 173q0 74 -38 121.5t-101 47.5q-37 0 -71.5 -12t-50.5 -24l-15 -11z" />
    <glyph glyph-name="c" unicode="c" horiz-adv-x="811" 
d="M39 360q0 207 128 343.5t308 136.5q90 0 164.5 -41.5t114.5 -104.5q18 -26 -17 -57l-82 -76q-15 -11 -28.5 -9t-22.5 11q-1 1 -8.5 8t-11 9.5t-11.5 8.5t-13.5 9t-15.5 7.5t-18.5 7t-20.5 4t-24 1.5q-77 0 -137.5 -69.5t-60.5 -171.5q0 -75 36.5 -125.5t94.5 -50.5
q73 0 145 78q10 12 23.5 13t27.5 -11l80 -78q27 -27 6 -58q-58 -75 -136.5 -120t-170.5 -45q-152 0 -251 108t-99 272z" />
    <glyph glyph-name="d" unicode="d" horiz-adv-x="964" 
d="M340 -20q-128 0 -214.5 109t-86.5 267q0 131 56.5 242.5t155.5 176.5t218 65q41 0 85.5 -12t68.5 -27l84 594q4 39 86 39h137q13 0 23 -12t8 -27l-191 -1356q-1 -15 -14 -27t-27 -12h-80q-26 0 -33 35l-12 61q-124 -116 -264 -116zM268 360q0 -68 37 -113.5t98 -45.5
q57 0 104.5 46t61.5 87l23 235q-5 5 -14 13.5t-41.5 22t-69.5 13.5q-80 0 -139.5 -76.5t-59.5 -181.5z" />
    <glyph glyph-name="e" unicode="e" horiz-adv-x="823" 
d="M35 344q0 129 59.5 241.5t171 183.5t250.5 71q120 0 191 -61t71 -156q0 -74 -50 -131t-130 -88t-164.5 -46t-169.5 -16q-5 -67 28.5 -108t106.5 -41q35 0 76.5 14.5t69.5 34.5q33 22 47 0l67 -97q8 -10 7 -25.5t-13 -27.5q-122 -112 -293 -112q-144 0 -234.5 106
t-90.5 258zM295 502q55 1 109.5 10.5t98.5 32t44 53.5q0 23 -18 37t-52 14q-58 0 -111 -45.5t-71 -101.5z" />
    <glyph glyph-name="f" unicode="f" horiz-adv-x="673" 
d="M0 -575l172 1179h-70q-15 0 -23.5 11.5t-6.5 27.5l20 137q1 17 12.5 28t26.5 11h70l32 221q63 414 408 414q68 0 133 -26t88 -54q7 -7 7.5 -22t-5.5 -25l-71 -127q-22 -37 -56 -16q-50 28 -102 28q-119 0 -143 -172l-31 -221h176q15 0 23.5 -11t5.5 -28l-19 -137
q-2 -15 -14 -27t-27 -12h-176l-170 -1179q-3 -15 -15.5 -27t-25.5 -12h-190q-14 0 -23 12t-6 27z" />
    <glyph glyph-name="g" unicode="g" horiz-adv-x="960" 
d="M348 -20q-135 0 -223 106.5t-88 263.5q0 130 56.5 243t154 180t211.5 67q78 0 139 -36t90 -77l37 66q15 26 37 26h80q14 0 22.5 -11t5.5 -28l-120 -870q-17 -122 -56.5 -209t-98.5 -137t-129.5 -73t-158.5 -23q-89 0 -167 39t-120 85q-40 40 -8 78l70 88q26 33 68 0
q83 -71 165 -71q74 0 117.5 54.5t63.5 174.5l16 109q-83 -45 -164 -45zM270 367q0 -73 38 -119.5t102 -46.5q37 0 70.5 11.5t47.5 23.5l15 12l43 287q-11 29 -43 56t-84 27q-77 0 -133 -76t-56 -175z" />
    <glyph glyph-name="h" unicode="h" horiz-adv-x="999" 
d="M45 39l191 1356q1 15 13.5 27t26.5 12h183q13 0 22.5 -12t7.5 -27l-88 -623q36 28 89 48t102 20q84 0 147 -34.5t94.5 -91.5t45.5 -130.5t0 -151.5l-56 -393q-1 -15 -14 -27t-27 -12h-176q-14 0 -22 11.5t-6 27.5l55 397q12 85 -18 133.5t-97 48.5q-28 0 -54 -11.5
t-43 -27.5t-30.5 -32t-19.5 -27l-6 -12l-66 -469q-7 -39 -45 -39h-180q-13 0 -22 12t-7 27z" />
    <glyph glyph-name="i" unicode="i" 
d="M319 1110q-52 0 -85 35.5t-33 87.5q0 65 47.5 112.5t109.5 47.5q53 0 88 -36t35 -89q0 -64 -49 -111t-113 -47zM45 39l105 741q3 17 14.5 28t25.5 11h181q14 0 23.5 -11t6.5 -28l-104 -741q-1 -15 -14 -27t-27 -12h-180q-13 0 -23 12t-8 27z" />
    <glyph glyph-name="j" unicode="j" 
d="M317 1110q-52 0 -85 35.5t-33 87.5q0 65 47.5 112.5t111.5 47.5q52 0 86.5 -36t34.5 -89q0 -64 -49 -111t-113 -47zM6 -221l139 1001q3 17 15 28t26 11h185q14 0 22.5 -11t5.5 -28l-145 -1020q-26 -189 -128.5 -292t-262.5 -103q-67 0 -134 27.5t-94 52.5q-9 9 -9 24
t9 29l64 113q10 16 25.5 19.5t25.5 -3.5q63 -33 109 -33q122 0 147 185z" />
    <glyph glyph-name="k" unicode="k" horiz-adv-x="948" 
d="M45 39l191 1356q1 15 13.5 27t26.5 12h183q13 0 22.5 -12t7.5 -27l-124 -887l249 287q21 24 50 24h221q23 0 27.5 -19t-13.5 -36l-313 -330l268 -383q12 -17 2.5 -34t-33.5 -17h-213q-14 0 -26 16l-238 369l-47 -346q-3 -15 -15.5 -27t-25.5 -12h-184q-14 0 -23 12t-6 27
z" />
    <glyph glyph-name="l" unicode="l" horiz-adv-x="491" 
d="M45 39l191 1356q1 15 13.5 27t26.5 12h181q13 0 22.5 -12t7.5 -27l-190 -1356q-1 -15 -14 -27t-27 -12h-182q-13 0 -22 12t-7 27z" />
    <glyph glyph-name="m" unicode="m" horiz-adv-x="1474" 
d="M45 39l105 741q1 17 12.5 28t25.5 11h78q22 0 29 -22l18 -78q133 121 265 121q75 0 126 -31.5t93 -95.5q27 26 61 50.5t96 50.5t121 26q84 0 145 -34t91.5 -90.5t42.5 -130.5t-2 -155l-56 -391q-3 -16 -14.5 -27.5t-26.5 -11.5h-176q-13 0 -21.5 12t-6.5 27l59 405
q24 174 -96 174q-27 0 -53.5 -11t-44.5 -27t-32 -32t-21 -27l-7 -11q-6 -9 -72 -471q-2 -15 -14 -27t-27 -12h-159q-15 0 -23.5 12t-5.5 27l57 405q23 174 -100 174q-44 0 -83 -27.5t-56 -54.5l-17 -28l-67 -469q-1 -15 -14 -27t-27 -12h-174q-14 0 -23 12t-6 27z" />
    <glyph glyph-name="n" unicode="n" horiz-adv-x="995" 
d="M45 39l105 741q1 17 12.5 28t25.5 11h80q10 0 19 -7t10 -17l18 -76q135 121 277 121q108 0 179 -58.5t95 -149.5t8 -200l-55 -393q-1 -15 -13 -27t-26 -12h-178q-14 0 -22.5 11.5t-6.5 27.5l60 405q11 81 -16.5 127.5t-88.5 46.5q-30 0 -59 -11.5t-49 -28.5t-36 -34
t-24 -28l-8 -12l-65 -465q-3 -22 -12 -30.5t-31 -8.5h-170q-14 0 -23 12t-6 27z" />
    <glyph glyph-name="o" unicode="o" horiz-adv-x="890" 
d="M37 354q0 129 59.5 241t162.5 178.5t224 66.5q139 0 232.5 -110t93.5 -263q0 -130 -61 -242.5t-164 -178.5t-222 -66q-139 0 -232 111t-93 263zM393 201q74 0 131.5 72t57.5 171q0 74 -36 124t-93 50q-76 0 -133.5 -71t-57.5 -168q0 -75 36 -126.5t95 -51.5z" />
    <glyph glyph-name="p" unicode="p" horiz-adv-x="962" 
d="M297 25l-84 -600q-3 -20 -13.5 -29.5t-35.5 -9.5h-176q-12 0 -20.5 9.5t-8.5 22.5v7l191 1355q1 17 12.5 28t25.5 11h82q8 0 17 -6.5t12 -17.5l16 -68q40 42 112 77.5t151 35.5q132 0 216.5 -107.5t84.5 -261.5q0 -206 -127 -348.5t-306 -142.5q-88 0 -149 45zM322 252
q4 -6 13 -14.5t40.5 -22.5t68.5 -14q83 0 140 76t57 174q0 70 -35.5 118.5t-95.5 48.5q-57 0 -101 -33.5t-61 -66.5z" />
    <glyph glyph-name="q" unicode="q" horiz-adv-x="962" 
d="M350 -20q-132 0 -221.5 107t-89.5 263q0 131 55 243.5t152.5 179.5t214.5 67q78 0 138.5 -36.5t90.5 -76.5l37 66q15 26 37 26h80q14 0 22.5 -11t5.5 -28l-190 -1355q-1 -15 -14 -27t-27 -12h-178q-39 0 -33 39l84 600q-83 -45 -164 -45zM412 201q37 0 72 12.5t51 25.5
l16 13l43 252q-6 37 -41 75.5t-92 38.5q-82 0 -135.5 -79t-53.5 -172q0 -73 38 -119.5t102 -46.5z" />
    <glyph glyph-name="r" unicode="r" horiz-adv-x="663" 
d="M45 39l105 741q1 17 12.5 28t25.5 11h80q9 0 18.5 -8t12.5 -18l18 -80q32 44 92.5 85.5t129.5 41.5q82 0 129 -33q22 -15 4 -49l-76 -133q-16 -29 -43 -17q-29 13 -70 13q-34 0 -65 -21.5t-46 -43.5l-14 -21l-69 -496q-5 -39 -47 -39h-168q-14 0 -23 12t-6 27z" />
    <glyph glyph-name="s" unicode="s" horiz-adv-x="704" 
d="M23 59q-22 19 -3 50l68 104q6 11 21 14t26 -4q61 -39 148 -39q28 0 46.5 13t18.5 34q0 31 -21.5 53t-88.5 62q-83 46 -124.5 100.5t-41.5 137.5q0 110 74 183t235 73q76 0 139 -21.5t96 -46.5q13 -10 17 -26.5t-6 -32.5l-70 -103q-8 -11 -22.5 -14.5t-30.5 6.5
q-56 31 -137 31q-66 0 -66 -47q0 -22 18 -38.5t64 -41.5q54 -30 87 -52t65.5 -53.5t47.5 -69.5t15 -85q0 -112 -85 -189t-239 -77q-156 0 -251 79z" />
    <glyph glyph-name="t" unicode="t" horiz-adv-x="675" 
d="M121 244l51 360h-74q-13 0 -21.5 12t-6.5 27l18 137q3 17 14 28t25 11h76l30 228q3 15 15.5 26.5t25.5 11.5l179 2q13 0 21 -11.5t5 -26.5l-30 -230h147q15 0 23.5 -11t5.5 -28l-19 -137q-3 -16 -14.5 -27.5t-26.5 -11.5h-147l-47 -323q-9 -66 45 -66q20 0 82 25
q15 6 25.5 -1t13.5 -22l20 -135q6 -30 -31 -49q-19 -12 -93 -32.5t-134 -20.5q-105 0 -150 69t-28 195z" />
    <glyph glyph-name="u" unicode="u" horiz-adv-x="966" 
d="M342 -20q-81 0 -139.5 33.5t-87 89.5t-39 129t3.5 151l57 397q1 17 13 28t26 11h178q14 0 23 -11t6 -28l-57 -403q-11 -82 13.5 -129t76.5 -47q28 0 54.5 12t44 29t30.5 34t19 29l7 12l64 463q8 39 45 39h168q14 0 23 -11t6 -28l-103 -741q-1 -15 -14 -27t-27 -12h-80
q-22 0 -30 31l-15 67q-108 -118 -266 -118z" />
    <glyph glyph-name="v" unicode="v" horiz-adv-x="792" 
d="M279 0l-238 772q-6 20 4.5 33.5t30.5 13.5h162q23 0 30 -22l94 -361h7l192 361q13 22 49 22h170q20 0 26.5 -15.5t-5.5 -35.5l-451 -768q-10 -20 -35 -20h-8q-20 0 -28 20z" />
    <glyph glyph-name="w" unicode="w" horiz-adv-x="1163" 
d="M197 2l-131 774q-6 43 34 43h158q10 0 19 -7t10 -17l55 -346h2l236 372q13 19 32 19h17q18 0 26 -19l121 -372h2l158 346q10 24 47 24h150q20 0 25.5 -13.5t-3.5 -33.5l-348 -770q-11 -22 -37 -22h-8q-20 0 -27 18l-166 463h-2l-301 -463q-11 -18 -33 -18h-8
q-24 0 -28 22z" />
    <glyph glyph-name="x" unicode="x" horiz-adv-x="870" 
d="M-8 0q-23 0 -27 16.5t12 36.5l297 371l-192 338q-11 20 -1.5 38.5t32.5 18.5h174q26 0 39 -28l104 -209h2l146 209q12 17 23 22.5t32 5.5h192q24 0 29.5 -18.5t-10.5 -38.5l-291 -356l195 -351q9 -20 -2 -37.5t-33 -17.5h-158q-12 0 -20.5 5t-12 10.5t-10.5 17.5
l-113 219h-2l-170 -236q-12 -16 -32 -16h-203z" />
    <glyph glyph-name="y" unicode="y" horiz-adv-x="870" 
d="M233 57l-186 709q-6 21 2 37t29 16h176q8 0 17 -6.5t12 -15.5l106 -486h2l240 486q10 22 41 22h182q22 0 28.5 -16.5t-5.5 -36.5l-754 -1356q-16 -24 -35 -24h-190q-21 0 -26.5 13.5t7.5 35.5z" />
    <glyph glyph-name="z" unicode="z" horiz-adv-x="700" 
d="M20 0q-14 0 -23.5 12t-6.5 27l4 20l317 537v4h-190q-13 0 -21 12t-6 27l19 141q1 17 13 28t26 11h493q22 0 29.5 -17.5t-4.5 -37.5l-328 -541v-6h182q15 0 23 -11t6 -28l-18 -139q-2 -15 -14 -27t-27 -12h-474z" />
    <glyph glyph-name="braceleft" unicode="{" horiz-adv-x="737" 
d="M104 -74l35 252q8 61 -28 96t-80 43q-27 5 -23 37l15 101q4 25 30 34q8 3 25.5 11.5t46.5 26.5t51.5 46t26.5 58l37 260q14 98 41.5 179.5t61 138t77.5 100t86.5 69.5t92 43.5t91 24t86.5 8.5q36 0 33 -35l-10 -129q-3 -29 -31 -37q-108 -24 -178.5 -116t-93.5 -246
l-31 -215q-6 -42 -22.5 -80.5t-36.5 -65t-43 -50.5t-41 -37t-32.5 -22.5t-15.5 -10.5v-9q15 -7 30 -17t34.5 -29t33 -41.5t21 -56t2.5 -71.5l-41 -336q-13 -110 38 -183.5t140 -98.5q26 -9 21 -39l-27 -129q-3 -15 -16 -25t-27 -10q-50 3 -97.5 15.5t-97.5 39t-87 68.5
t-66.5 103.5t-36 144t5.5 190.5z" />
    <glyph glyph-name="bar" unicode="|" horiz-adv-x="358" 
d="M-31 -578l295 2096q1 17 13 27.5t26 10.5h29q14 0 21.5 -10.5t6.5 -27.5l-294 -2096q-1 -15 -14 -25.5t-27 -10.5h-25q-14 0 -23 10.5t-8 25.5z" />
    <glyph glyph-name="braceright" unicode="}" horiz-adv-x="739" 
d="M197 -74l30 219q8 58 31 105.5t55 77t56 46t49 27.5v9l-12 10q-12 10 -26 23t-30.5 37t-28.5 50.5t-17.5 65t-0.5 80.5l29 215q23 153 -22.5 245t-147.5 117q-10 2 -17 11.5t-4 25.5l27 129q6 35 41 35q127 -6 222.5 -87t137 -204.5t23.5 -257.5l-39 -274
q-5 -31 7.5 -57.5t35 -44t39 -26.5t29.5 -14q8 -3 13.5 -13t4.5 -21l-12 -101q-4 -26 -29 -32q-24 -7 -35 -10t-35.5 -15t-37.5 -25.5t-26.5 -38t-17.5 -55.5l-34 -252q-19 -137 -64 -241t-99 -163t-123.5 -96t-129 -49t-123.5 -12q-34 0 -31 29l9 135q3 32 30 39
q109 27 180.5 116.5t92.5 241.5z" />
    <glyph glyph-name="asciitilde" unicode="~" horiz-adv-x="1013" 
d="M147 397l-88 99q-20 23 2 49q6 8 16.5 21t44 46.5t67 59t81 46.5t90.5 21q88 0 189 -84q4 -3 20.5 -16.5t24.5 -19t22.5 -14t28.5 -12t29 -3.5q19 0 38.5 9t42 31.5l30.5 30.5t30 35q13 15 29 15.5t26 -11.5l82 -96q8 -9 7 -24t-11 -25q-6 -8 -16 -21t-42.5 -46.5
t-65 -59.5t-78.5 -47t-89 -21q-102 0 -208 89q-24 21 -33 28.5t-31 18t-43 10.5q-62 0 -141 -105q-12 -15 -28 -15.5t-26 11.5z" />
    <glyph glyph-name="uni00A0" unicode="&#xa0;" horiz-adv-x="458" 
 />
    <glyph glyph-name="exclamdown" unicode="&#xa1;" horiz-adv-x="532" 
d="M258 502q-62 0 -103.5 44t-41.5 105q0 76 59 132.5t133 56.5q59 0 100 -43.5t41 -104.5q0 -76 -57.5 -133t-130.5 -57zM147 229q3 12 16 22.5t25 10.5h68q13 0 23 -10.5t8 -22.5l2 -571l-33 -233q-2 -15 -14 -27t-25 -12h-235q-13 0 -22 12t-7 27l33 229z" />
    <glyph glyph-name="cent" unicode="&#xa2;" horiz-adv-x="778" 
d="M217 12q-93 45 -147 137t-54 211q0 103 35 193t94.5 152.5t139.5 98.5t168 36q31 0 77 -11l35 91q6 15 19.5 22t25.5 4l27 -6q14 -3 19 -16.5t-1 -30.5l-37 -96q69 -40 113 -103q18 -27 -16 -57l-82 -76q-15 -11 -28.5 -9t-22.5 11q-3 2 -11 9t-15.5 13.5t-14.5 10.5
l-154 -395h4q74 0 146 78q10 12 23.5 13t27.5 -11l80 -78q27 -27 6 -58q-58 -75 -136.5 -120t-170.5 -45q-35 0 -62 6l-76 -199q-6 -15 -18.5 -22.5t-26.5 -4.5l-24 7q-14 3 -20.5 16.5t-0.5 28.5zM305 242l144 376q-74 -5 -131.5 -73.5t-57.5 -167.5q0 -87 45 -135z" />
    <glyph glyph-name="sterling" unicode="&#xa3;" horiz-adv-x="927" 
d="M66 39l6 37q146 237 139 520h-78q-14 0 -23 12t-6 27l5 27q3 15 14 26.5t24 11.5h58q-17 134 -17 252q0 231 128 366.5t333 135.5q165 0 297 -145q9 -9 8 -25.5t-12 -28.5l-117 -114q-27 -27 -49 -6q-47 53 -84 71q-33 17 -65 17q-70 0 -123 -63t-53 -177q0 -47 14 -147
t16 -136h189q15 0 25 -11.5t7 -26.5l-6 -29q-3 -15 -14.5 -26t-26.5 -11h-172q-8 -202 -71 -369h333q14 0 22 -11t5 -28l-20 -149q-2 -15 -14 -27t-25 -12h-617q-13 0 -22.5 12t-7.5 27z" />
    <glyph glyph-name="currency" unicode="&#xa4;" horiz-adv-x="878" 
d="M168 330l-72 82q-9 9 -6 26.5t14 28.5l107 98q-23 121 33 230l-80 98q-8 10 -6 28t14 27l94 80q12 10 27 10t22 -10l78 -96q105 55 195 0l104 96q11 10 25.5 9.5t23.5 -9.5l72 -82q9 -9 7 -25.5t-13 -27.5l-105 -96q27 -123 -32 -234l78 -96q8 -10 5.5 -27.5t-14.5 -27.5
l-96 -80q-13 -10 -26 -11t-21 9l-80 98q-50 -26 -100.5 -26t-91.5 26l-107 -98q-11 -10 -25.5 -9.5t-23.5 9.5zM440 575q37 0 66 30.5t33 74.5q7 46 -13.5 76t-58.5 30q-35 0 -63.5 -30.5t-34.5 -75.5q-6 -44 14 -74.5t57 -30.5z" />
    <glyph glyph-name="yen" unicode="&#xa5;" horiz-adv-x="1193" 
d="M219 246q-13 0 -20.5 11.5t-5.5 27.5l4 26q1 15 13 27t26 12h192l21 142h-195q-14 0 -22 11.5t-5 26.5l4 27q2 15 13 27t24 12h195l14 94l-319 694q-9 20 2 35t33 15h192q16 0 24.5 -6.5t14.5 -22.5l215 -471l344 481q14 19 33 19h225q23 0 28 -17t-9 -37l-517 -688
l-14 -96h193q15 0 23 -12t5 -27l-2 -29q-3 -15 -14.5 -25.5t-26.5 -10.5h-192l-19 -142h191q15 0 24 -12t7 -27l-5 -28q-3 -15 -14.5 -26t-26.5 -11h-190l-29 -207q-1 -15 -14 -27t-27 -12h-198q-14 0 -22.5 11.5t-6.5 27.5l29 207h-195z" />
    <glyph glyph-name="brokenbar" unicode="&#xa6;" horiz-adv-x="647" 
d="M348 803q-14 0 -23 11t-8 26l97 678q1 17 13 27.5t26 10.5h28q14 0 22 -10.5t7 -27.5l-96 -678q-1 -15 -13 -26t-26 -11h-27zM213 100q3 17 15 28t26 11h29q14 0 21.5 -11t6.5 -28l-96 -678q-1 -15 -14 -25.5t-27 -10.5h-24q-14 0 -23 10.5t-8 25.5z" />
    <glyph glyph-name="section" unicode="&#xa7;" horiz-adv-x="972" 
d="M39 -190q32 48 70 16q15 -13 45 -33t90 -44.5t110 -24.5q64 0 110 39.5t46 103.5q0 133 -164 229q-57 33 -99.5 65.5t-86.5 78.5t-68 104.5t-24 124.5q0 110 47.5 194.5t124.5 135.5q-39 34 -66 96.5t-27 140.5q0 79 27 151.5t79 133t139 97t198 36.5q31 0 61 -3
t56.5 -10t48.5 -14t44.5 -18t37.5 -18.5t33.5 -20t26 -18t22.5 -17t16 -12.5q12 -9 13 -28.5t-11 -34.5l-84 -111q-28 -38 -63 -10q-33 29 -100 57.5t-132 28.5q-66 0 -108.5 -44t-42.5 -104q0 -55 40.5 -101.5t126.5 -90.5q48 -25 83.5 -47t80.5 -58.5t73.5 -74t48.5 -91
t20 -112.5q0 -107 -51 -197.5t-121 -140.5q37 -33 63.5 -97t26.5 -145q0 -89 -31.5 -167t-89.5 -137.5t-147.5 -93.5t-198.5 -34q-66 0 -131.5 18.5t-112 45.5t-76 49.5t-43.5 38.5q-13 16 -13.5 29.5t15.5 39.5zM520 283q3 2 9 7t21 22.5t26 37t20.5 51.5t9.5 66
q0 67 -54 117t-159 102q-78 -68 -78 -178q0 -17 2.5 -32t10.5 -29.5t14 -25.5t20.5 -25t23 -22t30 -22.5t31 -21t36 -23.5t37.5 -24z" />
    <glyph glyph-name="dieresis" unicode="&#xa8;" horiz-adv-x="763" 
d="M604 1128q-49 0 -77.5 38.5t-20.5 93.5q6 54 44.5 91.5t88.5 37.5q48 0 78 -37.5t24 -91.5q-7 -54 -48 -93t-89 -39zM233 1128q-47 0 -76 39t-22 93q6 53 45.5 91t87.5 38q49 0 79 -37.5t24 -91.5q-8 -54 -48.5 -93t-89.5 -39z" />
    <glyph glyph-name="copyright" unicode="&#xa9;" horiz-adv-x="1495" 
d="M96 621q0 134 39.5 261t112 229.5t167.5 180t213 120t242 42.5q161 0 292 -86.5t203.5 -233t72.5 -321.5q0 -168 -62.5 -322t-167 -265.5t-247.5 -177.5t-297 -66q-161 0 -292 86t-203.5 232t-72.5 321zM252 639q0 -135 55 -249t155 -181.5t224 -67.5q114 0 223 52.5
t191 140t132 209t50 252.5q0 208 -123 352.5t-311 144.5q-114 0 -223 -52t-191 -139t-132 -208.5t-50 -253.5zM434 672q0 182 117.5 304t282.5 122q134 0 204 -78q11 -12 10 -29.5t-16 -29.5l-84 -74q-24 -21 -45 -4q-38 28 -92 28q-74 0 -129 -66.5t-55 -156.5
q0 -69 36 -115.5t95 -46.5q43 0 96 39q12 9 24.5 8t20.5 -12l68 -88q7 -12 4 -28.5t-15 -28.5q-104 -86 -221 -86q-129 0 -215 98.5t-86 243.5z" />
    <glyph glyph-name="ordfeminine" unicode="&#xaa;" horiz-adv-x="602" 
d="M266 815q-73 0 -117.5 48t-44.5 128q0 98 68 162t180 64q21 0 43.5 -4.5t34.5 -8.5l12 -4q11 59 -1 84t-56 25q-46 0 -141 -23q-15 -3 -22.5 5t-6.5 26l-2 67q0 24 29 41q56 29 184 29q122 0 162.5 -64t21.5 -200l-45 -330q-1 -12 -10 -20.5t-20 -8.5h-56q-23 0 -35 64
q-24 -23 -43.5 -37.5t-56.5 -28.5t-78 -14zM330 954q27 0 50.5 17.5t31.5 38.5l8 80q-20 16 -64 16q-34 0 -58 -25t-24 -65q0 -28 15.5 -45t40.5 -17z" />
    <glyph glyph-name="guillemotleft" unicode="&#xab;" horiz-adv-x="921" 
d="M569 80l-147 317q-13 26 6 49l234 304q19 24 43 24h131q24 0 29 -19t-9 -44l-164 -305l66 -281q6 -25 -4 -43.5t-33 -18.5h-127q-16 0 -25 17zM184 80l-147 317q-13 26 6 49l233 304q19 24 43 24h132q24 0 29 -19t-9 -44l-164 -305l66 -281q6 -25 -4 -43.5t-33 -18.5
h-127q-17 0 -25 17z" />
    <glyph glyph-name="logicalnot" unicode="&#xac;" horiz-adv-x="948" 
d="M84 614q-13 0 -22 12t-7 27l17 115q2 15 14 27t25 12h733q14 0 22 -12t6 -27l-65 -463q-1 -15 -13 -26t-26 -11h-119q-14 0 -22.5 11t-5.5 26l43 309h-580z" />
    <glyph glyph-name="uni00AD" unicode="&#xad;" horiz-adv-x="638" 
d="M166 393q-15 0 -23 11t-6 26l19 137q1 17 13.5 28t27.5 11h417q15 0 23 -11t6 -28l-18 -137q-1 -15 -13.5 -26t-27.5 -11h-418z" />
    <glyph glyph-name="registered" unicode="&#xae;" horiz-adv-x="1495" 
d="M96 621q0 134 39.5 261t112 229.5t167.5 180t213 120t242 42.5q161 0 292 -86.5t203.5 -233t72.5 -321.5q0 -168 -62.5 -322t-167 -265.5t-247.5 -177.5t-297 -66q-161 0 -292 86t-203.5 232t-72.5 321zM252 639q0 -135 55 -249t155 -181.5t224 -67.5q114 0 223 52.5
t191 140t132 209t50 252.5q0 208 -123 352.5t-311 144.5q-114 0 -223 -52t-191 -139t-132 -208.5t-50 -253.5zM500 344q-15 0 -23.5 12t-5.5 27l94 672q1 15 13 27t26 12h293q81 0 138 -59.5t57 -157.5q0 -191 -164 -254l51 -224q5 -22 -7 -38.5t-32 -16.5h-111q-10 0 -18 9
t-10 20l-41 229h-88l-31 -219q-2 -15 -13 -27t-26 -12h-102zM688 754h135q31 0 55.5 29t24.5 69q0 31 -15 50.5t-40 19.5h-135z" />
    <glyph glyph-name="macron" unicode="&#xaf;" horiz-adv-x="763" 
d="M106 1167q-15 0 -22.5 10.5t-5.5 26.5l8 70q1 17 13.5 28t27.5 11h473q14 0 23 -11t6 -28l-11 -70q-2 -15 -12.5 -26t-25.5 -11h-474z" />
    <glyph glyph-name="degree" unicode="&#xb0;" horiz-adv-x="585" 
d="M350 901q-96 0 -160.5 69.5t-64.5 170.5q0 132 78.5 222.5t202.5 90.5q95 0 159 -70t64 -170q0 -130 -81.5 -221.5t-197.5 -91.5zM362 1077q33 0 60 35t27 80q0 35 -16.5 59.5t-43.5 24.5q-34 0 -61 -34t-27 -81q0 -35 17 -59.5t44 -24.5z" />
    <glyph glyph-name="plusminus" unicode="&#xb1;" horiz-adv-x="1067" 
d="M477 496q-14 0 -22.5 10.5t-5.5 25.5l26 211h-268q-13 0 -22 12t-7 27l17 115q2 15 13.5 27t24.5 12h269l43 303q1 15 14 26t27 11h125q14 0 22.5 -11t7.5 -26l-43 -303h269q13 0 21.5 -12t6.5 -27l-16 -115q-1 -15 -13 -27t-26 -12h-268l-27 -211q-3 -15 -15 -25.5
t-26 -10.5h-127zM98 96q-18 0 -27.5 11.5t-7.5 27.5l15 115q1 15 14 27t27 12h733q13 0 22 -12t7 -27l-17 -115q-2 -15 -14 -27t-25 -12h-727z" />
    <glyph glyph-name="twosuperior" unicode="&#xb2;" horiz-adv-x="528" 
d="M152 1032q-8 0 -13 5t-4 14l6 34l230 258q59 68 59 117q0 25 -12.5 41.5t-36.5 16.5q-33 0 -90 -39q-20 -13 -33 10l-37 67q-8 11 -6 21t21 22q84 60 180 60q76 0 128 -45.5t52 -116.5q0 -103 -86 -203l-117 -131h135q8 0 13 -5.5t4 -12.5l-15 -94q0 -7 -6 -13t-12 -6
h-360z" />
    <glyph glyph-name="threesuperior" unicode="&#xb3;" horiz-adv-x="503" 
d="M311 1012q-44 0 -82.5 14.5t-55.5 27.5t-28 25q-17 17 0 37l45 53q20 20 35 5q27 -27 76 -27q39 0 58.5 19.5t19.5 54.5q0 26 -16.5 41.5t-47.5 15.5h-57q-25 0 -20 29l8 63q3 29 35 29h53q30 0 51 21t21 53q0 23 -14.5 37t-39.5 14q-30 0 -67 -33q-8 -6 -15 -5.5
t-14 11.5l-43 64q-6 7 -3.5 18.5t11.5 17.5q7 7 21 17.5t56.5 27.5t86.5 17q84 0 137 -40.5t53 -107.5q0 -60 -35 -102t-81 -63q34 -16 62 -51t28 -87q0 -91 -68.5 -143.5t-169.5 -52.5z" />
    <glyph glyph-name="acute" unicode="&#xb4;" horiz-adv-x="557" 
d="M184 1081q-22 -8 -31.5 -5t-15.5 18l-33 80q-9 25 17 38l336 199q35 23 49 -10l49 -107q8 -19 2.5 -34t-20.5 -21z" />
    <glyph glyph-name="mu" unicode="&#xb5;" horiz-adv-x="1003" 
d="M285 -12l-78 -563q-1 -15 -14 -27t-27 -12h-176q-13 0 -23 12t-8 27l193 1355q1 17 12.5 28t25.5 11h179q14 0 22.5 -11t5.5 -28l-59 -422q-6 -74 18.5 -115.5t73.5 -41.5q44 0 83 29t56 58l17 29l63 463q8 39 45 39h168q14 0 23 -11t6 -28l-103 -741q-1 -15 -13.5 -27
t-26.5 -12h-80q-23 0 -31 31l-14 67q-108 -118 -267 -118q-25 0 -71 8z" />
    <glyph glyph-name="paragraph" unicode="&#xb6;" horiz-adv-x="1308" 
d="M344 -575l162 1150h-80q-140 0 -234 107.5t-94 265.5q0 127 59 240t156.5 179.5t206.5 66.5h846q14 0 24 -12t7 -27l-15 -95q-3 -17 -14 -27.5t-25 -10.5h-126l-259 -1837q-2 -15 -13.5 -27t-26.5 -12h-117q-13 0 -22 12t-7 27l258 1835h-242l-258 -1835
q-2 -15 -13.5 -27t-24.5 -12h-117q-13 0 -23 12t-8 27z" />
    <glyph glyph-name="periodcentered" unicode="&#xb7;" horiz-adv-x="528" 
d="M244 342q-67 0 -112.5 47.5t-45.5 114.5q0 85 64 147t145 62q70 0 117 -48t47 -118q0 -82 -65.5 -143.5t-149.5 -61.5z" />
    <glyph glyph-name="cedilla" unicode="&#xb8;" horiz-adv-x="454" 
d="M150 0h129l-17 -111q67 -9 107.5 -58t40.5 -126q0 -98 -60.5 -167.5t-156.5 -69.5q-45 0 -84 20t-58 51q-9 14 -4.5 30t19.5 28l36 34q20 20 39 -2q20 -24 54 -24q29 0 50 25.5t21 64.5q0 76 -116 86q-18 3 -23.5 14.5t-3.5 22.5z" />
    <glyph glyph-name="onesuperior" unicode="&#xb9;" horiz-adv-x="393" 
d="M238 1032q-7 0 -12 5.5t-5 13.5l55 395l-96 -8q-15 0 -12 18l6 62q2 18 19 28l151 92h107q7 0 11.5 -5t2.5 -13l-80 -569q-4 -19 -20 -19h-127z" />
    <glyph glyph-name="ordmasculine" unicode="&#xba;" horiz-adv-x="587" 
d="M326 807q-92 0 -146.5 69t-54.5 183q0 181 77.5 288t213.5 107q93 0 146.5 -68t53.5 -184q0 -180 -78 -287.5t-212 -107.5zM346 958q42 0 70 69t28 169q0 49 -13.5 78t-35.5 29q-43 0 -70.5 -70t-27.5 -168q0 -49 13.5 -78t35.5 -29z" />
    <glyph glyph-name="guillemotright" unicode="&#xbb;" horiz-adv-x="921" 
d="M410 127l163 305l-65 281q-6 25 4 43t33 18h127q16 0 24 -16l148 -318q13 -26 -6 -49l-234 -303q-20 -25 -43 -25h-131q-24 0 -29 19.5t9 44.5zM45 63q-24 0 -29 19.5t9 44.5l163 305l-65 281q-6 25 4 43t33 18h127q16 0 24 -16l148 -318q13 -26 -6 -49l-234 -303
q-20 -25 -43 -25h-131z" />
    <glyph glyph-name="onequarter" unicode="&#xbc;" horiz-adv-x="1234" 
d="M84 55l825 1358q14 21 35 21h107q20 0 27 -18t-5 -38l-827 -1358q-15 -20 -33 -20h-104q-22 0 -29.5 17.5t4.5 37.5zM219 827q-16 0 -16 19l55 395l-96 -8q-15 0 -12 18l6 62q2 19 18 28l152 93h106q7 0 11.5 -5.5t2.5 -13.5l-79 -569q-4 -19 -21 -19h-127zM588 133
l14 105l342 358q10 10 27 10h80q6 0 10.5 -5.5t3.5 -12.5l-49 -348h71q7 0 12 -5.5t3 -11.5l-12 -88q0 -7 -6.5 -12.5t-12.5 -5.5h-74l-12 -99q-4 -18 -20 -18h-115q-8 0 -12.5 5.5t-3.5 12.5l14 99h-246q-6 0 -10 5t-4 11zM745 238h121l25 147z" />
    <glyph glyph-name="onehalf" unicode="&#xbd;" horiz-adv-x="1222" 
d="M84 55l825 1358q14 21 35 21h107q20 0 27 -18t-5 -38l-827 -1358q-15 -20 -33 -20h-104q-22 0 -29.5 17.5t4.5 37.5zM219 827q-16 0 -16 19l55 395l-96 -8q-15 0 -12 18l6 62q2 19 18 28l152 93h106q7 0 11.5 -5.5t2.5 -13.5l-79 -569q-4 -19 -21 -19h-127zM637 18l6 35
l229 258q60 69 60 117q0 25 -12.5 41t-36.5 16q-33 0 -90 -39q-20 -13 -33 11l-37 67q-8 11 -6 21t20 22q84 60 181 60q76 0 128 -45.5t52 -116.5q0 -103 -86 -203l-117 -131h135q8 0 13 -5.5t4 -12.5l-15 -95q0 -7 -6 -12.5t-12 -5.5h-361q-19 0 -16 18z" />
    <glyph glyph-name="threequarters" unicode="&#xbe;" horiz-adv-x="1337" 
d="M281 807q-44 0 -82.5 14.5t-55.5 27.5t-28 25q-17 17 0 37l45 54q20 19 35 4q27 -27 75 -27q39 0 58.5 19.5t19.5 54.5q0 26 -16 41.5t-47 15.5h-58q-25 0 -20 29l8 63q3 29 35 29h53q30 0 51 21t21 53q0 23 -14 37t-39 14q-31 0 -68 -33q-8 -6 -15 -5.5t-14 11.5l-43 64
q-6 7 -3.5 19t11.5 18q7 7 21 17t56.5 27t86.5 17q84 0 137.5 -40t53.5 -107q0 -60 -35.5 -102.5t-81.5 -63.5q34 -16 62 -50.5t28 -86.5q0 -91 -68 -144t-169 -53zM188 55l826 1358q14 21 35 21h106q20 0 27.5 -18t-4.5 -38l-828 -1358q-15 -20 -33 -20h-104
q-22 0 -29.5 17.5t4.5 37.5zM692 133l15 105l342 358q10 10 26 10h80q6 0 10.5 -5.5t3.5 -12.5l-49 -348h72q7 0 11.5 -5.5t2.5 -11.5l-12 -88q0 -7 -6 -12.5t-12 -5.5h-74l-12 -99q-4 -18 -21 -18h-115q-8 0 -12.5 5.5t-3.5 12.5l14 99h-245q-6 0 -10.5 5t-4.5 11zM850 238
h121l24 147z" />
    <glyph glyph-name="questiondown" unicode="&#xbf;" horiz-adv-x="823" 
d="M434 502q-61 0 -102 44t-41 105q0 75 58.5 132t131.5 57q61 0 102.5 -43.5t41.5 -104.5q0 -76 -58.5 -133t-132.5 -57zM256 152l16 77q7 33 39 33h176q14 0 23 -11t8 -28l-12 -86q-7 -47 -33.5 -91t-61.5 -75.5t-74 -65.5t-71.5 -62t-54 -64.5t-21.5 -73.5
q0 -47 29 -75.5t80 -28.5q15 0 30.5 3.5t28.5 8.5t28.5 14.5t24.5 15.5t23.5 18t19.5 16.5t17.5 17t13.5 12.5q16 13 32.5 11t27.5 -13l94 -104q8 -11 5.5 -26t-13.5 -28l-12 -13q-12 -14 -20 -22t-25.5 -25t-34.5 -28.5t-40.5 -27t-49 -26t-55.5 -20.5t-65.5 -15t-72.5 -5
q-142 0 -241 89t-99 220q0 57 17 107.5t45 87t62.5 68.5t70 58.5t65.5 50.5t52 51.5t28 54.5z" />
    <glyph glyph-name="Agrave" unicode="&#xc0;" horiz-adv-x="1232" 
d="M-43 0q-21 0 -28.5 16.5t3.5 36.5l770 1379q13 22 35 22h19q21 0 28 -22l377 -1379q6 -20 -5.5 -36.5t-33.5 -16.5h-178q-24 0 -36.5 9t-16.5 32l-51 227h-510l-119 -227q-21 -41 -66 -41h-188zM451 489h323l-96 447h-4zM903 1575l-307 158q-29 17 -4 55l59 88
q12 19 31 21.5t25 -5.5l280 -198q8 -5 10.5 -16t-4.5 -23l-41 -68q-19 -28 -49 -12z" />
    <glyph glyph-name="Aacute" unicode="&#xc1;" horiz-adv-x="1232" 
d="M-43 0q-21 0 -28.5 16.5t3.5 36.5l770 1379q13 22 35 22h19q21 0 28 -22l377 -1379q6 -20 -5.5 -36.5t-33.5 -16.5h-178q-24 0 -36.5 9t-16.5 32l-51 227h-510l-119 -227q-21 -41 -66 -41h-188zM451 489h323l-96 447h-4zM641 1573q-35 -15 -47 12l-33 80q-10 26 17 39
l335 199q13 10 28 7.5t22 -18.5l49 -106q8 -19 2 -33.5t-21 -21.5z" />
    <glyph glyph-name="Acircumflex" unicode="&#xc2;" horiz-adv-x="1232" 
d="M-43 0q-21 0 -28.5 16.5t3.5 36.5l770 1379q13 22 35 22h19q21 0 28 -22l377 -1379q6 -20 -5.5 -36.5t-33.5 -16.5h-178q-24 0 -36.5 9t-16.5 32l-51 227h-510l-119 -227q-21 -41 -66 -41h-188zM451 489h323l-96 447h-4zM578 1567q-26 -16 -41 6l-45 67q-19 27 10 48
l274 206q23 17 43 0l217 -206q8 -7 10.5 -17.5t-4.5 -21.5l-59 -76q-19 -25 -41 -6l-160 127z" />
    <glyph glyph-name="Atilde" unicode="&#xc3;" horiz-adv-x="1232" 
d="M-43 0q-21 0 -28.5 16.5t3.5 36.5l770 1379q13 22 35 22h19q21 0 28 -22l377 -1379q6 -20 -5.5 -36.5t-33.5 -16.5h-178q-24 0 -36.5 9t-16.5 32l-51 227h-510l-119 -227q-21 -41 -66 -41h-188zM451 489h323l-96 447h-4zM555 1616l-55 43q-20 20 -4 47q11 23 25.5 45.5
t41.5 54.5t64 52t78 20q31 0 59.5 -17.5t46.5 -39t41 -39t45 -17.5q35 0 66 64q9 19 26 25t35 -5l47 -37q27 -19 4 -67q-9 -19 -23.5 -41.5t-39.5 -50.5t-60 -46t-73 -18q-32 0 -63.5 18t-51.5 39.5t-42.5 39.5t-39.5 18q-18 0 -35 -16t-23.5 -27.5t-19.5 -36.5
q-6 -12 -21.5 -15t-27.5 7z" />
    <glyph glyph-name="Adieresis" unicode="&#xc4;" horiz-adv-x="1232" 
d="M-43 0q-21 0 -28.5 16.5t3.5 36.5l770 1379q13 22 35 22h19q21 0 28 -22l377 -1379q6 -20 -5.5 -36.5t-33.5 -16.5h-178q-24 0 -36.5 9t-16.5 32l-51 227h-510l-119 -227q-21 -41 -66 -41h-188zM451 489h323l-96 447h-4zM995 1587q-49 0 -77.5 38.5t-20.5 92.5
q6 54 44.5 91.5t88.5 37.5q47 0 76.5 -37.5t23.5 -91.5q-7 -54 -47.5 -92.5t-87.5 -38.5zM539 1587q-47 0 -75.5 38.5t-21.5 92.5q6 54 44.5 91.5t86.5 37.5q49 0 79 -37.5t24 -91.5q-8 -54 -48 -92.5t-89 -38.5z" />
    <glyph glyph-name="Aring" unicode="&#xc5;" horiz-adv-x="1232" 
d="M-43 0q-21 0 -28.5 16.5t3.5 36.5l770 1379q13 22 35 22h19q21 0 28 -22l377 -1379q6 -20 -5.5 -36.5t-33.5 -16.5h-178q-24 0 -36.5 9t-16.5 32l-51 227h-510l-119 -227q-21 -41 -66 -41h-188zM451 489h323l-96 447h-4zM764 1544q-79 0 -130.5 58.5t-51.5 142.5
q0 109 71 185.5t174 76.5q77 0 129 -58.5t52 -142.5q0 -108 -72 -185t-172 -77zM780 1673q37 0 68 35.5t31 79.5q0 36 -20 61t-50 25q-37 0 -67.5 -33.5t-30.5 -77.5q0 -36 20 -63t49 -27z" />
    <glyph glyph-name="AE" unicode="&#xc6;" horiz-adv-x="1681" 
d="M-72 0q-21 0 -24.5 16.5t10.5 36.5l924 1317q2 3 10.5 14t10.5 13.5t8.5 10.5t9.5 9.5t9.5 6.5t12 6t13 2.5t16.5 1.5h735q13 0 22 -12t7 -27l-25 -168q-2 -15 -13 -27t-26 -12h-528l-47 -336h436q13 0 23 -12t8 -27l-25 -170q-3 -17 -15 -28t-26 -11h-436l-51 -358h528
q14 0 22.5 -11.5t6.5 -27.5l-23 -168q-2 -15 -14 -27t-27 -12h-758q-15 0 -23.5 11.5t-6.5 27.5l33 223h-359l-151 -231q-22 -31 -56 -31h-211zM510 489h225l64 455z" />
    <glyph glyph-name="Ccedilla" unicode="&#xc7;" horiz-adv-x="1286" 
d="M569 -8q-211 41 -337 214t-126 410q0 177 60 333.5t162.5 266.5t243.5 174t298 64q132 0 241 -52.5t185 -141.5q9 -12 7 -29t-15 -29l-110 -106q-18 -15 -36 -14.5t-32 14.5q-106 102 -254 102q-121 0 -227 -75t-169 -201.5t-63 -270.5q0 -169 85.5 -286t228.5 -117
q141 0 280 121q38 33 66 -2l106 -134q7 -11 4 -27.5t-14 -27.5q-204 -195 -457 -198l-12 -91q67 -9 107 -58t40 -126q0 -98 -60.5 -167.5t-156.5 -69.5q-45 0 -83.5 20t-57.5 51q-9 14 -5 30t19 28l37 34q20 20 39 -2q20 -24 53 -24q29 0 50.5 25.5t21.5 64.5q0 76 -117 86
q-32 5 -26 37z" />
    <glyph glyph-name="Egrave" unicode="&#xc8;" horiz-adv-x="1116" 
d="M109 39l190 1356q1 15 13 27t26 12h758q15 0 23.5 -11.5t6.5 -27.5l-24 -168q-2 -15 -14 -27t-27 -12h-524l-48 -336h435q13 0 22.5 -12t7.5 -27l-24 -170q-3 -17 -15 -28t-26 -11h-434l-52 -358h527q14 0 22 -11.5t6 -27.5l-22 -168q-2 -15 -14 -27t-27 -12h-758
q-15 0 -23 12t-5 27zM874 1575l-307 158q-29 17 -4 55l60 88q12 19 30.5 21.5t24.5 -5.5l280 -198q8 -5 11 -16t-4 -23l-41 -68q-19 -28 -50 -12z" />
    <glyph glyph-name="Eacute" unicode="&#xc9;" horiz-adv-x="1116" 
d="M109 39l190 1356q1 15 13 27t26 12h758q15 0 23.5 -11.5t6.5 -27.5l-24 -168q-2 -15 -14 -27t-27 -12h-524l-48 -336h435q13 0 22.5 -12t7.5 -27l-24 -170q-3 -17 -15 -28t-26 -11h-434l-52 -358h527q14 0 22 -11.5t6 -27.5l-22 -168q-2 -15 -14 -27t-27 -12h-758
q-15 0 -23 12t-5 27zM614 1573q-35 -15 -47 12l-32 80q-10 26 16 39l336 199q34 23 49 -11l49 -106q8 -19 2.5 -34t-20.5 -21z" />
    <glyph glyph-name="Ecircumflex" unicode="&#xca;" horiz-adv-x="1116" 
d="M109 39l190 1356q1 15 13 27t26 12h758q15 0 23.5 -11.5t6.5 -27.5l-24 -168q-2 -15 -14 -27t-27 -12h-524l-48 -336h435q13 0 22.5 -12t7.5 -27l-24 -170q-3 -17 -15 -28t-26 -11h-434l-52 -358h527q14 0 22 -11.5t6 -27.5l-22 -168q-2 -15 -14 -27t-27 -12h-758
q-15 0 -23 12t-5 27zM553 1567q-26 -16 -41 6l-45 67q-19 27 10 48l275 206q23 17 43 0l217 -206q8 -7 10.5 -17.5t-4.5 -21.5l-60 -76q-19 -25 -40 -6l-160 127z" />
    <glyph glyph-name="Edieresis" unicode="&#xcb;" horiz-adv-x="1116" 
d="M109 39l190 1356q1 15 13 27t26 12h758q15 0 23.5 -11.5t6.5 -27.5l-24 -168q-2 -15 -14 -27t-27 -12h-524l-48 -336h435q13 0 22.5 -12t7.5 -27l-24 -170q-3 -17 -15 -28t-26 -11h-434l-52 -358h527q14 0 22 -11.5t6 -27.5l-22 -168q-2 -15 -14 -27t-27 -12h-758
q-15 0 -23 12t-5 27zM969 1587q-49 0 -78 38.5t-21 92.5q6 54 45 91.5t89 37.5q47 0 76.5 -37.5t23.5 -91.5q-7 -54 -47.5 -92.5t-87.5 -38.5zM512 1587q-47 0 -75.5 38.5t-20.5 92.5q6 54 44.5 91.5t86.5 37.5q49 0 78.5 -37.5t23.5 -91.5q-8 -54 -48 -92.5t-89 -38.5z" />
    <glyph glyph-name="Igrave" unicode="&#xcc;" horiz-adv-x="634" 
d="M109 39l190 1356q1 15 13 27t26 12h201q14 0 22.5 -12t5.5 -27l-190 -1356q-1 -15 -13 -27t-26 -12h-201q-14 0 -22.5 12t-5.5 27zM594 1575l-307 158q-29 17 -4 55l59 88q12 19 30.5 21.5t24.5 -5.5l281 -198q8 -5 10.5 -16t-4.5 -23l-41 -68q-19 -28 -49 -12z" />
    <glyph glyph-name="Iacute" unicode="&#xcd;" horiz-adv-x="634" 
d="M109 39l190 1356q1 15 13 27t26 12h201q14 0 22.5 -12t5.5 -27l-190 -1356q-1 -15 -13 -27t-26 -12h-201q-14 0 -22.5 12t-5.5 27zM332 1573q-35 -15 -47 12l-33 80q-10 26 16 39l336 199q34 23 49 -11l49 -106q8 -19 2.5 -34t-20.5 -21z" />
    <glyph glyph-name="Icircumflex" unicode="&#xce;" horiz-adv-x="634" 
d="M109 39l190 1356q1 15 13 27t26 12h201q14 0 22.5 -12t5.5 -27l-190 -1356q-1 -15 -13 -27t-26 -12h-201q-14 0 -22.5 12t-5.5 27zM270 1567q-26 -16 -41 6l-45 67q-19 27 11 48l274 206q23 17 43 0l217 -206q8 -7 10.5 -17.5t-4.5 -21.5l-59 -76q-19 -25 -41 -6
l-160 127z" />
    <glyph glyph-name="Idieresis" unicode="&#xcf;" horiz-adv-x="634" 
d="M109 39l190 1356q1 15 13 27t26 12h201q14 0 22.5 -12t5.5 -27l-190 -1356q-1 -15 -13 -27t-26 -12h-201q-14 0 -22.5 12t-5.5 27zM686 1587q-49 0 -77.5 38.5t-20.5 92.5q6 54 44.5 91.5t88.5 37.5q47 0 76.5 -37.5t23.5 -91.5q-7 -54 -47.5 -92.5t-87.5 -38.5z
M229 1587q-47 0 -75.5 38.5t-20.5 92.5q6 54 44.5 91.5t86.5 37.5q49 0 79 -37.5t24 -91.5q-8 -54 -48.5 -92.5t-89.5 -38.5z" />
    <glyph glyph-name="Eth" unicode="&#xd0;" horiz-adv-x="1409" 
d="M119 39l86 618h-53q-13 0 -22 12t-7 27l2 27q1 15 14 27t27 12h53l90 633q1 15 13 27t26 12h443q157 0 286 -88t199 -230t70 -305q0 -164 -59.5 -313.5t-160 -259t-241 -174t-295.5 -64.5h-445q-13 0 -21 12t-5 27zM414 250h190q124 0 228.5 71t166.5 196.5t62 275.5
q0 170 -89.5 281.5t-234.5 111.5h-192l-60 -424h281q14 0 22.5 -11.5t6.5 -27.5l-4 -29q-2 -15 -13 -26t-26 -11h-281z" />
    <glyph glyph-name="Ntilde" unicode="&#xd1;" horiz-adv-x="1464" 
d="M109 35l192 1382q1 15 13 26t26 11h53l625 -885h2l110 826q2 15 13 27t26 12h199q13 0 23 -12t8 -27l-195 -1379q-1 -15 -13 -25.5t-26 -10.5h-55l-623 911h-2l-110 -852q-2 -15 -14 -27t-27 -12h-197q-12 0 -20.5 11t-7.5 24zM649 1616l-55 43q-20 20 -4 47
q11 23 25.5 45.5t41.5 54.5t64 52t78 20q31 0 59.5 -17.5t46.5 -39t41 -39t45 -17.5q35 0 66 64q9 19 26 25t35 -5l47 -37q27 -19 4 -67q-9 -19 -23.5 -41.5t-39.5 -50.5t-60 -46t-73 -18q-32 0 -63.5 18t-51.5 39.5t-42.5 39.5t-39.5 18q-18 0 -35 -16t-23.5 -27.5
t-19.5 -36.5q-6 -12 -21.5 -15t-27.5 7z" />
    <glyph glyph-name="Ograve" unicode="&#xd2;" horiz-adv-x="1505" 
d="M102 614q0 171 59 326t160 268t244 179.5t303 66.5q162 0 295 -87.5t207 -234t74 -319.5q0 -170 -59.5 -324t-161 -265.5t-244 -177.5t-301.5 -66q-163 0 -296 87.5t-206.5 232.5t-73.5 314zM707 246q88 0 172 42.5t147.5 114t102 171t38.5 206.5q0 169 -93 288.5
t-236 119.5q-87 0 -171 -43.5t-147 -116t-102 -173t-39 -206.5q0 -169 93 -286t235 -117zM1012 1575l-307 158q-12 7 -14.5 20.5t9.5 34.5l60 88q12 19 30.5 21.5t24.5 -5.5l281 -198q8 -5 10.5 -16t-4.5 -23l-41 -68q-19 -28 -49 -12z" />
    <glyph glyph-name="Oacute" unicode="&#xd3;" horiz-adv-x="1505" 
d="M102 614q0 171 59 326t160 268t244 179.5t303 66.5q162 0 295 -87.5t207 -234t74 -319.5q0 -170 -59.5 -324t-161 -265.5t-244 -177.5t-301.5 -66q-163 0 -296 87.5t-206.5 232.5t-73.5 314zM707 246q88 0 172 42.5t147.5 114t102 171t38.5 206.5q0 169 -93 288.5
t-236 119.5q-87 0 -171 -43.5t-147 -116t-102 -173t-39 -206.5q0 -169 93 -286t235 -117zM750 1573q-36 -15 -48 12l-32 80q-10 26 16 39l336 199q34 23 49 -11l49 -106q8 -19 2.5 -34t-20.5 -21z" />
    <glyph glyph-name="Ocircumflex" unicode="&#xd4;" horiz-adv-x="1505" 
d="M102 614q0 171 59 326t160 268t244 179.5t303 66.5q162 0 295 -87.5t207 -234t74 -319.5q0 -170 -59.5 -324t-161 -265.5t-244 -177.5t-301.5 -66q-163 0 -296 87.5t-206.5 232.5t-73.5 314zM707 246q88 0 172 42.5t147.5 114t102 171t38.5 206.5q0 169 -93 288.5
t-236 119.5q-87 0 -171 -43.5t-147 -116t-102 -173t-39 -206.5q0 -169 93 -286t235 -117zM686 1567q-26 -16 -41 6l-45 67q-19 27 10 48l275 206q23 17 43 0l217 -206q8 -7 10.5 -17.5t-4.5 -21.5l-59 -76q-19 -25 -41 -6l-160 127z" />
    <glyph glyph-name="Otilde" unicode="&#xd5;" horiz-adv-x="1505" 
d="M102 614q0 171 59 326t160 268t244 179.5t303 66.5q162 0 295 -87.5t207 -234t74 -319.5q0 -170 -59.5 -324t-161 -265.5t-244 -177.5t-301.5 -66q-163 0 -296 87.5t-206.5 232.5t-73.5 314zM707 246q88 0 172 42.5t147.5 114t102 171t38.5 206.5q0 169 -93 288.5
t-236 119.5q-87 0 -171 -43.5t-147 -116t-102 -173t-39 -206.5q0 -169 93 -286t235 -117zM664 1616l-56 43q-20 20 -4 47q11 23 25.5 45.5t41.5 54.5t64 52t78 20q25 0 48.5 -11.5t40.5 -28t33.5 -33.5t34.5 -28.5t36 -11.5q22 0 36.5 17t28.5 47q9 19 27 25.5t35 -5.5
l47 -37q27 -19 4 -67q-9 -19 -24 -41.5t-39.5 -50.5t-60 -46t-73.5 -18q-32 0 -63.5 18t-51 39.5t-42 39.5t-39.5 18q-18 0 -35 -16t-23.5 -27.5t-19.5 -36.5q-6 -12 -21.5 -15t-27.5 7z" />
    <glyph glyph-name="Odieresis" unicode="&#xd6;" horiz-adv-x="1505" 
d="M102 614q0 171 59 326t160 268t244 179.5t303 66.5q162 0 295 -87.5t207 -234t74 -319.5q0 -170 -59.5 -324t-161 -265.5t-244 -177.5t-301.5 -66q-163 0 -296 87.5t-206.5 232.5t-73.5 314zM707 246q88 0 172 42.5t147.5 114t102 171t38.5 206.5q0 169 -93 288.5
t-236 119.5q-87 0 -171 -43.5t-147 -116t-102 -173t-39 -206.5q0 -169 93 -286t235 -117zM1106 1587q-49 0 -77.5 38.5t-20.5 92.5q6 54 44.5 91.5t88.5 37.5q47 0 76.5 -37.5t23.5 -91.5q-7 -54 -47.5 -92.5t-87.5 -38.5zM649 1587q-47 0 -75.5 38.5t-20.5 92.5
q6 54 44.5 91.5t86.5 37.5q49 0 78.5 -37.5t23.5 -91.5q-8 -54 -48 -92.5t-89 -38.5z" />
    <glyph glyph-name="multiply" unicode="&#xd7;" horiz-adv-x="894" 
d="M178 356l-76 86q-9 11 -6.5 27t13.5 27l227 221l-160 215q-8 10 -6 28t14 27l86 74q12 9 26.5 9.5t22.5 -9.5l160 -215l228 223q12 10 26 9.5t23 -11.5l75 -86q9 -9 7.5 -26t-13.5 -27l-227 -223l160 -216q9 -12 6.5 -29t-14.5 -26l-88 -72q-13 -10 -26.5 -11t-21.5 9
l-161 218l-228 -222q-11 -10 -24.5 -9.5t-22.5 9.5z" />
    <glyph glyph-name="Oslash" unicode="&#xd8;" horiz-adv-x="1505" 
d="M53 47q-9 9 -8 24.5t14 28.5l150 144q-107 164 -107 370q0 171 59 326t160 268t244 179.5t303 66.5q120 0 227 -50t185 -138l152 145q11 10 24.5 9.5t22.5 -9.5l18 -20q9 -11 6.5 -26.5t-14.5 -27.5l-154 -147q109 -170 109 -377q0 -170 -59.5 -324t-161 -265.5
t-244 -177.5t-301.5 -66q-122 0 -228 49t-184 137l-147 -141q-11 -10 -24 -9t-23 11zM420 446l653 623q-94 119 -235 119q-87 0 -171 -43.5t-147 -116t-102 -173t-39 -206.5q0 -113 41 -203zM471 362q92 -116 236 -116q88 0 172 42.5t147.5 114t102 171t38.5 206.5
q0 110 -43 207z" />
    <glyph glyph-name="Ugrave" unicode="&#xd9;" horiz-adv-x="1370" 
d="M162 543l121 852q1 15 14 27t27 12h202q15 0 24 -12t7 -27l-119 -838q-19 -131 37.5 -219t163.5 -88q108 0 190 87.5t101 217.5l119 840q2 15 14 27t27 12h202q13 0 23 -12t8 -27l-121 -852q-22 -156 -102 -283.5t-210.5 -203.5t-287.5 -76q-140 0 -249 75.5t-160.5 205
t-30.5 282.5zM956 1575l-307 158q-29 17 -4 55l60 88q12 19 30.5 21.5t24.5 -5.5l280 -198q8 -5 11 -16t-4 -23l-41 -68q-19 -28 -50 -12z" />
    <glyph glyph-name="Uacute" unicode="&#xda;" horiz-adv-x="1370" 
d="M162 543l121 852q1 15 14 27t27 12h202q15 0 24 -12t7 -27l-119 -838q-19 -131 37.5 -219t163.5 -88q108 0 190 87.5t101 217.5l119 840q2 15 14 27t27 12h202q13 0 23 -12t8 -27l-121 -852q-22 -156 -102 -283.5t-210.5 -203.5t-287.5 -76q-140 0 -249 75.5t-160.5 205
t-30.5 282.5zM696 1573q-35 -15 -47 12l-33 80q-10 26 17 39l336 199q34 23 49 -11l49 -106q8 -19 2.5 -34t-20.5 -21z" />
    <glyph glyph-name="Ucircumflex" unicode="&#xdb;" horiz-adv-x="1370" 
d="M162 543l121 852q1 15 14 27t27 12h202q15 0 24 -12t7 -27l-119 -838q-19 -131 37.5 -219t163.5 -88q108 0 190 87.5t101 217.5l119 840q2 15 14 27t27 12h202q13 0 23 -12t8 -27l-121 -852q-22 -156 -102 -283.5t-210.5 -203.5t-287.5 -76q-140 0 -249 75.5t-160.5 205
t-30.5 282.5zM635 1567q-26 -16 -41 6l-45 67q-19 27 10 48l275 206q23 17 43 0l217 -206q8 -7 10.5 -17.5t-4.5 -21.5l-60 -76q-19 -25 -41 -6l-159 127z" />
    <glyph glyph-name="Udieresis" unicode="&#xdc;" horiz-adv-x="1370" 
d="M162 543l121 852q1 15 14 27t27 12h202q15 0 24 -12t7 -27l-119 -838q-19 -131 37.5 -219t163.5 -88q108 0 190 87.5t101 217.5l119 840q2 15 14 27t27 12h202q13 0 23 -12t8 -27l-121 -852q-22 -156 -102 -283.5t-210.5 -203.5t-287.5 -76q-140 0 -249 75.5t-160.5 205
t-30.5 282.5zM1051 1587q-49 0 -78 38.5t-21 92.5q6 54 44.5 91.5t88.5 37.5q47 0 77 -37.5t24 -91.5q-7 -54 -47.5 -92.5t-87.5 -38.5zM594 1587q-47 0 -75.5 38.5t-20.5 92.5q6 54 44.5 91.5t86.5 37.5q49 0 78.5 -37.5t23.5 -91.5q-8 -54 -48 -92.5t-89 -38.5z" />
    <glyph glyph-name="Yacute" unicode="&#xdd;" horiz-adv-x="1089" 
d="M330 39l92 651l-320 694q-9 20 2 35t33 15h193q16 0 24.5 -6.5t14.5 -22.5l215 -471l344 481q14 19 33 19h225q23 0 27.5 -17t-9.5 -37l-516 -688l-90 -653q-1 -15 -14 -27t-27 -12h-199q-14 0 -22 11.5t-6 27.5zM543 1573q-35 -15 -47 12l-33 80q-10 26 16 39l336 199
q34 23 49 -11l49 -106q8 -19 2.5 -34t-20.5 -21z" />
    <glyph glyph-name="Thorn" unicode="&#xde;" horiz-adv-x="1118" 
d="M109 39l190 1356q2 15 14 27t27 12h197q13 0 21.5 -12t6.5 -27l-30 -221h206q152 1 253.5 -116.5t101.5 -279.5q0 -139 -65 -258.5t-176 -189.5t-241 -70h-208l-31 -221q-1 -15 -14 -27t-27 -12h-197q-15 0 -23 12t-5 27zM440 510h193q76 0 136 72t60 170q0 73 -39 121.5
t-100 48.5h-190z" />
    <glyph glyph-name="germandbls" unicode="&#xdf;" horiz-adv-x="993" 
d="M455 20l2 142q0 39 49 39q53 0 87 30t34 91q0 38 -20 84t-43.5 82.5t-43.5 82.5t-20 84q0 54 30.5 125t66.5 128t66.5 123t30.5 112q0 42 -19.5 66t-56.5 24q-150 0 -206 -393l-197 -1415q-1 -15 -14 -27t-27 -12h-184q-29 0 -29 39l197 1419q85 610 512 610
q109 0 198.5 -74.5t89.5 -189.5q0 -70 -20 -136t-48.5 -114.5t-57 -91t-48.5 -82t-20 -70.5q0 -26 20.5 -69.5t45 -85t45 -102.5t20.5 -117q0 -86 -32.5 -154t-86.5 -107.5t-117 -60t-129 -20.5q-17 0 -25 0.5t-22.5 4t-21 12.5t-6.5 23z" />
    <glyph glyph-name="agrave" unicode="&#xe0;" horiz-adv-x="970" 
d="M657 1087l-307 158q-29 17 -4 55l60 89q12 19 30.5 21.5t24.5 -5.5l280 -199q8 -5 11 -16t-4 -23l-41 -67q-19 -29 -50 -13zM569 334l25 170q-6 37 -41 75.5t-92 38.5q-75 0 -134 -71.5t-59 -186.5q0 -68 37 -113.5t98 -45.5q57 0 104.5 46t61.5 87zM872 780l-102 -741
q-1 -15 -14 -27t-27 -12h-80q-26 0 -33 35l-12 61q-22 -20 -36.5 -32t-50.5 -35.5t-81 -36t-96 -12.5q-128 0 -214.5 109t-86.5 267q0 200 122 342t300 142q78 0 138.5 -36.5t90.5 -76.5l37 66q15 26 37 26h80q14 0 22.5 -11t5.5 -28z" />
    <glyph glyph-name="aacute" unicode="&#xe1;" horiz-adv-x="970" 
d="M393 1081q-22 -8 -31.5 -5t-15.5 18l-33 80q-9 25 17 38l336 199q35 23 49 -10l49 -107q8 -19 2 -33.5t-21 -21.5zM569 334l25 170q-6 37 -41 75.5t-92 38.5q-75 0 -134 -71.5t-59 -186.5q0 -68 37 -113.5t98 -45.5q57 0 104.5 46t61.5 87zM872 780l-102 -741
q-1 -15 -14 -27t-27 -12h-80q-26 0 -33 35l-12 61q-22 -20 -36.5 -32t-50.5 -35.5t-81 -36t-96 -12.5q-128 0 -214.5 109t-86.5 267q0 200 122 342t300 142q78 0 138.5 -36.5t90.5 -76.5l37 66q15 26 37 26h80q14 0 22.5 -11t5.5 -28z" />
    <glyph glyph-name="acircumflex" unicode="&#xe2;" horiz-adv-x="970" 
d="M289 1083l-45 68q-19 27 10 47l274 207q23 17 43 0l217 -207q22 -18 7 -39l-60 -76q-19 -25 -41 -6l-159 127l-205 -127q-26 -16 -41 6zM569 334l25 170q-6 37 -41 75.5t-92 38.5q-75 0 -134 -71.5t-59 -186.5q0 -68 37 -113.5t98 -45.5q57 0 104.5 46t61.5 87zM872 780
l-102 -741q-1 -15 -14 -27t-27 -12h-80q-26 0 -33 35l-12 61q-22 -20 -36.5 -32t-50.5 -35.5t-81 -36t-96 -12.5q-128 0 -214.5 109t-86.5 267q0 200 122 342t300 142q78 0 138.5 -36.5t90.5 -76.5l37 66q15 26 37 26h80q14 0 22.5 -11t5.5 -28z" />
    <glyph glyph-name="atilde" unicode="&#xe3;" horiz-adv-x="970" 
d="M311 1151l-55 43q-20 20 -4 47q11 23 25.5 45.5t41.5 54.5t64 52t78 20q31 0 59.5 -17.5t46.5 -39t41 -39t45 -17.5q35 0 66 64q9 19 26 25t35 -5l47 -36q28 -19 4 -68q-9 -19 -23.5 -41.5t-39.5 -50.5t-60 -46t-73 -18q-32 0 -63.5 18t-51.5 39.5t-42.5 39.5t-39.5 18
q-18 0 -35 -16t-23.5 -27.5t-19.5 -36.5q-6 -12 -21.5 -15t-27.5 7zM569 334l25 170q-6 37 -41 75.5t-92 38.5q-75 0 -134 -71.5t-59 -186.5q0 -68 37 -113.5t98 -45.5q57 0 104.5 46t61.5 87zM872 780l-102 -741q-1 -15 -14 -27t-27 -12h-80q-26 0 -33 35l-12 61
q-22 -20 -36.5 -32t-50.5 -35.5t-81 -36t-96 -12.5q-128 0 -214.5 109t-86.5 267q0 200 122 342t300 142q78 0 138.5 -36.5t90.5 -76.5l37 66q15 26 37 26h80q14 0 22.5 -11t5.5 -28z" />
    <glyph glyph-name="adieresis" unicode="&#xe4;" horiz-adv-x="970" 
d="M709 1128q-49 0 -78 39t-21 93q6 54 44.5 91.5t88.5 37.5q48 0 78.5 -37.5t24.5 -91.5q-7 -54 -48 -93t-89 -39zM338 1128q-47 0 -76 39t-22 93q6 53 45.5 91t87.5 38q49 0 78.5 -37.5t23.5 -91.5q-8 -54 -48 -93t-89 -39zM569 334l25 170q-6 37 -41 75.5t-92 38.5
q-75 0 -134 -71.5t-59 -186.5q0 -68 37 -113.5t98 -45.5q57 0 104.5 46t61.5 87zM872 780l-102 -741q-1 -15 -14 -27t-27 -12h-80q-26 0 -33 35l-12 61q-22 -20 -36.5 -32t-50.5 -35.5t-81 -36t-96 -12.5q-128 0 -214.5 109t-86.5 267q0 200 122 342t300 142
q78 0 138.5 -36.5t90.5 -76.5l37 66q15 26 37 26h80q14 0 22.5 -11t5.5 -28z" />
    <glyph glyph-name="aring" unicode="&#xe5;" horiz-adv-x="970" 
d="M506 991q-79 0 -130.5 58.5t-51.5 142.5q0 109 71 185.5t174 76.5q77 0 129 -58.5t52 -142.5q0 -108 -72 -185t-172 -77zM522 1120q37 0 68 35.5t31 79.5q0 36 -20 61t-50 25q-37 0 -67.5 -33.5t-30.5 -77.5q0 -36 20 -63t49 -27zM569 334l25 170q-6 37 -41 75.5
t-92 38.5q-75 0 -134 -71.5t-59 -186.5q0 -68 37 -113.5t98 -45.5q57 0 104.5 46t61.5 87zM872 780l-102 -741q-1 -15 -14 -27t-27 -12h-80q-26 0 -33 35l-12 61q-22 -20 -36.5 -32t-50.5 -35.5t-81 -36t-96 -12.5q-128 0 -214.5 109t-86.5 267q0 200 122 342t300 142
q78 0 138.5 -36.5t90.5 -76.5l37 66q15 26 37 26h80q14 0 22.5 -11t5.5 -28z" />
    <glyph glyph-name="ae" unicode="&#xe6;" horiz-adv-x="1226" 
d="M4 215q0 133 91.5 218t240.5 85q31 0 63.5 -4t48.5 -8l17 -4q8 82 -8 115.5t-72 33.5q-68 0 -197 -33q-14 -2 -25 8t-11 25l-5 111q0 14 11.5 26t25.5 15q146 37 252 37q142 0 209 -101q40 46 118 73.5t157 27.5q120 0 191 -61t71 -156q0 -74 -50 -131t-130 -88
t-164.5 -46t-169.5 -16q-5 -67 28.5 -108t106.5 -41q35 0 76 14.5t69 34.5q33 22 47 0l68 -97q8 -10 7 -25.5t-13 -27.5q-122 -112 -293 -112q-156 0 -248 133h-2q-92 -133 -278 -133q-102 0 -167 64.5t-65 170.5zM702 502q55 1 109.5 10.5t98.5 32t44 53.5q0 23 -17.5 37
t-51.5 14q-59 0 -112 -45.5t-71 -101.5zM217 248q0 -40 27.5 -66t64.5 -26q40 0 67.5 18.5t41.5 52t19.5 63.5t8.5 70q-60 15 -102 15q-47 0 -87 -36t-40 -91z" />
    <glyph glyph-name="ccedilla" unicode="&#xe7;" horiz-adv-x="811" 
d="M279 -2q-108 34 -174 132t-66 230q0 207 128 343.5t308 136.5q90 0 164.5 -41.5t114.5 -104.5q18 -26 -17 -57l-82 -76q-15 -11 -28.5 -9t-22.5 11q-1 1 -8.5 8t-11 9.5t-11.5 8.5t-13.5 9t-15.5 7.5t-18.5 7t-20.5 4t-24 1.5q-77 0 -137.5 -69.5t-60.5 -171.5
q0 -75 36.5 -125.5t94.5 -50.5q73 0 145 78q10 12 23.5 13t27.5 -11l80 -78q27 -27 6 -58q-122 -157 -293 -165l-12 -91q67 -9 107.5 -58t40.5 -126q0 -98 -60.5 -167.5t-156.5 -69.5q-45 0 -84 20t-58 51q-9 14 -4.5 30t19.5 28l36 34q20 20 39 -2q20 -24 54 -24
q29 0 50 25.5t21 64.5q0 76 -116 86q-18 3 -23.5 14.5t-3.5 22.5z" />
    <glyph glyph-name="egrave" unicode="&#xe8;" horiz-adv-x="823" 
d="M35 344q0 129 59.5 241.5t171 183.5t250.5 71q120 0 191 -61t71 -156q0 -74 -50 -131t-130 -88t-164.5 -46t-169.5 -16q-5 -67 28.5 -108t106.5 -41q35 0 76.5 14.5t69.5 34.5q33 22 47 0l67 -97q8 -10 7 -25.5t-13 -27.5q-122 -112 -293 -112q-144 0 -234.5 106
t-90.5 258zM295 502q55 1 109.5 10.5t98.5 32t44 53.5q0 23 -18 37t-52 14q-58 0 -111 -45.5t-71 -101.5zM678 1087l-307 158q-29 17 -4 55l59 89q12 19 30.5 21.5t24.5 -5.5l281 -199q8 -5 10.5 -16t-4.5 -23l-41 -67q-19 -29 -49 -13z" />
    <glyph glyph-name="eacute" unicode="&#xe9;" horiz-adv-x="823" 
d="M35 344q0 129 59.5 241.5t171 183.5t250.5 71q120 0 191 -61t71 -156q0 -74 -50 -131t-130 -88t-164.5 -46t-169.5 -16q-5 -67 28.5 -108t106.5 -41q35 0 76.5 14.5t69.5 34.5q33 22 47 0l67 -97q8 -10 7 -25.5t-13 -27.5q-122 -112 -293 -112q-144 0 -234.5 106
t-90.5 258zM295 502q55 1 109.5 10.5t98.5 32t44 53.5q0 23 -18 37t-52 14q-58 0 -111 -45.5t-71 -101.5zM414 1081q-22 -8 -31.5 -5t-15.5 18l-33 80q-9 25 16 38l336 199q35 23 49 -10l49 -107q8 -19 2.5 -34t-20.5 -21z" />
    <glyph glyph-name="ecircumflex" unicode="&#xea;" horiz-adv-x="823" 
d="M35 344q0 129 59.5 241.5t171 183.5t250.5 71q120 0 191 -61t71 -156q0 -74 -50 -131t-130 -88t-164.5 -46t-169.5 -16q-5 -67 28.5 -108t106.5 -41q35 0 76.5 14.5t69.5 34.5q33 22 47 0l67 -97q8 -10 7 -25.5t-13 -27.5q-122 -112 -293 -112q-144 0 -234.5 106
t-90.5 258zM295 502q55 1 109.5 10.5t98.5 32t44 53.5q0 23 -18 37t-52 14q-58 0 -111 -45.5t-71 -101.5zM309 1083l-45 68q-19 27 10 47l275 207q23 17 43 0l217 -207q8 -7 10.5 -17.5t-4.5 -21.5l-59 -76q-19 -25 -41 -6l-160 127l-205 -127q-26 -16 -41 6z" />
    <glyph glyph-name="edieresis" unicode="&#xeb;" horiz-adv-x="823" 
d="M35 344q0 129 59.5 241.5t171 183.5t250.5 71q120 0 191 -61t71 -156q0 -74 -50 -131t-130 -88t-164.5 -46t-169.5 -16q-5 -67 28.5 -108t106.5 -41q35 0 76.5 14.5t69.5 34.5q33 22 47 0l67 -97q8 -10 7 -25.5t-13 -27.5q-122 -112 -293 -112q-144 0 -234.5 106
t-90.5 258zM295 502q55 1 109.5 10.5t98.5 32t44 53.5q0 23 -18 37t-52 14q-58 0 -111 -45.5t-71 -101.5zM729 1128q-49 0 -77.5 38.5t-20.5 93.5q6 54 44.5 91.5t88.5 37.5q48 0 78 -37.5t24 -91.5q-7 -54 -48 -93t-89 -39zM358 1128q-47 0 -76 39t-22 93q6 53 45.5 91
t87.5 38q49 0 79 -37.5t24 -91.5q-8 -54 -48.5 -93t-89.5 -39z" />
    <glyph glyph-name="igrave" unicode="&#xec;" 
d="M453 1087l-308 158q-29 17 -4 55l60 89q12 19 30.5 21.5t24.5 -5.5l281 -199q8 -5 10.5 -16t-4.5 -23l-41 -67q-19 -29 -49 -13zM45 39l105 741q3 17 14.5 28t25.5 11h181q14 0 22.5 -11t7.5 -28l-104 -741q-1 -15 -14 -27t-27 -12h-180q-13 0 -23 12t-8 27z" />
    <glyph glyph-name="iacute" unicode="&#xed;" 
d="M190 1081q-22 -8 -31.5 -5t-15.5 18l-32 80q-9 25 16 38l336 199q35 23 49 -10l49 -107q8 -19 2.5 -34t-20.5 -21zM45 39l105 741q3 17 14.5 28t25.5 11h181q14 0 22.5 -11t7.5 -28l-104 -741q-1 -15 -14 -27t-27 -12h-180q-13 0 -23 12t-8 27z" />
    <glyph glyph-name="icircumflex" unicode="&#xee;" 
d="M45 39l105 741q3 17 14.5 28t25.5 11h181q14 0 22.5 -11t7.5 -28l-104 -741q-1 -15 -14 -27t-27 -12h-180q-13 0 -23 12t-8 27zM86 1083l-45 68q-19 27 10 47l275 207q23 17 43 0l217 -207q8 -7 10.5 -17.5t-4.5 -21.5l-60 -76q-19 -25 -40 -6l-160 127l-205 -127
q-26 -16 -41 6z" />
    <glyph glyph-name="idieresis" unicode="&#xef;" 
d="M506 1128q-49 0 -77.5 38.5t-20.5 93.5q6 54 44.5 91.5t88.5 37.5q48 0 78 -37.5t24 -91.5q-7 -54 -48 -93t-89 -39zM135 1128q-47 0 -76 39t-22 93q6 53 45.5 91t87.5 38q49 0 78.5 -37.5t23.5 -91.5q-8 -54 -48 -93t-89 -39zM45 39l105 741q3 17 14.5 28t25.5 11h181
q14 0 22.5 -11t7.5 -28l-104 -741q-1 -15 -14 -27t-27 -12h-180q-13 0 -23 12t-8 27z" />
    <glyph glyph-name="eth" unicode="&#xf0;" horiz-adv-x="1007" 
d="M43 391q0 120 36.5 217t98.5 158.5t139.5 94t163.5 32.5q91 0 183 -57q-11 152 -136 274l-161 -100q-14 -7 -27 -3.5t-18 15.5l-11 27q-5 12 0.5 27t18.5 24l110 74q-11 11 -28 21.5t-29.5 16.5t-29 13.5t-19.5 9.5q-41 17 -21 59l60 115q21 47 67 29q97 -41 222 -146
l141 82q26 14 45 -16l12 -23q7 -12 1.5 -28.5t-19.5 -24.5l-105 -61q87 -96 142 -238t55 -313q0 -143 -34 -267t-99 -219t-167.5 -149.5t-230.5 -54.5q-145 0 -252.5 122t-107.5 289zM438 213q49 0 92.5 29.5t72.5 76t47.5 99t23.5 102.5q-4 58 -49 115t-119 57
q-89 0 -158 -81.5t-69 -192.5q0 -85 45 -145t114 -60z" />
    <glyph glyph-name="ntilde" unicode="&#xf1;" horiz-adv-x="995" 
d="M45 39l105 741q1 17 12.5 28t25.5 11h80q10 0 19 -7t10 -17l18 -76q135 121 277 121q108 0 179 -58.5t95 -149.5t8 -200l-55 -393q-1 -15 -13 -27t-26 -12h-178q-14 0 -22.5 11.5t-6.5 27.5l60 405q11 81 -16.5 127.5t-88.5 46.5q-30 0 -59 -11.5t-49 -28.5t-36 -34
t-24 -28l-8 -12l-65 -465q-3 -22 -12 -30.5t-31 -8.5h-170q-14 0 -23 12t-6 27zM381 1151l-55 43q-20 20 -4 47q11 23 25.5 45.5t41 54.5t63.5 52t78 20q25 0 48.5 -11.5t40.5 -28.5l33.5 -33.5t34.5 -28t36 -11.5q22 0 36.5 17t28.5 47q9 19 27 25.5t35 -5.5l47 -36
q28 -19 4 -68q-9 -19 -23.5 -41.5t-39.5 -50.5t-60 -46t-73 -18q-32 0 -63.5 18t-51.5 39.5t-42.5 39.5t-39.5 18q-18 0 -35 -16t-23.5 -27.5t-19.5 -36.5q-6 -12 -21.5 -15t-27.5 7z" />
    <glyph glyph-name="ograve" unicode="&#xf2;" horiz-adv-x="890" 
d="M37 354q0 129 59.5 241t162.5 178.5t224 66.5q139 0 232.5 -110t93.5 -263q0 -130 -61 -242.5t-164 -178.5t-222 -66q-139 0 -232 111t-93 263zM393 201q74 0 131.5 72t57.5 171q0 74 -36 124t-93 50q-76 0 -133.5 -71t-57.5 -168q0 -75 36 -126.5t95 -51.5zM651 1087
l-307 158q-29 17 -4 55l59 89q12 19 31 21.5t25 -5.5l280 -199q8 -5 10.5 -16t-4.5 -23l-41 -67q-19 -29 -49 -13z" />
    <glyph glyph-name="oacute" unicode="&#xf3;" horiz-adv-x="890" 
d="M37 354q0 129 59.5 241t162.5 178.5t224 66.5q139 0 232.5 -110t93.5 -263q0 -130 -61 -242.5t-164 -178.5t-222 -66q-139 0 -232 111t-93 263zM393 201q74 0 131.5 72t57.5 171q0 74 -36 124t-93 50q-76 0 -133.5 -71t-57.5 -168q0 -75 36 -126.5t95 -51.5zM389 1081
q-22 -8 -31.5 -5t-15.5 18l-33 80q-9 25 17 38l336 199q35 23 49 -10l49 -107q8 -19 2 -33.5t-21 -21.5z" />
    <glyph glyph-name="ocircumflex" unicode="&#xf4;" horiz-adv-x="890" 
d="M37 354q0 129 59.5 241t162.5 178.5t224 66.5q139 0 232.5 -110t93.5 -263q0 -130 -61 -242.5t-164 -178.5t-222 -66q-139 0 -232 111t-93 263zM393 201q74 0 131.5 72t57.5 171q0 74 -36 124t-93 50q-76 0 -133.5 -71t-57.5 -168q0 -75 36 -126.5t95 -51.5zM285 1083
l-45 68q-19 27 10 47l274 207q23 17 43 0l217 -207q22 -18 7 -39l-60 -76q-19 -25 -41 -6l-160 127l-204 -127q-26 -16 -41 6z" />
    <glyph glyph-name="otilde" unicode="&#xf5;" horiz-adv-x="890" 
d="M37 354q0 129 59.5 241t162.5 178.5t224 66.5q139 0 232.5 -110t93.5 -263q0 -130 -61 -242.5t-164 -178.5t-222 -66q-139 0 -232 111t-93 263zM393 201q74 0 131.5 72t57.5 171q0 74 -36 124t-93 50q-76 0 -133.5 -71t-57.5 -168q0 -75 36 -126.5t95 -51.5zM307 1151
l-55 43q-20 20 -4 47q11 23 25.5 45.5t41.5 54.5t64 52t78 20q31 0 59.5 -17.5t46.5 -39t41 -39t45 -17.5q35 0 66 64q9 19 26 25t35 -5l47 -36q28 -19 4 -68q-9 -19 -23.5 -41.5t-39.5 -50.5t-60 -46t-73 -18q-32 0 -63.5 18t-51.5 39.5t-42.5 39.5t-39.5 18q-18 0 -35 -16
t-23.5 -27.5t-19.5 -36.5q-6 -12 -21.5 -15t-27.5 7z" />
    <glyph glyph-name="odieresis" unicode="&#xf6;" horiz-adv-x="890" 
d="M37 354q0 129 59.5 241t162.5 178.5t224 66.5q139 0 232.5 -110t93.5 -263q0 -130 -61 -242.5t-164 -178.5t-222 -66q-139 0 -232 111t-93 263zM393 201q74 0 131.5 72t57.5 171q0 74 -36 124t-93 50q-76 0 -133.5 -71t-57.5 -168q0 -75 36 -126.5t95 -51.5zM707 1128
q-49 0 -78 39t-21 93q6 54 44.5 91.5t88.5 37.5q48 0 78.5 -37.5t24.5 -91.5q-7 -54 -48 -93t-89 -39zM336 1128q-47 0 -76 39t-22 93q6 53 45.5 91t87.5 38q49 0 78.5 -37.5t23.5 -91.5q-8 -54 -48 -93t-89 -39z" />
    <glyph glyph-name="divide" unicode="&#xf7;" horiz-adv-x="952" 
d="M526 965q-49 0 -80.5 36.5t-31.5 88.5q0 64 46 110.5t107 46.5q49 0 82 -36t33 -87q0 -64 -47.5 -111.5t-108.5 -47.5zM117 612q-13 0 -22 12t-7 27l16 115q2 15 14 27t25 12h734q13 0 21.5 -12t6.5 -27l-16 -115q-1 -15 -13 -27t-26 -12h-733zM303 309q0 65 45.5 111.5
t106.5 46.5q51 0 83.5 -34.5t32.5 -86.5q0 -65 -47 -112.5t-108 -47.5q-49 0 -81 35.5t-32 87.5z" />
    <glyph glyph-name="oslash" unicode="&#xf8;" horiz-adv-x="890" 
d="M45 29l-18 20q-9 9 -7 25.5t13 27.5l53 52q-49 93 -49 200q0 129 59.5 241t162.5 178.5t224 66.5q125 0 219 -97l58 56q25 22 47 0l18 -21q9 -11 6.5 -26t-14.5 -27l-59 -57q51 -88 51 -201q0 -130 -61 -242.5t-164 -178.5t-222 -66q-130 0 -219 96l-51 -49
q-11 -10 -24 -9t-23 11zM266 326l266 256q-31 36 -79 36q-76 0 -133.5 -71t-57.5 -168q0 -21 4 -53zM309 238q37 -37 84 -37q74 0 131.5 72t57.5 171q0 18 -4 50z" />
    <glyph glyph-name="ugrave" unicode="&#xf9;" horiz-adv-x="966" 
d="M342 -20q-81 0 -139.5 33.5t-87 89.5t-39 129t3.5 151l57 397q1 17 13 28t26 11h178q14 0 23 -11t6 -28l-57 -403q-11 -82 13.5 -129t76.5 -47q28 0 54.5 12t44 29t30.5 34t19 29l7 12l64 463q8 39 45 39h168q14 0 23 -11t6 -28l-103 -741q-1 -15 -14 -27t-27 -12h-80
q-22 0 -30 31l-15 67q-108 -118 -266 -118zM692 1087l-307 158q-29 17 -4 55l59 89q12 19 31 21.5t25 -5.5l280 -199q8 -5 10.5 -16t-4.5 -23l-41 -67q-19 -29 -49 -13z" />
    <glyph glyph-name="uacute" unicode="&#xfa;" horiz-adv-x="966" 
d="M342 -20q-81 0 -139.5 33.5t-87 89.5t-39 129t3.5 151l57 397q1 17 13 28t26 11h178q14 0 23 -11t6 -28l-57 -403q-11 -82 13.5 -129t76.5 -47q28 0 54.5 12t44 29t30.5 34t19 29l7 12l64 463q8 39 45 39h168q14 0 23 -11t6 -28l-103 -741q-1 -15 -14 -27t-27 -12h-80
q-22 0 -30 31l-15 67q-108 -118 -266 -118zM430 1081q-22 -8 -31.5 -5t-15.5 18l-33 80q-9 25 17 38l335 199q13 10 28 8t22 -18l49 -107q8 -19 2 -33.5t-21 -21.5z" />
    <glyph glyph-name="ucircumflex" unicode="&#xfb;" horiz-adv-x="966" 
d="M342 -20q-81 0 -139.5 33.5t-87 89.5t-39 129t3.5 151l57 397q1 17 13 28t26 11h178q14 0 23 -11t6 -28l-57 -403q-11 -82 13.5 -129t76.5 -47q28 0 54.5 12t44 29t30.5 34t19 29l7 12l64 463q8 39 45 39h168q14 0 23 -11t6 -28l-103 -741q-1 -15 -14 -27t-27 -12h-80
q-22 0 -30 31l-15 67q-108 -118 -266 -118zM328 1083l-45 68q-19 27 10 47l274 207q23 17 43 0l217 -207q22 -18 7 -39l-60 -76q-19 -25 -41 -6l-160 127l-204 -127q-26 -16 -41 6z" />
    <glyph glyph-name="udieresis" unicode="&#xfc;" horiz-adv-x="966" 
d="M342 -20q-81 0 -139.5 33.5t-87 89.5t-39 129t3.5 151l57 397q1 17 13 28t26 11h178q14 0 23 -11t6 -28l-57 -403q-11 -82 13.5 -129t76.5 -47q28 0 54.5 12t44 29t30.5 34t19 29l7 12l64 463q8 39 45 39h168q14 0 23 -11t6 -28l-103 -741q-1 -15 -14 -27t-27 -12h-80
q-22 0 -30 31l-15 67q-108 -118 -266 -118zM745 1128q-49 0 -77.5 38.5t-20.5 93.5q6 54 44.5 91.5t88.5 37.5q48 0 78.5 -37.5t24.5 -91.5q-7 -54 -48.5 -93t-89.5 -39zM375 1128q-47 0 -76.5 39t-22.5 93q6 53 46 91t88 38q49 0 78.5 -37.5t23.5 -91.5q-8 -54 -48 -93
t-89 -39z" />
    <glyph glyph-name="yacute" unicode="&#xfd;" horiz-adv-x="870" 
d="M233 57l-186 709q-6 21 2 37t29 16h176q8 0 17 -6.5t12 -15.5l106 -486h2l240 486q10 22 41 22h182q22 0 28.5 -16.5t-5.5 -36.5l-754 -1356q-16 -24 -35 -24h-190q-21 0 -26.5 13.5t7.5 35.5zM373 1081q-22 -8 -31.5 -5t-15.5 18l-33 80q-9 25 16 38l336 199
q35 23 49 -10l49 -107q8 -19 2.5 -34t-20.5 -21z" />
    <glyph glyph-name="thorn" unicode="&#xfe;" horiz-adv-x="962" 
d="M297 25l-86 -603q-1 -15 -13 -26.5t-26 -11.5h-184q-14 0 -23 11.5t-6 26.5l277 1973q1 15 13.5 27t26.5 12h183q13 0 22.5 -12t7.5 -27l-86 -609q25 22 74.5 38t100.5 16q133 0 217 -110.5t84 -274.5q0 -205 -127 -340t-318 -135q-33 0 -74.5 15t-62.5 30zM332 258
q38 -57 114 -57q77 0 135 71t58 170q0 73 -36.5 124.5t-96.5 51.5q-26 0 -50 -9.5t-39 -23t-26.5 -27t-16.5 -22.5l-5 -10z" />
    <glyph glyph-name="ydieresis" unicode="&#xff;" horiz-adv-x="870" 
d="M233 57l-186 709q-6 21 2 37t29 16h176q8 0 17 -6.5t12 -15.5l106 -486h2l240 486q10 22 41 22h182q22 0 28.5 -16.5t-5.5 -36.5l-754 -1356q-16 -24 -35 -24h-190q-21 0 -26.5 13.5t7.5 35.5zM690 1128q-49 0 -77.5 38.5t-20.5 93.5q6 54 44.5 91.5t88.5 37.5
q48 0 78 -37.5t24 -91.5q-7 -54 -48 -93t-89 -39zM319 1128q-47 0 -76 39t-22 93q6 53 45.5 91t87.5 38q49 0 79 -37.5t24 -91.5q-8 -54 -48.5 -93t-89.5 -39z" />
    <glyph glyph-name="Amacron" unicode="&#x100;" horiz-adv-x="1232" 
d="M-43 0q-21 0 -28.5 16.5t3.5 36.5l770 1379q13 22 35 22h19q21 0 28 -22l377 -1379q6 -20 -5.5 -36.5t-33.5 -16.5h-178q-24 0 -36.5 9t-16.5 32l-51 227h-510l-119 -227q-21 -41 -66 -41h-188zM451 489h323l-96 447h-4zM543 1655q-15 0 -24 11t-7 26l10 69q3 17 14.5 28
t26.5 11h473q15 0 23.5 -11t5.5 -28l-10 -69q-1 -15 -13.5 -26t-27.5 -11h-471z" />
    <glyph glyph-name="amacron" unicode="&#x101;" horiz-adv-x="970" 
d="M293 1167q-15 0 -23 11t-6 26l8 70q1 17 13.5 28t27.5 11h473q14 0 23 -11t6 -28l-10 -70q-2 -15 -13 -26t-26 -11h-473zM569 334l25 170q-6 37 -41 75.5t-92 38.5q-75 0 -134 -71.5t-59 -186.5q0 -68 37 -113.5t98 -45.5q57 0 104.5 46t61.5 87zM872 780l-102 -741
q-1 -15 -14 -27t-27 -12h-80q-26 0 -33 35l-12 61q-22 -20 -36.5 -32t-50.5 -35.5t-81 -36t-96 -12.5q-128 0 -214.5 109t-86.5 267q0 200 122 342t300 142q78 0 138.5 -36.5t90.5 -76.5l37 66q15 26 37 26h80q14 0 22.5 -11t5.5 -28z" />
    <glyph glyph-name="Abreve" unicode="&#x102;" horiz-adv-x="1232" 
d="M-43 0q-21 0 -28.5 16.5t3.5 36.5l770 1379q13 22 35 22h19q21 0 28 -22l377 -1379q6 -20 -5.5 -36.5t-33.5 -16.5h-178q-24 0 -36.5 9t-16.5 32l-51 227h-510l-119 -227q-21 -41 -66 -41h-188zM451 489h323l-96 447h-4zM772 1569q-94 0 -159.5 69.5t-65.5 171.5
q0 18 11.5 30.5t29.5 12.5h76q18 0 22 -28q8 -49 34 -79t68 -30q41 0 77.5 32t54.5 77q12 28 34 28h84q17 0 24.5 -12.5t4.5 -30.5q-30 -106 -109.5 -173.5t-185.5 -67.5z" />
    <glyph glyph-name="abreve" unicode="&#x103;" horiz-adv-x="970" 
d="M528 1081q-97 0 -162 69.5t-65 172.5q0 19 12 32t29 13h74q10 0 17 -9t9 -20q6 -49 32.5 -78.5t70.5 -29.5q41 0 76 31t53 77q4 12 15 20.5t22 8.5h84q17 0 24 -12.5t4 -32.5q-32 -106 -111.5 -174t-183.5 -68zM569 334l25 170q-6 37 -41 75.5t-92 38.5q-75 0 -134 -71.5
t-59 -186.5q0 -68 37 -113.5t98 -45.5q57 0 104.5 46t61.5 87zM872 780l-102 -741q-1 -15 -14 -27t-27 -12h-80q-26 0 -33 35l-12 61q-22 -20 -36.5 -32t-50.5 -35.5t-81 -36t-96 -12.5q-128 0 -214.5 109t-86.5 267q0 200 122 342t300 142q78 0 138.5 -36.5t90.5 -76.5
l37 66q15 26 37 26h80q14 0 22.5 -11t5.5 -28z" />
    <glyph glyph-name="Aogonek" unicode="&#x104;" horiz-adv-x="1232" 
d="M-43 0q-21 0 -28.5 16.5t3.5 36.5l770 1379q13 22 35 22h19q21 0 28 -22l377 -1379q6 -20 -5.5 -36.5t-33.5 -16.5h-114q-113 -102 -113 -217q0 -49 27.5 -80t81.5 -31q15 0 29 3t30 8.5t22 7.5q17 5 27.5 -5.5t7.5 -29.5l-8 -62q-2 -25 -33 -38q-9 -6 -48 -13.5
t-75 -7.5q-89 0 -152 50.5t-63 140.5q0 54 18 105t46.5 88t50.5 59t43 38l-59 252h-510l-119 -227q-21 -41 -66 -41h-188zM451 489h323l-96 447h-4z" />
    <glyph glyph-name="aogonek" unicode="&#x105;" horiz-adv-x="970" 
d="M872 780l-102 -741q-1 -15 -14 -27t-27 -12h-10q-113 -102 -113 -217q0 -49 27.5 -80t81.5 -31q15 0 29 3t30.5 8.5l22.5 7.5q17 4 27 -6t7 -29l-8 -62q-3 -25 -32 -38q-9 -6 -48 -13.5t-75 -7.5q-89 0 -152 50.5t-63 140.5q0 48 14.5 94t34.5 78t45 60.5t41.5 42.5
t29.5 22l-14 73q-22 -20 -36.5 -32t-50.5 -35.5t-81 -36t-96 -12.5q-128 0 -214.5 109t-86.5 267q0 200 122 342t300 142q78 0 138.5 -36.5t90.5 -76.5l37 66q15 26 37 26h80q14 0 22.5 -11t5.5 -28zM569 334l25 170q-6 37 -41 75.5t-92 38.5q-75 0 -134 -71.5t-59 -186.5
q0 -68 37 -113.5t98 -45.5q57 0 104.5 46t61.5 87z" />
    <glyph glyph-name="Cacute" unicode="&#x106;" horiz-adv-x="1282" 
d="M104 616q0 177 60 333.5t162.5 266.5t243.5 174t298 64q132 0 241 -52.5t185 -141.5q9 -12 7 -29t-15 -29l-110 -106q-18 -15 -36 -14.5t-32 14.5q-106 102 -254 102q-121 0 -227 -75t-169 -201.5t-63 -270.5q0 -169 85.5 -286t228.5 -117q141 0 280 121q38 33 66 -2
l106 -134q7 -11 4 -27.5t-14 -27.5q-207 -198 -463 -198q-130 0 -240 50t-185 136t-117 202.5t-42 247.5zM760 1573q-35 -15 -47 12l-33 80q-10 26 16 39l336 199q34 23 49 -11l49 -106q8 -19 2.5 -34t-20.5 -21z" />
    <glyph glyph-name="cacute" unicode="&#x107;" horiz-adv-x="811" 
d="M39 360q0 207 128 343.5t308 136.5q90 0 164.5 -41.5t114.5 -104.5q18 -26 -17 -57l-82 -76q-15 -11 -28.5 -9t-22.5 11q-1 1 -8.5 8t-11 9.5t-11.5 8.5t-13.5 9t-15.5 7.5t-18.5 7t-20.5 4t-24 1.5q-77 0 -137.5 -69.5t-60.5 -171.5q0 -75 36.5 -125.5t94.5 -50.5
q73 0 145 78q10 12 23.5 13t27.5 -11l80 -78q27 -27 6 -58q-58 -75 -136.5 -120t-170.5 -45q-152 0 -251 108t-99 272zM385 1081q-22 -8 -31.5 -5t-15.5 18l-33 80q-9 25 17 38l335 199q13 10 28 8t22 -18l49 -107q8 -19 2 -33.5t-21 -21.5z" />
    <glyph glyph-name="Ccircumflex" unicode="&#x108;" horiz-adv-x="1282" 
d="M104 616q0 177 60 333.5t162.5 266.5t243.5 174t298 64q132 0 241 -52.5t185 -141.5q9 -12 7 -29t-15 -29l-110 -106q-18 -15 -36 -14.5t-32 14.5q-106 102 -254 102q-121 0 -227 -75t-169 -201.5t-63 -270.5q0 -169 85.5 -286t228.5 -117q141 0 280 121q38 33 66 -2
l106 -134q7 -11 4 -27.5t-14 -27.5q-207 -198 -463 -198q-130 0 -240 50t-185 136t-117 202.5t-42 247.5zM702 1567q-18 -9 -25 -7.5t-15 13.5l-46 67q-19 27 11 48l274 206q23 17 43 0l217 -206q8 -7 10.5 -17.5t-4.5 -21.5l-59 -76q-19 -25 -41 -6l-160 127z" />
    <glyph glyph-name="ccircumflex" unicode="&#x109;" horiz-adv-x="811" 
d="M39 360q0 207 128 343.5t308 136.5q90 0 164.5 -41.5t114.5 -104.5q18 -26 -17 -57l-82 -76q-15 -11 -28.5 -9t-22.5 11q-1 1 -8.5 8t-11 9.5t-11.5 8.5t-13.5 9t-15.5 7.5t-18.5 7t-20.5 4t-24 1.5q-77 0 -137.5 -69.5t-60.5 -171.5q0 -75 36.5 -125.5t94.5 -50.5
q73 0 145 78q10 12 23.5 13t27.5 -11l80 -78q27 -27 6 -58q-58 -75 -136.5 -120t-170.5 -45q-152 0 -251 108t-99 272zM283 1083l-45 68q-19 27 10 47l274 207q23 17 43 0l217 -207q8 -7 10.5 -17.5t-4.5 -21.5l-59 -76q-19 -25 -41 -6l-160 127l-204 -127q-26 -16 -41 6z
" />
    <glyph glyph-name="Cdotaccent" unicode="&#x10a;" horiz-adv-x="1282" 
d="M104 616q0 177 60 333.5t162.5 266.5t243.5 174t298 64q132 0 241 -52.5t185 -141.5q9 -12 7 -29t-15 -29l-110 -106q-18 -15 -36 -14.5t-32 14.5q-106 102 -254 102q-121 0 -227 -75t-169 -201.5t-63 -270.5q0 -169 85.5 -286t228.5 -117q141 0 280 121q38 33 66 -2
l106 -134q7 -11 4 -27.5t-14 -27.5q-207 -198 -463 -198q-130 0 -240 50t-185 136t-117 202.5t-42 247.5zM889 1599q-53 0 -87 37.5t-34 92.5q0 68 49 116.5t113 48.5q53 0 88 -37t35 -92q0 -68 -50 -117t-114 -49z" />
    <glyph glyph-name="cdotaccent" unicode="&#x10b;" horiz-adv-x="811" 
d="M39 360q0 207 128 343.5t308 136.5q90 0 164.5 -41.5t114.5 -104.5q18 -26 -17 -57l-82 -76q-15 -11 -28.5 -9t-22.5 11q-1 1 -8.5 8t-11 9.5t-11.5 8.5t-13.5 9t-15.5 7.5t-18.5 7t-20.5 4t-24 1.5q-77 0 -137.5 -69.5t-60.5 -171.5q0 -75 36.5 -125.5t94.5 -50.5
q73 0 145 78q10 12 23.5 13t27.5 -11l80 -78q27 -27 6 -58q-58 -75 -136.5 -120t-170.5 -45q-152 0 -251 108t-99 272zM514 1098q-52 0 -86.5 37.5t-34.5 91.5q0 68 49.5 117t114.5 49q52 0 86.5 -37.5t34.5 -91.5q0 -68 -49.5 -117t-114.5 -49z" />
    <glyph glyph-name="Ccaron" unicode="&#x10c;" horiz-adv-x="1282" 
d="M104 616q0 177 60 333.5t162.5 266.5t243.5 174t298 64q132 0 241 -52.5t185 -141.5q9 -12 7 -29t-15 -29l-110 -106q-18 -15 -36 -14.5t-32 14.5q-106 102 -254 102q-121 0 -227 -75t-169 -201.5t-63 -270.5q0 -169 85.5 -286t228.5 -117q141 0 280 121q38 33 66 -2
l106 -134q7 -11 4 -27.5t-14 -27.5q-207 -198 -463 -198q-130 0 -240 50t-185 136t-117 202.5t-42 247.5zM872 1565l-217 207q-21 17 -6 38l60 76q19 25 41 6l159 -127l205 127q26 16 41 -6l45 -67q19 -27 -10 -47l-275 -207q-23 -17 -43 0z" />
    <glyph glyph-name="ccaron" unicode="&#x10d;" horiz-adv-x="811" 
d="M39 360q0 207 128 343.5t308 136.5q90 0 164.5 -41.5t114.5 -104.5q18 -26 -17 -57l-82 -76q-15 -11 -28.5 -9t-22.5 11q-1 1 -8.5 8t-11 9.5t-11.5 8.5t-13.5 9t-15.5 7.5t-18.5 7t-20.5 4t-24 1.5q-77 0 -137.5 -69.5t-60.5 -171.5q0 -75 36.5 -125.5t94.5 -50.5
q73 0 145 78q10 12 23.5 13t27.5 -11l80 -78q27 -27 6 -58q-58 -75 -136.5 -120t-170.5 -45q-152 0 -251 108t-99 272zM500 1075l-217 207q-22 18 -7 39l60 76q19 25 41 6l160 -127l204 127q26 16 41 -6l45 -68q19 -27 -10 -47l-274 -207q-23 -17 -43 0z" />
    <glyph glyph-name="Dcaron" unicode="&#x10e;" horiz-adv-x="1398" 
d="M109 39l190 1356q1 15 13 27t26 12h442q119 0 223 -51t176.5 -136t114 -199t41.5 -237q0 -164 -58 -313.5t-157.5 -259t-240.5 -174t-299 -64.5h-445q-13 0 -21 12t-5 27zM403 250h191q124 0 228.5 71t166.5 196.5t62 275.5q0 170 -89.5 281.5t-234.5 111.5h-192z
M719 1565l-217 207q-21 17 -6 38l59 76q19 25 41 6l160 -127l205 127q18 9 25 7.5t15 -13.5l46 -67q18 -26 -11 -47l-274 -207q-23 -17 -43 0z" />
    <glyph glyph-name="dcaron" unicode="&#x10f;" horiz-adv-x="1026" 
d="M340 -20q-128 0 -214.5 109t-86.5 267q0 131 56.5 242.5t155.5 176.5t218 65q41 0 85.5 -12t68.5 -27l84 594q4 39 86 39h137q13 0 23 -12t8 -27l-191 -1356q-1 -15 -14 -27t-27 -12h-80q-26 0 -33 35l-12 61q-124 -116 -264 -116zM268 360q0 -68 37 -113.5t98 -45.5
q57 0 104.5 46t61.5 87l23 235q-5 5 -14 13.5t-41.5 22t-69.5 13.5q-80 0 -139.5 -76.5t-59.5 -181.5zM1149 868l-29 33q-8 10 -4.5 22.5t14.5 22.5q1 1 16 14.5t29 27t34 36.5t35.5 46.5t29.5 55.5t20 64l-4 -1l-10 -2.5t-14 -3t-18.5 -2.5t-20.5 -1q-47 0 -79 34.5
t-32 85.5q0 62 47 108t113 46q52 0 92.5 -43t40.5 -133q0 -63 -18 -124t-40.5 -102t-59 -84t-55 -60.5t-46.5 -41.5q-22 -19 -41 2z" />
    <glyph glyph-name="Dcroat" unicode="&#x110;" horiz-adv-x="1409" 
d="M119 39l86 618h-53q-13 0 -22 12t-7 27l2 27q1 15 14 27t27 12h53l90 633q1 15 13 27t26 12h443q157 0 286 -88t199 -230t70 -305q0 -164 -59.5 -313.5t-160 -259t-241 -174t-295.5 -64.5h-445q-13 0 -21 12t-5 27zM414 250h190q124 0 228.5 71t166.5 196.5t62 275.5
q0 170 -89.5 281.5t-234.5 111.5h-192l-60 -424h281q14 0 22.5 -11.5t6.5 -27.5l-4 -29q-2 -15 -13 -26t-26 -11h-281z" />
    <glyph glyph-name="dcroat" unicode="&#x111;" horiz-adv-x="962" 
d="M340 -20q-128 0 -214.5 109t-86.5 267q0 131 56.5 242.5t155.5 176.5t218 65q41 0 85.5 -12t68.5 -27l41 291h-193q-15 0 -24 10.5t-7 25.5l4 29q2 15 14 27t27 12h193l29 199q4 39 86 39h137q13 0 23 -12t8 -27l-29 -199h59q14 0 23 -12t6 -27l-4 -27
q-3 -15 -14.5 -26.5t-24.5 -11.5h-59l-148 -1053q-1 -15 -14 -27t-27 -12h-80q-26 0 -33 35l-12 61q-124 -116 -264 -116zM268 360q0 -68 37 -113.5t98 -45.5q57 0 104.5 46t61.5 87l23 235q-5 5 -14 13.5t-41.5 22t-69.5 13.5q-80 0 -139.5 -76.5t-59.5 -181.5z" />
    <glyph glyph-name="Emacron" unicode="&#x112;" horiz-adv-x="1116" 
d="M109 39l190 1356q1 15 13 27t26 12h758q15 0 23.5 -11.5t6.5 -27.5l-24 -168q-2 -15 -14 -27t-27 -12h-524l-48 -336h435q13 0 22.5 -12t7.5 -27l-24 -170q-3 -17 -15 -28t-26 -11h-434l-52 -358h527q14 0 22 -11.5t6 -27.5l-22 -168q-2 -15 -14 -27t-27 -12h-758
q-15 0 -23 12t-5 27zM516 1655q-15 0 -24 11t-7 26l11 69q3 17 14.5 28t26.5 11h473q15 0 23 -11t5 -28l-10 -69q-1 -15 -13.5 -26t-27.5 -11h-471z" />
    <glyph glyph-name="emacron" unicode="&#x113;" horiz-adv-x="823" 
d="M35 344q0 129 59.5 241.5t171 183.5t250.5 71q120 0 191 -61t71 -156q0 -74 -50 -131t-130 -88t-164.5 -46t-169.5 -16q-5 -67 28.5 -108t106.5 -41q35 0 76.5 14.5t69.5 34.5q33 22 47 0l67 -97q8 -10 7 -25.5t-13 -27.5q-122 -112 -293 -112q-144 0 -234.5 106
t-90.5 258zM295 502q55 1 109.5 10.5t98.5 32t44 53.5q0 23 -18 37t-52 14q-58 0 -111 -45.5t-71 -101.5zM313 1167q-15 0 -22.5 10.5t-5.5 26.5l8 70q1 17 13.5 28t27.5 11h473q14 0 23 -11t6 -28l-11 -70q-2 -15 -13 -26t-26 -11h-473z" />
    <glyph glyph-name="Ebreve" unicode="&#x114;" horiz-adv-x="1116" 
d="M109 39l190 1356q1 15 13 27t26 12h758q15 0 23.5 -11.5t6.5 -27.5l-24 -168q-2 -15 -14 -27t-27 -12h-524l-48 -336h435q13 0 22.5 -12t7.5 -27l-24 -170q-3 -17 -15 -28t-26 -11h-434l-52 -358h527q14 0 22 -11.5t6 -27.5l-22 -168q-2 -15 -14 -27t-27 -12h-758
q-15 0 -23 12t-5 27zM752 1569q-94 0 -160 69.5t-66 171.5q0 18 11.5 30.5t29.5 12.5h76q19 0 23 -28q8 -49 34 -79t68 -30q41 0 77 32t54 77q12 28 35 28h84q17 0 24.5 -12.5t4.5 -30.5q-30 -106 -109.5 -173.5t-185.5 -67.5z" />
    <glyph glyph-name="ebreve" unicode="&#x115;" horiz-adv-x="823" 
d="M35 344q0 129 59.5 241.5t171 183.5t250.5 71q120 0 191 -61t71 -156q0 -74 -50 -131t-130 -88t-164.5 -46t-169.5 -16q-5 -67 28.5 -108t106.5 -41q35 0 76.5 14.5t69.5 34.5q33 22 47 0l67 -97q8 -10 7 -25.5t-13 -27.5q-122 -112 -293 -112q-144 0 -234.5 106
t-90.5 258zM295 502q55 1 109.5 10.5t98.5 32t44 53.5q0 23 -18 37t-52 14q-58 0 -111 -45.5t-71 -101.5zM547 1081q-97 0 -162.5 69.5t-65.5 172.5q0 19 12 32t29 13h74q10 0 17.5 -9t9.5 -20q6 -49 32 -78.5t70 -29.5q41 0 76 31t53 77q4 12 15 20.5t22 8.5h84
q17 0 24.5 -13t4.5 -32q-32 -106 -111.5 -174t-183.5 -68z" />
    <glyph glyph-name="Edotaccent" unicode="&#x116;" horiz-adv-x="1116" 
d="M109 39l190 1356q1 15 13 27t26 12h758q15 0 23.5 -11.5t6.5 -27.5l-24 -168q-2 -15 -14 -27t-27 -12h-524l-48 -336h435q13 0 22.5 -12t7.5 -27l-24 -170q-3 -17 -15 -28t-26 -11h-434l-52 -358h527q14 0 22 -11.5t6 -27.5l-22 -168q-2 -15 -14 -27t-27 -12h-758
q-15 0 -23 12t-5 27zM743 1599q-53 0 -86.5 37.5t-33.5 92.5q0 68 48.5 116.5t112.5 48.5q53 0 88 -37t35 -92q0 -68 -50 -117t-114 -49z" />
    <glyph glyph-name="edotaccent" unicode="&#x117;" horiz-adv-x="823" 
d="M35 344q0 129 59.5 241.5t171 183.5t250.5 71q120 0 191 -61t71 -156q0 -74 -50 -131t-130 -88t-164.5 -46t-169.5 -16q-5 -67 28.5 -108t106.5 -41q35 0 76.5 14.5t69.5 34.5q33 22 47 0l67 -97q8 -10 7 -25.5t-13 -27.5q-122 -112 -293 -112q-144 0 -234.5 106
t-90.5 258zM295 502q55 1 109.5 10.5t98.5 32t44 53.5q0 23 -18 37t-52 14q-58 0 -111 -45.5t-71 -101.5zM541 1098q-52 0 -86.5 37.5t-34.5 91.5q0 68 49.5 117t114.5 49q52 0 86.5 -37.5t34.5 -91.5q0 -68 -49.5 -117t-114.5 -49z" />
    <glyph glyph-name="Eogonek" unicode="&#x118;" horiz-adv-x="1116" 
d="M109 39l190 1356q1 15 13 27t26 12h758q15 0 23.5 -11.5t6.5 -27.5l-24 -168q-2 -15 -14 -27t-27 -12h-524l-48 -336h435q13 0 22.5 -12t7.5 -27l-24 -170q-3 -17 -15 -28t-26 -11h-434l-52 -358h527q14 0 22 -11.5t6 -27.5l-20 -150q0 -7 -2.5 -13.5t-4.5 -10.5
t-7.5 -10t-7.5 -8t-9 -8t-8 -7q-113 -102 -113 -217q0 -49 27.5 -80t81.5 -31q15 0 29 3t30.5 8.5l22.5 7.5q17 5 27.5 -5.5t7.5 -29.5l-8 -62q-2 -25 -33 -38q-9 -6 -48 -13.5t-75 -7.5q-89 0 -152 50.5t-63 140.5q0 153 137 274h-633q-15 0 -23 12t-5 27z" />
    <glyph glyph-name="eogonek" unicode="&#x119;" horiz-adv-x="827" 
d="M307 -14q-122 20 -196 121t-74 237q0 129 59.5 241.5t171 183.5t250.5 71q120 0 191 -61t71 -156q0 -74 -50 -131t-130 -88t-164.5 -46t-169.5 -16q-5 -67 28.5 -108t106.5 -41q35 0 76.5 14.5t69.5 34.5q33 22 47 0l68 -97q8 -10 6.5 -25.5t-13.5 -27.5
q-97 -86 -217 -106q-98 -98 -98 -203q0 -49 27.5 -80t81.5 -31q15 0 29 3t30 8.5t22 7.5q17 5 27.5 -5.5t7.5 -29.5l-8 -62q-2 -25 -33 -38q-9 -6 -48 -13.5t-75 -7.5q-89 0 -152 50.5t-63 140.5q0 139 121 260zM297 502q55 1 109.5 10.5t98.5 32t44 53.5q0 23 -18 37
t-52 14q-58 0 -111 -45.5t-71 -101.5z" />
    <glyph glyph-name="Ecaron" unicode="&#x11a;" horiz-adv-x="1116" 
d="M109 39l190 1356q1 15 13 27t26 12h758q15 0 23.5 -11.5t6.5 -27.5l-24 -168q-2 -15 -14 -27t-27 -12h-524l-48 -336h435q13 0 22.5 -12t7.5 -27l-24 -170q-3 -17 -15 -28t-26 -11h-434l-52 -358h527q14 0 22 -11.5t6 -27.5l-22 -168q-2 -15 -14 -27t-27 -12h-758
q-15 0 -23 12t-5 27zM725 1565l-217 207q-21 17 -6 38l59 76q19 25 41 6l160 -127l205 127q26 16 41 -6l45 -67q18 -26 -11 -47l-274 -207q-23 -17 -43 0z" />
    <glyph glyph-name="ecaron" unicode="&#x11b;" horiz-adv-x="823" 
d="M35 344q0 129 59.5 241.5t171 183.5t250.5 71q120 0 191 -61t71 -156q0 -74 -50 -131t-130 -88t-164.5 -46t-169.5 -16q-5 -67 28.5 -108t106.5 -41q35 0 76.5 14.5t69.5 34.5q33 22 47 0l67 -97q8 -10 7 -25.5t-13 -27.5q-122 -112 -293 -112q-144 0 -234.5 106
t-90.5 258zM295 502q55 1 109.5 10.5t98.5 32t44 53.5q0 23 -18 37t-52 14q-58 0 -111 -45.5t-71 -101.5zM524 1075l-217 207q-8 7 -10.5 17.5t4.5 21.5l59 76q19 25 41 6l160 -127l205 127q26 16 41 -6l45 -68q19 -27 -10 -47l-275 -207q-23 -17 -43 0z" />
    <glyph glyph-name="Gcircumflex" unicode="&#x11c;" horiz-adv-x="1337" 
d="M104 616q0 177 59.5 333t161.5 266.5t243.5 174.5t299.5 64q262 0 426 -194q9 -12 7 -29t-15 -29l-108 -106q-40 -28 -68 0q-106 102 -256 102q-121 0 -227 -75t-169 -201.5t-63 -270.5q0 -165 92.5 -285t225.5 -120t209 49l24 180h-131q-15 0 -24 11t-7 26l23 160
q3 17 14.5 28t26.5 11h362q13 0 22 -12t7 -27l-68 -492q-5 -40 -32 -63q-16 -13 -44 -29.5t-86.5 -44t-146 -45.5t-182.5 -18q-164 0 -296.5 85.5t-206 230.5t-73.5 320zM700 1567q-26 -16 -41 6l-45 67q-19 27 11 48l274 206q23 17 43 0l217 -206q8 -7 10.5 -17.5
t-4.5 -21.5l-59 -76q-19 -25 -41 -6l-160 127z" />
    <glyph glyph-name="gcircumflex" unicode="&#x11d;" horiz-adv-x="960" 
d="M348 -20q-135 0 -223 106.5t-88 263.5q0 130 56.5 243t154 180t211.5 67q78 0 139 -36t90 -77l37 66q15 26 37 26h80q14 0 22.5 -11t5.5 -28l-120 -870q-17 -122 -56.5 -209t-98.5 -137t-129.5 -73t-158.5 -23q-89 0 -167 39t-120 85q-40 40 -8 78l70 88q26 33 68 0
q83 -71 165 -71q74 0 117.5 54.5t63.5 174.5l16 109q-83 -45 -164 -45zM270 367q0 -73 38 -119.5t102 -46.5q37 0 70.5 11.5t47.5 23.5l15 12l43 287q-11 29 -43 56t-84 27q-77 0 -133 -76t-56 -175zM305 1083l-45 68q-19 27 10 47l275 207q23 17 43 0l217 -207
q8 -7 10.5 -17.5t-4.5 -21.5l-59 -76q-19 -25 -41 -6l-160 127l-205 -127q-26 -16 -41 6z" />
    <glyph glyph-name="Gbreve" unicode="&#x11e;" horiz-adv-x="1337" 
d="M104 616q0 177 59.5 333t161.5 266.5t243.5 174.5t299.5 64q262 0 426 -194q9 -12 7 -29t-15 -29l-108 -106q-40 -28 -68 0q-106 102 -256 102q-121 0 -227 -75t-169 -201.5t-63 -270.5q0 -165 92.5 -285t225.5 -120t209 49l24 180h-131q-15 0 -24 11t-7 26l23 160
q3 17 14.5 28t26.5 11h362q13 0 22 -12t7 -27l-68 -492q-5 -40 -32 -63q-16 -13 -44 -29.5t-86.5 -44t-146 -45.5t-182.5 -18q-164 0 -296.5 85.5t-206 230.5t-73.5 320zM907 1569q-94 0 -159.5 69.5t-65.5 171.5q0 18 11.5 30.5t29.5 12.5h76q18 0 22 -28q8 -49 34.5 -79
t68.5 -30q41 0 77 32t54 77q12 28 35 28h84q17 0 24 -12.5t4 -30.5q-30 -106 -109.5 -173.5t-185.5 -67.5z" />
    <glyph glyph-name="gbreve" unicode="&#x11f;" horiz-adv-x="960" 
d="M348 -20q-135 0 -223 106.5t-88 263.5q0 130 56.5 243t154 180t211.5 67q78 0 139 -36t90 -77l37 66q15 26 37 26h80q14 0 22.5 -11t5.5 -28l-120 -870q-17 -122 -56.5 -209t-98.5 -137t-129.5 -73t-158.5 -23q-89 0 -167 39t-120 85q-40 40 -8 78l70 88q26 33 68 0
q83 -71 165 -71q74 0 117.5 54.5t63.5 174.5l16 109q-83 -45 -164 -45zM270 367q0 -73 38 -119.5t102 -46.5q37 0 70.5 11.5t47.5 23.5l15 12l43 287q-11 29 -43 56t-84 27q-77 0 -133 -76t-56 -175zM543 1081q-97 0 -162.5 69.5t-65.5 172.5q0 19 12 32t29 13h74
q10 0 17.5 -9t9.5 -20q6 -49 32 -78.5t70 -29.5q41 0 76 31t53 77q4 12 15 20.5t22 8.5h84q17 0 24.5 -13t4.5 -32q-32 -106 -111.5 -174t-183.5 -68z" />
    <glyph glyph-name="Gdotaccent" unicode="&#x120;" horiz-adv-x="1337" 
d="M104 616q0 177 59.5 333t161.5 266.5t243.5 174.5t299.5 64q262 0 426 -194q9 -12 7 -29t-15 -29l-108 -106q-40 -28 -68 0q-106 102 -256 102q-121 0 -227 -75t-169 -201.5t-63 -270.5q0 -165 92.5 -285t225.5 -120t209 49l24 180h-131q-15 0 -24 11t-7 26l23 160
q3 17 14.5 28t26.5 11h362q13 0 22 -12t7 -27l-68 -492q-5 -40 -32 -63q-16 -13 -44 -29.5t-86.5 -44t-146 -45.5t-182.5 -18q-164 0 -296.5 85.5t-206 230.5t-73.5 320zM891 1599q-53 0 -87 37.5t-34 92.5q0 68 49 116.5t113 48.5q53 0 88 -37t35 -92q0 -68 -50 -117
t-114 -49z" />
    <glyph glyph-name="gdotaccent" unicode="&#x121;" horiz-adv-x="960" 
d="M348 -20q-135 0 -223 106.5t-88 263.5q0 130 56.5 243t154 180t211.5 67q78 0 139 -36t90 -77l37 66q15 26 37 26h80q14 0 22.5 -11t5.5 -28l-120 -870q-17 -122 -56.5 -209t-98.5 -137t-129.5 -73t-158.5 -23q-89 0 -167 39t-120 85q-40 40 -8 78l70 88q26 33 68 0
q83 -71 165 -71q74 0 117.5 54.5t63.5 174.5l16 109q-83 -45 -164 -45zM270 367q0 -73 38 -119.5t102 -46.5q37 0 70.5 11.5t47.5 23.5l15 12l43 287q-11 29 -43 56t-84 27q-77 0 -133 -76t-56 -175zM530 1098q-52 0 -86 37t-34 92q0 68 49 117t114 49q52 0 86.5 -37.5
t34.5 -91.5q0 -68 -49.5 -117t-114.5 -49z" />
    <glyph glyph-name="Gcommaaccent" unicode="&#x122;" horiz-adv-x="1337" 
d="M104 616q0 177 59.5 333t161.5 266.5t243.5 174.5t299.5 64q262 0 426 -194q9 -12 7 -29t-15 -29l-108 -106q-40 -28 -68 0q-106 102 -256 102q-121 0 -227 -75t-169 -201.5t-63 -270.5q0 -165 92.5 -285t225.5 -120t209 49l24 180h-131q-15 0 -24 11t-7 26l23 160
q3 17 14.5 28t26.5 11h362q13 0 22 -12t7 -27l-68 -492q-5 -40 -32 -63q-16 -13 -44 -29.5t-86.5 -44t-146 -45.5t-182.5 -18q-164 0 -296.5 85.5t-206 230.5t-73.5 320zM471 -340q0 62 47 108t113 46q52 0 92.5 -43t40.5 -133q0 -63 -18 -124t-40.5 -102t-59 -84t-55 -60.5
t-46.5 -41.5q-22 -19 -41 2l-29 33q-8 10 -4.5 22.5t14.5 22.5q2 2 16.5 15t28.5 26t34 36.5t35.5 47t29.5 55t20 63.5l-4 -1l-10 -2.5t-14 -3t-18.5 -2.5t-20.5 -1q-47 0 -79 35t-32 86z" />
    <glyph glyph-name="gcommaaccent" unicode="&#x123;" horiz-adv-x="960" 
d="M535 1083q-52 0 -93 43.5t-41 133.5q0 63 18.5 124t41 101.5t59 83.5t54.5 60t47 42q22 19 41 -2l28 -33q8 -10 4.5 -22.5t-14.5 -22.5q-2 -2 -16.5 -15t-28.5 -26t-34 -36.5t-35.5 -47t-29.5 -55t-20 -63.5l4 1q4 1 10.5 2.5t14 3t18.5 2.5t21 1q47 0 78.5 -35t31.5 -86
q0 -62 -47 -108t-112 -46zM348 -20q-135 0 -223 106.5t-88 263.5q0 130 56.5 243t154 180t211.5 67q78 0 139 -36t90 -77l37 66q15 26 37 26h80q14 0 22.5 -11t5.5 -28l-120 -870q-17 -122 -56.5 -209t-98.5 -137t-129.5 -73t-158.5 -23q-89 0 -167 39t-120 85q-40 40 -8 78
l70 88q26 33 68 0q83 -71 165 -71q74 0 117.5 54.5t63.5 174.5l16 109q-83 -45 -164 -45zM270 367q0 -73 38 -119.5t102 -46.5q37 0 70.5 11.5t47.5 23.5l15 12l43 287q-11 29 -43 56t-84 27q-77 0 -133 -76t-56 -175z" />
    <glyph glyph-name="Hcircumflex" unicode="&#x124;" horiz-adv-x="1462" 
d="M109 39l190 1356q1 15 14 27t27 12h197q15 0 23.5 -11.5t6.5 -27.5l-75 -543h559l75 543q2 15 14 27t27 12h197q13 0 23 -12t8 -27l-191 -1356q-3 -15 -15.5 -27t-25.5 -12h-198q-14 0 -22.5 11.5t-6.5 27.5l80 565h-559l-80 -565q-3 -16 -15 -27.5t-26 -11.5h-199
q-14 0 -22.5 12t-5.5 27zM680 1567q-26 -16 -41 6l-45 67q-19 27 10 48l275 206q23 17 43 0l217 -206q8 -7 10.5 -17.5t-4.5 -21.5l-60 -76q-19 -25 -41 -6l-159 127z" />
    <glyph glyph-name="hcircumflex" unicode="&#x125;" horiz-adv-x="999" 
d="M45 39l191 1356q1 15 13.5 27t26.5 12h183q13 0 22.5 -12t7.5 -27l-88 -623q36 28 89 48t102 20q84 0 147 -34.5t94.5 -91.5t45.5 -130.5t0 -151.5l-56 -393q-1 -15 -14 -27t-27 -12h-176q-14 0 -22 11.5t-6 27.5l55 397q12 85 -18 133.5t-97 48.5q-28 0 -54 -11.5
t-43 -27.5t-30.5 -32t-19.5 -27l-6 -12l-66 -469q-7 -39 -45 -39h-180q-13 0 -22 12t-7 27zM147 1528l-45 67q-18 26 11 47l274 207q23 17 43 0l217 -207q21 -17 6 -38l-59 -76q-19 -25 -41 -6l-160 127l-205 -127q-26 -16 -41 6z" />
    <glyph glyph-name="Hbar" unicode="&#x126;" horiz-adv-x="1462" 
d="M111 39l147 1053h-49q-13 0 -22 11.5t-7 26.5l4 31q1 15 13 25t26 10h49l29 199q1 15 14 27t27 12h197q15 0 23.5 -11.5t6.5 -27.5l-28 -199h559l28 199q2 15 14 27t27 12h197q13 0 23 -12t8 -27l-29 -199h49q15 0 24 -12t7 -27l-4 -29q-1 -15 -13.5 -25.5t-27.5 -10.5
h-49l-148 -1053q-3 -15 -15.5 -27t-25.5 -12h-198q-14 0 -22.5 11.5t-6.5 27.5l80 565h-559l-80 -565q-3 -16 -15 -27.5t-26 -11.5h-199q-14 0 -22.5 12t-5.5 27zM494 852h559l32 240h-559z" />
    <glyph glyph-name="hbar" unicode="&#x127;" horiz-adv-x="999" 
d="M45 39l148 1053h-58q-13 0 -21 11.5t-5 26.5l4 31q3 15 13.5 25t23.5 10h57l29 199q1 15 13.5 27t26.5 12h183q13 0 22.5 -12t7.5 -27l-28 -199h194q14 0 22.5 -11.5t6.5 -27.5l-4 -29q-2 -15 -13 -25.5t-26 -10.5h-195l-45 -320q36 28 89 48t102 20q84 0 147 -34.5
t94.5 -91.5t45.5 -130.5t0 -151.5l-56 -393q-1 -15 -14 -27t-27 -12h-176q-14 0 -22 11.5t-6 27.5l55 397q12 85 -18 133.5t-97 48.5q-28 0 -54 -11.5t-43 -27.5t-30.5 -32t-19.5 -27l-6 -12l-66 -469q-7 -39 -45 -39h-180q-13 0 -22 12t-7 27z" />
    <glyph glyph-name="Itilde" unicode="&#x128;" horiz-adv-x="634" 
d="M109 39l190 1356q1 15 13 27t26 12h201q14 0 22.5 -12t5.5 -27l-190 -1356q-1 -15 -13 -27t-26 -12h-201q-14 0 -22.5 12t-5.5 27zM246 1616l-56 43q-20 20 -4 47q11 23 25.5 45.5t41.5 54.5t64 52t78 20q25 0 48.5 -11.5t40.5 -28t33.5 -33.5t34.5 -28.5t36 -11.5
q22 0 36.5 17t28.5 47q9 19 27 25.5t35 -5.5l47 -37q27 -19 4 -67q-9 -19 -24 -41.5t-39.5 -50.5t-60 -46t-73.5 -18q-32 0 -63.5 18t-51 39.5t-42 39.5t-39.5 18q-18 0 -35 -16t-23.5 -27.5t-19.5 -36.5q-6 -12 -21.5 -15t-27.5 7z" />
    <glyph glyph-name="itilde" unicode="&#x129;" 
d="M109 1151l-56 43q-20 20 -4 47q11 23 25.5 45.5t41.5 54.5t64 52t78 20q25 0 48.5 -11.5t40.5 -28.5l33.5 -33.5t34.5 -28t36 -11.5q22 0 36.5 17t28.5 47q9 19 27 25.5t35 -5.5l47 -36q28 -19 4 -68q-9 -19 -24 -41.5t-39.5 -50.5t-60 -46t-73.5 -18q-32 0 -63.5 18
t-51 39.5t-42 39.5t-39.5 18q-18 0 -35 -16t-23.5 -27.5t-19.5 -36.5q-6 -12 -21.5 -15t-27.5 7zM45 39l105 741q3 17 14.5 28t25.5 11h181q14 0 22.5 -11t7.5 -28l-104 -741q-1 -15 -14 -27t-27 -12h-180q-13 0 -23 12t-8 27z" />
    <glyph glyph-name="Imacron" unicode="&#x12a;" horiz-adv-x="634" 
d="M109 39l190 1356q1 15 13 27t26 12h201q14 0 22.5 -12t5.5 -27l-190 -1356q-1 -15 -13 -27t-26 -12h-201q-14 0 -22.5 12t-5.5 27zM233 1655q-15 0 -23.5 11t-6.5 26l10 69q3 17 14.5 28t26.5 11h473q15 0 23.5 -11t5.5 -28l-11 -69q-2 -15 -13.5 -26t-26.5 -11h-472z
" />
    <glyph glyph-name="imacron" unicode="&#x12b;" 
d="M88 1167q-15 0 -23 11t-6 26l9 70q1 17 13.5 28t27.5 11h473q14 0 22.5 -11t5.5 -28l-10 -70q-2 -15 -13 -26t-26 -11h-473zM45 39l105 741q3 17 14.5 28t25.5 11h181q14 0 22.5 -11t7.5 -28l-104 -741q-1 -15 -14 -27t-27 -12h-180q-13 0 -23 12t-8 27z" />
    <glyph glyph-name="Ibreve" unicode="&#x12c;" horiz-adv-x="634" 
d="M109 39l190 1356q1 15 13 27t26 12h201q14 0 22.5 -12t5.5 -27l-190 -1356q-1 -15 -13 -27t-26 -12h-201q-14 0 -22.5 12t-5.5 27zM469 1569q-94 0 -159.5 69.5t-65.5 171.5q0 18 11.5 30.5t29.5 12.5h75q19 0 23 -28q8 -49 34 -79t68 -30q41 0 77 32t54 77q12 28 35 28
h84q17 0 24.5 -12.5t4.5 -30.5q-30 -106 -109.5 -173.5t-185.5 -67.5z" />
    <glyph glyph-name="ibreve" unicode="&#x12d;" 
d="M332 1081q-97 0 -162.5 69.5t-65.5 172.5q0 19 12 32t29 13h74q10 0 17.5 -9t9.5 -20q6 -49 32 -78.5t70 -29.5q41 0 76 31t53 77q4 12 15 20.5t22 8.5h84q17 0 24.5 -13t4.5 -32q-32 -106 -111.5 -174t-183.5 -68zM45 39l105 741q3 17 14.5 28t25.5 11h181
q14 0 22.5 -11t7.5 -28l-104 -741q-1 -15 -14 -27t-27 -12h-180q-13 0 -23 12t-8 27z" />
    <glyph glyph-name="Iogonek" unicode="&#x12e;" horiz-adv-x="634" 
d="M109 39l190 1356q1 15 13 27t26 12h201q14 0 22.5 -12t5.5 -27l-190 -1356q-1 -15 -13 -27t-26 -12h-45q-113 -102 -113 -217q0 -49 27.5 -80t81.5 -31q15 0 29 3t30.5 8.5l22.5 7.5q17 5 27.5 -5.5t7.5 -29.5l-9 -62q-3 -25 -32 -38q-9 -6 -48 -13.5t-75 -7.5
q-89 0 -152 50.5t-63 140.5q0 153 137 274h-27q-14 0 -22.5 12t-5.5 27z" />
    <glyph glyph-name="iogonek" unicode="&#x12f;" 
d="M319 1110q-52 0 -85 35.5t-33 87.5q0 65 47.5 112.5t109.5 47.5q53 0 88 -36t35 -89q0 -64 -49 -111t-113 -47zM45 39l105 741q3 17 14.5 28t25.5 11h181q14 0 23.5 -11t6.5 -28l-104 -741q-1 -15 -14 -27t-27 -12h-31q-112 -102 -112 -217q0 -49 27 -80t81 -31
q15 0 29 3t30.5 8.5l22.5 7.5q17 5 27.5 -5.5t7.5 -29.5l-8 -62q-2 -25 -33 -38q-9 -6 -48 -13.5t-75 -7.5q-89 0 -152 50.5t-63 140.5q0 153 137 274h-20q-13 0 -23 12t-8 27z" />
    <glyph glyph-name="Idotaccent" unicode="&#x130;" horiz-adv-x="634" 
d="M109 39l190 1356q1 15 13 27t26 12h201q14 0 22.5 -12t5.5 -27l-190 -1356q-1 -15 -13 -27t-26 -12h-201q-14 0 -22.5 12t-5.5 27zM459 1599q-53 0 -87 37.5t-34 92.5q0 68 49 116.5t113 48.5q53 0 88 -37t35 -92q0 -68 -50 -117t-114 -49z" />
    <glyph glyph-name="dotlessi" unicode="&#x131;" 
d="M45 39l105 741q3 17 14.5 28t25.5 11h181q14 0 22.5 -11t7.5 -28l-104 -741q-1 -15 -14 -27t-27 -12h-180q-13 0 -23 12t-8 27z" />
    <glyph glyph-name="IJ" unicode="&#x132;" horiz-adv-x="1458" 
d="M109 39l190 1356q1 15 13 27t26 12h201q14 0 22.5 -12t5.5 -27l-190 -1356q-1 -15 -13 -27t-26 -12h-201q-14 0 -22.5 12t-5.5 27zM563 129q-15 24 12 51l95 92q24 24 51 -2q56 -49 121 -49q57 0 104 53.5t60 153.5l137 967q1 15 13 27t26 12h202q15 0 24 -12t7 -27
l-137 -967q-30 -221 -133.5 -334.5t-296.5 -113.5q-74 0 -138.5 29t-96 59.5t-50.5 60.5z" />
    <glyph glyph-name="ij" unicode="&#x133;" horiz-adv-x="976" 
d="M319 1110q-52 0 -85 35.5t-33 87.5q0 65 47.5 112.5t109.5 47.5q53 0 88 -36t35 -89q0 -64 -49 -111t-113 -47zM45 39l105 741q3 17 14.5 28t25.5 11h181q14 0 23.5 -11t6.5 -28l-104 -741q-1 -15 -14 -27t-27 -12h-180q-13 0 -23 12t-8 27zM807 1110q-52 0 -85.5 35.5
t-33.5 87.5q0 65 48 112.5t112 47.5q52 0 86.5 -36t34.5 -89q0 -64 -49 -111t-113 -47zM496 -221l139 1001q3 17 15 28t26 11h184q14 0 23 -11t6 -28l-146 -1020q-26 -189 -128.5 -292t-262.5 -103q-67 0 -133.5 27.5t-93.5 52.5q-9 9 -9 24t9 29l63 113q10 16 26 19.5
t26 -3.5q63 -33 108 -33q123 0 148 185z" />
    <glyph glyph-name="Jcircumflex" unicode="&#x134;" horiz-adv-x="825" 
d="M-72 129q-15 23 13 51l94 92q25 24 51 -2q56 -49 121 -49q57 0 104 53.5t60 153.5l137 967q2 15 14 27t25 12h203q15 0 23.5 -11.5t6.5 -27.5l-137 -967q-30 -221 -133.5 -334.5t-296.5 -113.5q-74 0 -138.5 29t-96 59.5t-50.5 60.5zM477 1567q-26 -16 -41 6l-45 67
q-19 27 10 48l275 206q23 17 43 0l217 -206q8 -7 10.5 -17.5t-4.5 -21.5l-59 -76q-19 -25 -41 -6l-160 127z" />
    <glyph glyph-name="jcircumflex" unicode="&#x135;" 
d="M6 -221l139 1001q3 17 15 28t26 11h185q14 0 22.5 -11t5.5 -28l-145 -1020q-26 -189 -128.5 -292t-262.5 -103q-67 0 -134 27.5t-94 52.5q-9 9 -9 24t9 29l64 113q10 16 25.5 19.5t25.5 -3.5q63 -33 109 -33q122 0 147 185zM88 1083l-45 68q-19 27 10 47l275 207
q23 17 43 0l217 -207q8 -7 10.5 -17.5t-4.5 -21.5l-59 -76q-19 -25 -41 -6l-160 127l-205 -127q-26 -16 -41 6z" />
    <glyph glyph-name="Kcommaaccent" unicode="&#x136;" horiz-adv-x="1255" 
d="M109 49l188 1335q3 21 17 35.5t34 14.5h193q19 0 29.5 -15t7.5 -35l-78 -553l481 566q18 21 35.5 29t48.5 8h203q26 0 33 -22.5t-13 -45.5l-559 -627l414 -676q11 -21 -2 -42t-39 -21h-187q-30 0 -45 8.5t-28 32.5l-365 633l-88 -625q-1 -20 -16 -34.5t-33 -14.5h-193
q-20 0 -30 14t-8 35zM403 -340q0 62 47 108t113 46q52 0 92.5 -43t40.5 -133q0 -63 -18 -124t-40.5 -102t-59 -84t-55 -60.5t-46.5 -41.5q-22 -19 -41 2l-28 33q-8 10 -4.5 22.5t14.5 22.5q2 2 16.5 15t28.5 26t34 36.5t35.5 47t29.5 55t20 63.5l-4 -1q-4 -1 -10.5 -2.5
t-14 -3t-18.5 -2.5t-21 -1q-47 0 -79 35t-32 86z" />
    <glyph glyph-name="kcommaaccent" unicode="&#x137;" horiz-adv-x="948" 
d="M45 39l191 1356q1 15 13.5 27t26.5 12h183q13 0 22.5 -12t7.5 -27l-124 -887l249 287q21 24 50 24h221q23 0 27.5 -19t-13.5 -36l-313 -330l268 -383q12 -17 2.5 -34t-33.5 -17h-213q-14 0 -26 16l-238 369l-47 -346q-3 -15 -15.5 -27t-25.5 -12h-184q-14 0 -23 12t-6 27
zM264 -340q0 62 47 108t113 46q52 0 92.5 -43t40.5 -133q0 -63 -18 -124t-40.5 -102t-59 -84t-55 -60.5t-46.5 -41.5q-22 -19 -41 2l-29 33q-8 10 -4 22.5t15 22.5q1 1 16 14.5t29 26.5t33.5 36.5t35 46.5t29.5 55t20 64l-4 -1l-10 -2.5t-14 -3t-18.5 -2.5t-20.5 -1
q-47 0 -79 35t-32 86z" />
    <glyph glyph-name="kgreenlandic" unicode="&#x138;" horiz-adv-x="931" 
d="M45 39l105 741q1 15 15 27t28 12h182q13 0 21.5 -12t6.5 -27l-45 -325l277 340q21 24 51 24h209q24 0 28 -21t-12 -38l-344 -375l246 -328q12 -17 1 -37t-34 -20h-202q-21 0 -29 16l-209 316l-41 -293q-1 -15 -14 -27t-27 -12h-182q-13 0 -23 12t-8 27z" />
    <glyph glyph-name="Lacute" unicode="&#x139;" horiz-adv-x="952" 
d="M109 39l190 1356q2 15 14 27t27 12h199q13 0 21.5 -12t6.5 -27l-161 -1149h452q14 0 22.5 -11.5t6.5 -27.5l-23 -168q-2 -15 -14 -27t-27 -12h-684q-15 0 -23.5 11.5t-6.5 27.5zM328 1573q-35 -15 -47 12l-33 80q-10 26 16 39l336 199q34 23 49 -11l49 -106
q8 -19 2.5 -34t-20.5 -21z" />
    <glyph glyph-name="lacute" unicode="&#x13a;" horiz-adv-x="491" 
d="M45 39l191 1356q1 15 13.5 27t26.5 12h181q13 0 22.5 -12t7.5 -27l-190 -1356q-1 -15 -14 -27t-27 -12h-182q-13 0 -22 12t-7 27zM254 1526q-35 -15 -47 12l-33 80q-10 26 16 39l336 198q35 23 49 -10l50 -106q8 -19 2 -34.5t-21 -21.5z" />
    <glyph glyph-name="Lcommaaccent" unicode="&#x13b;" horiz-adv-x="952" 
d="M109 39l190 1356q2 15 14 27t27 12h199q13 0 21.5 -12t6.5 -27l-161 -1149h452q14 0 22.5 -11.5t6.5 -27.5l-23 -168q-2 -15 -14 -27t-27 -12h-684q-15 0 -23.5 11.5t-6.5 27.5zM309 -340q0 62 47 108t113 46q52 0 92.5 -43t40.5 -133q0 -63 -18 -124t-40.5 -102t-59 -84
t-55 -60.5t-46.5 -41.5q-22 -19 -41 2l-29 33q-8 10 -4 22.5t15 22.5q1 1 16 14.5t29 26.5t33.5 36.5t35 46.5t29.5 55t20 64l-4 -1l-10 -2.5t-14 -3t-18.5 -2.5t-20.5 -1q-47 0 -79 35t-32 86z" />
    <glyph glyph-name="lcommaaccent" unicode="&#x13c;" horiz-adv-x="491" 
d="M43 39l190 1356q1 15 14 27t27 12h181q13 0 22.5 -12t7.5 -27l-190 -1356q-1 -15 -14 -27t-27 -12h-182q-13 0 -22 12t-7 27zM-25 -340q0 62 47 108t113 46q52 0 92.5 -43t40.5 -133q0 -63 -18 -124t-40.5 -102t-59 -84t-55 -60.5t-46.5 -41.5q-22 -19 -41 2l-28 33
q-8 10 -4.5 22.5t14.5 22.5q2 2 16.5 15t28.5 26t34 36.5t35.5 47t29.5 55t20 63.5l-4 -1q-4 -1 -10.5 -2.5t-14 -3t-18.5 -2.5t-21 -1q-47 0 -79 35t-32 86z" />
    <glyph glyph-name="Lcaron" unicode="&#x13d;" horiz-adv-x="952" 
d="M109 39l190 1356q2 15 14 27t27 12h199q13 0 21.5 -12t6.5 -27l-161 -1149h452q14 0 22.5 -11.5t6.5 -27.5l-23 -168q-2 -15 -14 -27t-27 -12h-684q-15 0 -23.5 11.5t-6.5 27.5zM690 1298q0 62 47 108t113 46q52 0 92.5 -43t40.5 -133q0 -63 -18 -124t-40.5 -102t-59 -84
t-55 -60.5t-46.5 -41.5q-22 -19 -41 2l-29 33q-8 10 -4 22.5t15 22.5q1 1 16 14.5t29 27t33.5 36.5t35 46.5t29.5 55.5t20 64l-4 -1l-10 -2.5t-14 -3t-18.5 -2.5t-20.5 -1q-47 0 -79 34.5t-32 85.5z" />
    <glyph glyph-name="lcaron" unicode="&#x13e;" horiz-adv-x="552" 
d="M45 39l191 1356q1 15 13.5 27t26.5 12h181q13 0 22.5 -12t7.5 -27l-190 -1356q-1 -15 -14 -27t-27 -12h-182q-13 0 -22 12t-7 27zM678 868l-29 33q-8 10 -4.5 22.5t14.5 22.5q1 1 16 14.5t29 27t34 36.5t35.5 46.5t29.5 55.5t20 64l-4 -1l-10 -2.5t-14 -3t-18.5 -2.5
t-20.5 -1q-47 0 -79 34.5t-32 85.5q0 62 47 108t113 46q52 0 92.5 -43t40.5 -133q0 -63 -18 -124t-40.5 -102t-59 -84t-55 -60.5t-46.5 -41.5q-22 -19 -41 2z" />
    <glyph glyph-name="Ldot" unicode="&#x13f;" horiz-adv-x="1081" 
d="M109 39l190 1356q2 15 14 27t27 12h199q13 0 21.5 -12t6.5 -27l-161 -1149h452q14 0 22.5 -11.5t6.5 -27.5l-23 -168q-2 -15 -14 -27t-27 -12h-684q-15 0 -23.5 11.5t-6.5 27.5zM891 582q-53 0 -87 37t-34 92q0 68 49 117t113 49q53 0 88 -37t35 -92q0 -68 -50 -117
t-114 -49z" />
    <glyph glyph-name="ldot" unicode="&#x140;" horiz-adv-x="755" 
d="M45 39l191 1356q1 15 13.5 27t26.5 12h181q13 0 22.5 -12t7.5 -27l-190 -1356q-1 -15 -14 -27t-27 -12h-182q-13 0 -22 12t-7 27zM627 590q-52 0 -86.5 37.5t-34.5 91.5q0 68 49.5 117t114.5 49q52 0 86.5 -37.5t34.5 -91.5q0 -68 -49.5 -117t-114.5 -49z" />
    <glyph glyph-name="Lslash" unicode="&#x141;" horiz-adv-x="970" 
d="M127 39l84 588l-47 -25q-12 -6 -25.5 -2.5t-19.5 16.5l-10 25q-5 13 0 28.5t18 22.5l100 56l90 647q3 16 15 27.5t26 11.5h199q13 0 22 -12t7 -27l-70 -492l164 105q14 8 26 3t19 -18l12 -26q6 -12 0 -27.5t-20 -24.5l-217 -135l-76 -534h453q15 0 23 -12t5 -27l-22 -168
q-2 -15 -14 -27t-27 -12h-684q-15 0 -24 12t-7 27z" />
    <glyph glyph-name="lslash" unicode="&#x142;" horiz-adv-x="516" 
d="M70 39l84 598l-60 -39q-14 -9 -27.5 -4.5t-19.5 18.5l-10 25q-5 12 0.5 28t17.5 23l115 70l90 637q1 15 14 27t27 12h180q13 0 23 -12t8 -27l-70 -490l113 76q14 9 28 4.5t19 -18.5l10 -27q5 -13 0 -27.5t-18 -23.5l-168 -107l-104 -743q-3 -15 -15.5 -27t-25.5 -12h-183
q-14 0 -22.5 12t-5.5 27z" />
    <glyph glyph-name="Nacute" unicode="&#x143;" horiz-adv-x="1464" 
d="M109 35l192 1382q1 15 13 26t26 11h53l625 -885h2l110 826q2 15 13 27t26 12h199q13 0 23 -12t8 -27l-195 -1379q-1 -15 -13 -25.5t-26 -10.5h-55l-623 911h-2l-110 -852q-2 -15 -14 -27t-27 -12h-197q-12 0 -20.5 11t-7.5 24zM737 1573q-35 -15 -47 12l-33 80
q-10 26 17 39l336 199q34 23 49 -11l49 -106q8 -19 2.5 -34t-20.5 -21z" />
    <glyph glyph-name="nacute" unicode="&#x144;" horiz-adv-x="995" 
d="M45 39l105 741q1 17 12.5 28t25.5 11h80q10 0 19 -7t10 -17l18 -76q135 121 277 121q108 0 179 -58.5t95 -149.5t8 -200l-55 -393q-1 -15 -13 -27t-26 -12h-178q-14 0 -22.5 11.5t-6.5 27.5l60 405q11 81 -16.5 127.5t-88.5 46.5q-30 0 -59 -11.5t-49 -28.5t-36 -34
t-24 -28l-8 -12l-65 -465q-3 -22 -12 -30.5t-31 -8.5h-170q-14 0 -23 12t-6 27zM463 1081q-22 -8 -31.5 -5t-15.5 18l-33 80q-9 25 16 38l336 199q35 23 49 -10l50 -107q8 -19 2 -33.5t-21 -21.5z" />
    <glyph glyph-name="Ncommaaccent" unicode="&#x145;" horiz-adv-x="1464" 
d="M109 35l192 1382q1 15 13 26t26 11h53l625 -885h2l110 826q2 15 13 27t26 12h199q13 0 23 -12t8 -27l-195 -1379q-1 -15 -13 -25.5t-26 -10.5h-55l-623 911h-2l-110 -852q-2 -15 -14 -27t-27 -12h-197q-12 0 -20.5 11t-7.5 24zM498 -340q0 62 47 108t112 46q52 0 93 -43
t41 -133q0 -63 -18.5 -124t-41 -102t-59 -84t-55 -60.5t-46.5 -41.5q-22 -19 -41 2l-28 33q-8 10 -4.5 22.5t14.5 22.5q2 2 16.5 15t28.5 26t34 36.5t35.5 47t29.5 55t20 63.5l-4 -1q-4 -1 -10.5 -2.5t-14 -3t-18.5 -2.5t-21 -1q-47 0 -78.5 35t-31.5 86z" />
    <glyph glyph-name="ncommaaccent" unicode="&#x146;" horiz-adv-x="997" 
d="M45 39l105 741q1 17 12.5 28t25.5 11h80q10 0 19 -7t10 -17l18 -76q135 121 277 121q108 0 179 -58.5t95 -149.5t8 -200l-55 -393q-1 -15 -13 -27t-26 -12h-178q-14 0 -22.5 11.5t-6.5 27.5l60 405q11 81 -16.5 127.5t-88.5 46.5q-30 0 -59 -11.5t-49 -28.5t-36 -34
t-24 -28l-8 -12l-65 -465q-3 -22 -12 -30.5t-31 -8.5h-170q-14 0 -23 12t-6 27zM248 -340q0 62 47 108t113 46q52 0 92.5 -43t40.5 -133q0 -63 -18 -124t-40.5 -102t-59 -84t-55 -60.5t-46.5 -41.5q-22 -19 -41 2l-29 33q-8 10 -4.5 22.5t14.5 22.5q2 2 16.5 15t28.5 26
t34 36.5t35.5 47t29.5 55t20 63.5l-4 -1q-4 -1 -10.5 -2.5t-14 -3t-18.5 -2.5t-21 -1q-47 0 -78.5 35t-31.5 86z" />
    <glyph glyph-name="Ncaron" unicode="&#x147;" horiz-adv-x="1464" 
d="M109 35l192 1382q1 15 13 26t26 11h53l625 -885h2l110 826q2 15 13 27t26 12h199q13 0 23 -12t8 -27l-195 -1379q-1 -15 -13 -25.5t-26 -10.5h-55l-623 911h-2l-110 -852q-2 -15 -14 -27t-27 -12h-197q-12 0 -20.5 11t-7.5 24zM840 1565l-217 207q-22 17 -7 38l60 76
q19 25 41 6l160 -127l204 127q26 16 41 -6l45 -67q19 -27 -10 -47l-274 -207q-23 -17 -43 0z" />
    <glyph glyph-name="ncaron" unicode="&#x148;" horiz-adv-x="995" 
d="M45 39l105 741q1 17 12.5 28t25.5 11h80q10 0 19 -7t10 -17l18 -76q135 121 277 121q108 0 179 -58.5t95 -149.5t8 -200l-55 -393q-1 -15 -13 -27t-26 -12h-178q-14 0 -22.5 11.5t-6.5 27.5l60 405q11 81 -16.5 127.5t-88.5 46.5q-30 0 -59 -11.5t-49 -28.5t-36 -34
t-24 -28l-8 -12l-65 -465q-3 -22 -12 -30.5t-31 -8.5h-170q-14 0 -23 12t-6 27zM565 1075l-217 207q-8 7 -10.5 17.5t4.5 21.5l59 76q19 25 41 6l160 -127l205 127q26 16 41 -6l45 -68q19 -27 -10 -47l-275 -207q-23 -17 -43 0z" />
    <glyph glyph-name="napostrophe" unicode="&#x149;" horiz-adv-x="995" 
d="M43 39l104 741q1 17 13 28t26 11h80q10 0 19 -7t10 -17l18 -76q135 121 277 121q108 0 179 -58.5t95 -149.5t8 -200l-55 -393q-1 -15 -13 -27t-26 -12h-178q-14 0 -22.5 11.5t-6.5 27.5l60 405q11 81 -16.5 127.5t-88.5 46.5q-30 0 -59 -11.5t-49 -28.5t-36 -34t-24 -28
l-8 -12l-65 -465q-3 -22 -12 -30.5t-31 -8.5h-170q-14 0 -23 12t-6 27zM-262 1300q0 62 47 108t113 46q52 0 92.5 -43t40.5 -133q0 -63 -18 -124t-40.5 -102t-59 -84t-55 -60.5t-46.5 -41.5q-22 -19 -41 2l-29 33q-8 10 -4.5 22.5t14.5 22.5q1 1 16 14.5t29 27t34 36.5
t35.5 46.5t29.5 55.5t20 64l-4 -1q-4 -1 -10.5 -2.5t-14 -3t-18.5 -2.5t-21 -1q-47 0 -78.5 34.5t-31.5 85.5z" />
    <glyph glyph-name="Eng" unicode="&#x14a;" horiz-adv-x="1466" 
d="M109 35l192 1382q1 15 13 26t26 11h53l625 -885h2l110 826q2 15 13 27t26 12h199q13 0 23 -12t8 -27l-228 -1616q-28 -201 -136.5 -307.5t-280.5 -106.5q-66 0 -127 26t-84 54q-7 7 -7 22t7 25l78 127q6 12 20.5 15t24.5 -5q46 -37 106 -37q114 0 139 187l56 397
l-480 715h-2l-110 -852q-2 -15 -14 -27t-27 -12h-197q-12 0 -20.5 11t-7.5 24z" />
    <glyph glyph-name="eng" unicode="&#x14b;" horiz-adv-x="995" 
d="M45 39l105 741q1 17 12.5 28t25.5 11h80q10 0 19 -7t10 -17l18 -76q135 121 277 121q108 0 179 -58.5t95 -149.5t8 -200l-92 -653q-27 -198 -140.5 -306t-276.5 -108q-66 0 -127 26t-84 54q-8 7 -8 22t8 25l77 127q6 12 20.5 15t24.5 -5q17 -13 48.5 -25t58.5 -12
q62 0 103 49t53 138l94 665q11 81 -16.5 127.5t-88.5 46.5q-30 0 -59 -11.5t-49 -28.5t-36 -34t-24 -28l-8 -12l-65 -465q-3 -22 -12 -30.5t-31 -8.5h-170q-14 0 -23 12t-6 27z" />
    <glyph glyph-name="Omacron" unicode="&#x14c;" horiz-adv-x="1505" 
d="M102 614q0 171 59 326t160 268t244 179.5t303 66.5q162 0 295 -87.5t207 -234t74 -319.5q0 -170 -59.5 -324t-161 -265.5t-244 -177.5t-301.5 -66q-163 0 -296 87.5t-206.5 232.5t-73.5 314zM707 246q88 0 172 42.5t147.5 114t102 171t38.5 206.5q0 169 -93 288.5
t-236 119.5q-87 0 -171 -43.5t-147 -116t-102 -173t-39 -206.5q0 -169 93 -286t235 -117zM651 1655q-15 0 -23.5 11t-6.5 26l10 69q3 17 14.5 28t26.5 11h473q15 0 23.5 -11t5.5 -28l-11 -69q-1 -15 -13.5 -26t-27.5 -11h-471z" />
    <glyph glyph-name="omacron" unicode="&#x14d;" horiz-adv-x="890" 
d="M37 354q0 129 59.5 241t162.5 178.5t224 66.5q139 0 232.5 -110t93.5 -263q0 -130 -61 -242.5t-164 -178.5t-222 -66q-139 0 -232 111t-93 263zM393 201q74 0 131.5 72t57.5 171q0 74 -36 124t-93 50q-76 0 -133.5 -71t-57.5 -168q0 -75 36 -126.5t95 -51.5zM289 1167
q-15 0 -23 11t-6 26l8 70q1 17 13.5 28t27.5 11h473q14 0 23 -11t6 -28l-10 -70q-2 -15 -13 -26t-26 -11h-473z" />
    <glyph glyph-name="Obreve" unicode="&#x14e;" horiz-adv-x="1505" 
d="M102 614q0 171 59 326t160 268t244 179.5t303 66.5q162 0 295 -87.5t207 -234t74 -319.5q0 -170 -59.5 -324t-161 -265.5t-244 -177.5t-301.5 -66q-163 0 -296 87.5t-206.5 232.5t-73.5 314zM707 246q88 0 172 42.5t147.5 114t102 171t38.5 206.5q0 169 -93 288.5
t-236 119.5q-87 0 -171 -43.5t-147 -116t-102 -173t-39 -206.5q0 -169 93 -286t235 -117zM877 1569q-94 0 -160 69.5t-66 171.5q0 18 11.5 30.5t29.5 12.5h76q19 0 23 -28q8 -49 34 -79t68 -30q41 0 77 32t54 77q12 28 35 28h84q17 0 24 -12.5t4 -30.5q-30 -106 -109 -173.5
t-185 -67.5z" />
    <glyph glyph-name="obreve" unicode="&#x14f;" horiz-adv-x="890" 
d="M37 354q0 129 59.5 241t162.5 178.5t224 66.5q139 0 232.5 -110t93.5 -263q0 -130 -61 -242.5t-164 -178.5t-222 -66q-139 0 -232 111t-93 263zM393 201q74 0 131.5 72t57.5 171q0 74 -36 124t-93 50q-76 0 -133.5 -71t-57.5 -168q0 -75 36 -126.5t95 -51.5zM524 1081
q-97 0 -162 69.5t-65 172.5q0 19 12 32t29 13h74q10 0 17 -9t9 -20q6 -49 32.5 -78.5t70.5 -29.5q41 0 76 31t53 77q4 12 15 20.5t22 8.5h84q17 0 24 -12.5t4 -32.5q-32 -106 -111.5 -174t-183.5 -68z" />
    <glyph glyph-name="Ohungarumlaut" unicode="&#x150;" horiz-adv-x="1505" 
d="M102 614q0 171 59 326t160 268t244 179.5t303 66.5q162 0 295 -87.5t207 -234t74 -319.5q0 -170 -59.5 -324t-161 -265.5t-244 -177.5t-301.5 -66q-163 0 -296 87.5t-206.5 232.5t-73.5 314zM707 246q88 0 172 42.5t147.5 114t102 171t38.5 206.5q0 169 -93 288.5
t-236 119.5q-87 0 -171 -43.5t-147 -116t-102 -173t-39 -206.5q0 -169 93 -286t235 -117zM993 1573q-14 0 -24 12.5t-4 26.5l100 289q13 38 47 38h154q26 0 32 -15.5t-8 -35.5l-182 -284q-19 -31 -45 -31h-70zM688 1573q-14 0 -24.5 12.5t-4.5 26.5l101 289q13 38 47 38h154
q26 0 32 -15.5t-8 -35.5l-182 -284q-19 -31 -45 -31h-70z" />
    <glyph glyph-name="ohungarumlaut" unicode="&#x151;" horiz-adv-x="890" 
d="M37 354q0 129 59.5 241t162.5 178.5t224 66.5q139 0 232.5 -110t93.5 -263q0 -130 -61 -242.5t-164 -178.5t-222 -66q-139 0 -232 111t-93 263zM393 201q74 0 131.5 72t57.5 171q0 74 -36 124t-93 50q-76 0 -133.5 -71t-57.5 -168q0 -75 36 -126.5t95 -51.5zM627 1067
q-14 0 -24.5 12.5t-4.5 26.5l100 289q14 39 47 39h154q26 0 32.5 -16t-7.5 -36l-183 -284q-19 -31 -45 -31h-69zM322 1067q-14 0 -24.5 12.5t-4.5 26.5l100 289q14 39 47 39h154q25 0 31.5 -16t-7.5 -36l-182 -284q-19 -31 -45 -31h-69z" />
    <glyph glyph-name="OE" unicode="&#x152;" horiz-adv-x="1835" 
d="M102 614q0 171 61 326t164 268t247 179.5t303 66.5q43 0 88.5 -5t69.5 -10l24 -5h758q13 0 21.5 -12t6.5 -27l-24 -168q-2 -15 -13 -27t-26 -12h-527l-47 -336h437q13 0 21.5 -12t6.5 -27l-24 -170q-3 -17 -14 -28t-25 -11h-436l-52 -358h527q14 0 22 -11.5t6 -27.5
l-22 -168q-2 -15 -14 -27t-27 -12h-758q-102 -20 -186 -20q-152 0 -283 84.5t-208 230.5t-77 319zM707 242q87 0 153 26l125 895q-73 29 -145 29q-117 0 -224.5 -74t-174 -200.5t-66.5 -268.5q0 -168 94.5 -287.5t237.5 -119.5z" />
    <glyph glyph-name="oe" unicode="&#x153;" horiz-adv-x="1339" 
d="M39 356q0 131 55 241t156.5 176.5t228.5 66.5q72 0 136 -34.5t106 -94.5q53 59 134 94t167 35q126 0 199 -60.5t73 -156.5q0 -74 -50 -131t-130 -88t-164.5 -46t-169.5 -16q-5 -67 28.5 -108t106.5 -41q35 0 76.5 14.5t69.5 34.5q33 22 47 0l68 -97q8 -10 6.5 -25.5
t-13.5 -27.5q-122 -112 -292 -112q-152 0 -244 133q-113 -133 -262 -133q-144 0 -238 110.5t-94 265.5zM815 502q55 1 109.5 10.5t98.5 32t44 53.5q0 23 -18 37t-52 14q-58 0 -111 -45.5t-71 -101.5zM395 201q76 0 134.5 73t58.5 172q0 73 -37.5 122.5t-95.5 49.5
q-76 0 -134.5 -69.5t-58.5 -167.5q0 -75 37.5 -127.5t95.5 -52.5z" />
    <glyph glyph-name="Racute" unicode="&#x154;" horiz-adv-x="1277" 
d="M109 39l190 1356q1 15 13 27t26 12h541q149 0 247.5 -111.5t98.5 -271.5q0 -182 -87.5 -304t-238.5 -169l168 -525q6 -21 -3.5 -37t-31.5 -16h-194q-37 0 -45 33l-150 528h-194l-74 -522q-1 -15 -13 -27t-26 -12h-199q-15 0 -23 12t-5 27zM481 780h256q95 0 155 69.5
t60 168.5q0 70 -38.5 120t-94.5 50h-280zM625 1573q-35 -15 -47 12l-33 80q-10 26 16 39l336 199q34 23 49 -11l49 -106q8 -19 2.5 -34t-20.5 -21z" />
    <glyph glyph-name="racute" unicode="&#x155;" horiz-adv-x="663" 
d="M45 39l105 741q1 17 12.5 28t25.5 11h80q9 0 18.5 -8t12.5 -18l18 -80q32 44 92.5 85.5t129.5 41.5q82 0 129 -33q22 -15 4 -49l-76 -133q-16 -29 -43 -17q-29 13 -70 13q-34 0 -65 -21.5t-46 -43.5l-14 -21l-69 -496q-5 -39 -47 -39h-168q-14 0 -23 12t-6 27zM291 1081
q-22 -8 -31.5 -5t-15.5 18l-33 80q-9 25 16 38l336 199q35 23 49 -10l50 -107q8 -19 2 -33.5t-21 -21.5z" />
    <glyph glyph-name="Rcommaaccent" unicode="&#x156;" horiz-adv-x="1275" 
d="M109 39l190 1356q1 15 13 27t26 12h541q149 0 247.5 -111.5t98.5 -271.5q0 -182 -87.5 -304t-238.5 -169l168 -525q6 -21 -3.5 -37t-31.5 -16h-194q-37 0 -45 33l-150 528h-194l-74 -522q-1 -15 -13 -27t-26 -12h-199q-15 0 -23 12t-5 27zM481 780h256q95 0 155 69.5
t60 168.5q0 70 -38.5 120t-94.5 50h-280zM385 -340q0 62 47 108t113 46q52 0 92.5 -43t40.5 -133q0 -63 -18 -124t-40.5 -102t-59 -84t-55 -60.5t-46.5 -41.5q-22 -19 -41 2l-29 33q-8 10 -4.5 22.5t14.5 22.5q2 2 16.5 15t28.5 26t34 36.5t35.5 47t29.5 55t20 63.5l-4 -1
l-10 -2.5t-14 -3t-18.5 -2.5t-20.5 -1q-47 0 -79 35t-32 86z" />
    <glyph glyph-name="rcommaaccent" unicode="&#x157;" horiz-adv-x="663" 
d="M43 39l104 741q1 17 13 28t26 11h80q9 0 18.5 -8t12.5 -18l18 -80q32 44 92.5 85.5t129.5 41.5q82 0 129 -33q22 -15 4 -49l-76 -133q-16 -29 -43 -17q-29 13 -70 13q-34 0 -65 -21.5t-46 -43.5l-14 -21l-69 -496q-5 -39 -47 -39h-168q-14 0 -23 12t-6 27zM-23 -340
q0 62 47 108t113 46q52 0 92.5 -43t40.5 -133q0 -63 -18 -124t-40.5 -102t-59 -84t-55 -60.5t-46.5 -41.5q-22 -19 -41 2l-28 33q-8 10 -4.5 22.5t14.5 22.5q2 2 16.5 15t28.5 26t34 36.5t35.5 47t29.5 55t20 63.5l-4 -1q-4 -1 -10.5 -2.5t-14 -3t-18.5 -2.5t-21 -1
q-47 0 -79 35t-32 86z" />
    <glyph glyph-name="Rcaron" unicode="&#x158;" horiz-adv-x="1277" 
d="M109 39l190 1356q1 15 13 27t26 12h541q149 0 247.5 -111.5t98.5 -271.5q0 -182 -87.5 -304t-238.5 -169l168 -525q6 -21 -3.5 -37t-31.5 -16h-194q-37 0 -45 33l-150 528h-194l-74 -522q-1 -15 -13 -27t-26 -12h-199q-15 0 -23 12t-5 27zM481 780h256q95 0 155 69.5
t60 168.5q0 70 -38.5 120t-94.5 50h-280zM725 1565l-217 207q-21 17 -6 38l59 76q19 25 41 6l160 -127l205 127q26 16 41 -6l45 -67q18 -26 -11 -47l-274 -207q-23 -17 -43 0z" />
    <glyph glyph-name="rcaron" unicode="&#x159;" horiz-adv-x="663" 
d="M45 39l105 741q1 17 12.5 28t25.5 11h80q9 0 18.5 -8t12.5 -18l18 -80q32 44 92.5 85.5t129.5 41.5q82 0 129 -33q22 -15 4 -49l-76 -133q-16 -29 -43 -17q-29 13 -70 13q-34 0 -65 -21.5t-46 -43.5l-14 -21l-69 -496q-5 -39 -47 -39h-168q-14 0 -23 12t-6 27zM401 1075
l-217 207q-8 7 -10.5 17.5t4.5 21.5l60 76q19 25 41 6l159 -127l205 127q26 16 41 -6l45 -68q19 -27 -10 -47l-275 -207q-23 -17 -43 0z" />
    <glyph glyph-name="Sacute" unicode="&#x15a;" horiz-adv-x="1038" 
d="M55 139q-26 26 0 62l80 116q12 20 32.5 20.5t31.5 -11.5q124 -107 254 -107q72 0 127 50t55 124q0 64 -41.5 114t-134.5 111q-40 26 -69 47t-66.5 52t-63 62.5t-49 70t-35.5 83.5t-12 95q0 80 28 153.5t82 135.5t145.5 99.5t207.5 37.5q124 0 223 -45.5t141 -87.5
q37 -37 6 -82l-79 -113q-12 -19 -31 -20t-41 16q-38 31 -101 60.5t-131 29.5q-75 0 -124.5 -48t-49.5 -111q0 -57 37.5 -96.5t140.5 -108.5q125 -84 176 -131q140 -130 140 -297q0 -186 -134.5 -313t-355.5 -127q-74 0 -144 19t-119 47.5t-79.5 51.5t-46.5 41zM541 1573
q-35 -15 -47 12l-33 80q-10 26 16 39l336 199q34 23 49 -11l49 -106q8 -19 2.5 -34t-20.5 -21z" />
    <glyph glyph-name="sacute" unicode="&#x15b;" horiz-adv-x="704" 
d="M23 59q-22 19 -3 50l68 104q6 11 21 14t26 -4q61 -39 148 -39q28 0 46.5 13t18.5 34q0 31 -21.5 53t-88.5 62q-83 46 -124.5 100.5t-41.5 137.5q0 110 74 183t235 73q76 0 139 -21.5t96 -46.5q13 -10 17 -26.5t-6 -32.5l-70 -103q-8 -11 -22.5 -14.5t-30.5 6.5
q-56 31 -137 31q-66 0 -66 -47q0 -22 18 -38.5t64 -41.5q54 -30 87 -52t65.5 -53.5t47.5 -69.5t15 -85q0 -112 -85 -189t-239 -77q-156 0 -251 79zM297 1081q-22 -8 -31.5 -5t-15.5 18l-33 80q-9 25 16 38l336 199q35 23 49 -10l50 -107q8 -19 2 -33.5t-21 -21.5z" />
    <glyph glyph-name="Scircumflex" unicode="&#x15c;" horiz-adv-x="1038" 
d="M55 139q-26 26 0 62l80 116q12 20 32.5 20.5t31.5 -11.5q124 -107 254 -107q72 0 127 50t55 124q0 64 -41.5 114t-134.5 111q-40 26 -69 47t-66.5 52t-63 62.5t-49 70t-35.5 83.5t-12 95q0 80 28 153.5t82 135.5t145.5 99.5t207.5 37.5q124 0 223 -45.5t141 -87.5
q37 -37 6 -82l-79 -113q-12 -19 -31 -20t-41 16q-38 31 -101 60.5t-131 29.5q-75 0 -124.5 -48t-49.5 -111q0 -57 37.5 -96.5t140.5 -108.5q125 -84 176 -131q140 -130 140 -297q0 -186 -134.5 -313t-355.5 -127q-74 0 -144 19t-119 47.5t-79.5 51.5t-46.5 41zM477 1567
q-26 -16 -41 6l-45 67q-19 27 10 48l275 206q23 17 43 0l217 -206q8 -7 10.5 -17.5t-4.5 -21.5l-59 -76q-19 -25 -41 -6l-160 127z" />
    <glyph glyph-name="scircumflex" unicode="&#x15d;" horiz-adv-x="704" 
d="M23 59q-22 19 -3 50l68 104q6 11 21 14t26 -4q61 -39 148 -39q28 0 46.5 13t18.5 34q0 31 -21.5 53t-88.5 62q-83 46 -124.5 100.5t-41.5 137.5q0 110 74 183t235 73q76 0 139 -21.5t96 -46.5q13 -10 17 -26.5t-6 -32.5l-70 -103q-8 -11 -22.5 -14.5t-30.5 6.5
q-56 31 -137 31q-66 0 -66 -47q0 -22 18 -38.5t64 -41.5q54 -30 87 -52t65.5 -53.5t47.5 -69.5t15 -85q0 -112 -85 -189t-239 -77q-156 0 -251 79zM193 1083l-46 68q-18 26 11 47l274 207q23 17 43 0l217 -207q8 -7 10.5 -17.5t-4.5 -21.5l-59 -76q-19 -25 -41 -6l-160 127
l-205 -127q-18 -9 -25 -7.5t-15 13.5z" />
    <glyph glyph-name="Scedilla" unicode="&#x15e;" horiz-adv-x="1040" 
d="M57 139q-26 26 0 62l80 116q12 20 32.5 20.5t31.5 -11.5q124 -107 254 -107q72 0 127 50t55 124q0 64 -41.5 114t-134.5 111q-40 26 -69 47t-66.5 52t-63 62.5t-49 70t-35.5 83.5t-12 95q0 80 28 153.5t82 135.5t145.5 99.5t207.5 37.5q124 0 223 -45.5t141 -87.5
q37 -37 6 -82l-79 -113q-12 -19 -31 -20t-41 16q-38 31 -101 60.5t-131 29.5q-75 0 -124.5 -48t-49.5 -111q0 -57 37.5 -96.5t141.5 -108.5q125 -84 177 -132q137 -130 138 -296q0 -90 -34 -169.5t-95.5 -139.5t-153.5 -95t-202 -36l-13 -91q67 -9 107.5 -58t40.5 -126
q0 -98 -60.5 -167.5t-156.5 -69.5q-45 0 -84 20t-58 51q-9 14 -4.5 30t19.5 28l37 34q20 20 38 -2q20 -24 54 -24q29 0 50 25.5t21 64.5q0 76 -116 86q-18 3 -23.5 14.5t-3.5 22.5l25 176q-94 22 -167 67t-100 78z" />
    <glyph glyph-name="scedilla" unicode="&#x15f;" horiz-adv-x="708" 
d="M25 59q-10 9 -10 23t8 27l67 104q6 11 21 14t26 -4q61 -39 148 -39q28 0 46.5 13t18.5 34q0 31 -21.5 53t-88.5 62q-83 46 -124.5 100.5t-41.5 137.5q0 110 74 183t235 73q76 0 139 -21.5t96 -46.5q13 -10 17 -26.5t-6 -32.5l-70 -103q-8 -11 -22.5 -14.5t-30.5 6.5
q-56 31 -137 31q-66 0 -66 -47q0 -22 18 -38.5t64 -41.5q54 -30 87 -52t65.5 -53.5t47.5 -69.5t15 -85q0 -107 -77.5 -182t-219.5 -82l-12 -93q67 -9 107 -58t40 -126q0 -98 -60.5 -167.5t-156.5 -69.5q-45 0 -83.5 20t-57.5 51q-9 14 -5 30t19 28l37 34q20 20 39 -2
q20 -24 53 -24q29 0 50.5 25.5t21.5 64.5q0 76 -117 86q-32 5 -26 37l24 172q-88 18 -151 69z" />
    <glyph glyph-name="Scaron" unicode="&#x160;" horiz-adv-x="1038" 
d="M55 139q-26 26 0 62l80 116q12 20 32.5 20.5t31.5 -11.5q124 -107 254 -107q72 0 127 50t55 124q0 64 -41.5 114t-134.5 111q-40 26 -69 47t-66.5 52t-63 62.5t-49 70t-35.5 83.5t-12 95q0 80 28 153.5t82 135.5t145.5 99.5t207.5 37.5q124 0 223 -45.5t141 -87.5
q37 -37 6 -82l-79 -113q-12 -19 -31 -20t-41 16q-38 31 -101 60.5t-131 29.5q-75 0 -124.5 -48t-49.5 -111q0 -57 37.5 -96.5t140.5 -108.5q125 -84 176 -131q140 -130 140 -297q0 -186 -134.5 -313t-355.5 -127q-74 0 -144 19t-119 47.5t-79.5 51.5t-46.5 41zM643 1565
l-217 207q-21 17 -6 38l59 76q19 25 41 6l160 -127l205 127q26 16 41 -6l45 -67q19 -27 -10 -47l-275 -207q-23 -17 -43 0z" />
    <glyph glyph-name="scaron" unicode="&#x161;" horiz-adv-x="704" 
d="M23 59q-22 19 -3 50l68 104q6 11 21 14t26 -4q61 -39 148 -39q28 0 46.5 13t18.5 34q0 31 -21.5 53t-88.5 62q-83 46 -124.5 100.5t-41.5 137.5q0 110 74 183t235 73q76 0 139 -21.5t96 -46.5q13 -10 17 -26.5t-6 -32.5l-70 -103q-8 -11 -22.5 -14.5t-30.5 6.5
q-56 31 -137 31q-66 0 -66 -47q0 -22 18 -38.5t64 -41.5q54 -30 87 -52t65.5 -53.5t47.5 -69.5t15 -85q0 -112 -85 -189t-239 -77q-156 0 -251 79zM399 1075l-217 207q-8 7 -10.5 17.5t4.5 21.5l60 76q19 25 40 6l160 -127l205 127q26 16 41 -6l45 -68q19 -27 -10 -47
l-275 -207q-23 -17 -43 0z" />
    <glyph glyph-name="Tcommaaccent" unicode="&#x162;" horiz-adv-x="935" 
d="M256 39l162 1149h-271q-15 0 -23.5 11.5t-6.5 27.5l24 168q1 15 13 27t26 12h813q15 0 24 -12t7 -27l-25 -168q-2 -15 -14 -27t-27 -12h-270l-162 -1149q-1 -15 -14 -27t-27 -12h-198q-13 0 -23 12t-8 27zM197 -340q0 62 47 108t112 46q52 0 92.5 -43t40.5 -133
q0 -63 -18 -124t-40.5 -102t-59 -84t-55 -60.5t-46.5 -41.5q-22 -19 -41 2l-28 33q-8 10 -4.5 22.5t14.5 22.5q2 2 16.5 15t28.5 26t34 36.5t35.5 47t29.5 55t20 63.5l-4 -1q-4 -1 -10.5 -2.5t-14 -3t-18.5 -2.5t-21 -1q-47 0 -78.5 35t-31.5 86z" />
    <glyph glyph-name="tcommaaccent" unicode="&#x163;" horiz-adv-x="677" 
d="M121 244l51 360h-74q-13 0 -21.5 12t-6.5 27l18 137q3 17 14 28t25 11h76l30 228q3 15 15.5 26.5t25.5 11.5l179 2q13 0 21 -11.5t5 -26.5l-30 -230h147q15 0 23.5 -11t5.5 -28l-19 -137q-3 -16 -14.5 -27.5t-26.5 -11.5h-147l-47 -323q-9 -66 45 -66q20 0 82 25
q15 6 25.5 -1t13.5 -22l20 -135q6 -30 -31 -49q-19 -12 -93 -32.5t-134 -20.5q-105 0 -150 69t-28 195zM129 -340q0 62 47 108t113 46q52 0 92.5 -43t40.5 -133q0 -63 -18 -124t-40.5 -102t-59 -84t-55 -60.5t-46.5 -41.5q-22 -19 -41 2l-29 33q-8 10 -4.5 22.5t14.5 22.5
q2 2 16.5 15t28.5 26t34 36.5t35.5 47t29.5 55t20 63.5l-4 -1l-10 -2.5t-14 -3t-18.5 -2.5t-20.5 -1q-47 0 -79 35t-32 86z" />
    <glyph glyph-name="Tcaron" unicode="&#x164;" horiz-adv-x="935" 
d="M256 39l162 1149h-271q-15 0 -23.5 11.5t-6.5 27.5l24 168q1 15 13 27t26 12h813q15 0 24 -12t7 -27l-25 -168q-2 -15 -14 -27t-27 -12h-270l-162 -1149q-1 -15 -14 -27t-27 -12h-198q-13 0 -23 12t-8 27zM586 1565l-217 207q-22 17 -7 38l60 76q19 25 41 6l160 -127
l204 127q26 16 41 -6l45 -67q19 -27 -10 -47l-274 -207q-23 -17 -43 0z" />
    <glyph glyph-name="tcaron" unicode="&#x165;" horiz-adv-x="675" 
d="M121 244l51 360h-74q-13 0 -21.5 12t-6.5 27l18 137q3 17 14 28t25 11h76l30 228q3 15 15.5 26.5t25.5 11.5l179 2q13 0 21 -11.5t5 -26.5l-30 -230h147q15 0 23.5 -11t5.5 -28l-19 -137q-3 -16 -14.5 -27.5t-26.5 -11.5h-147l-47 -323q-9 -66 45 -66q20 0 82 25
q15 6 25.5 -1t13.5 -22l20 -135q6 -30 -31 -49q-19 -12 -93 -32.5t-134 -20.5q-105 0 -150 69t-28 195zM797 868l-29 33q-8 10 -4.5 22.5t14.5 22.5q1 1 16 14.5t29 27t34 36.5t35.5 46.5t29.5 55.5t20 64l-4 -1q-4 -1 -10.5 -2.5t-14 -3t-18.5 -2.5t-21 -1
q-47 0 -78.5 34.5t-31.5 85.5q0 62 47 108t113 46q52 0 92.5 -43t40.5 -133q0 -63 -18 -124t-40.5 -102t-59 -84t-55 -60.5t-46.5 -41.5q-22 -19 -41 2z" />
    <glyph glyph-name="Tbar" unicode="&#x166;" horiz-adv-x="935" 
d="M258 39l78 557h-160q-13 0 -21 12t-5 27l4 27q3 16 13 27t23 11h160l70 488h-270q-15 0 -24 12t-7 27l24 168q1 15 13 27t26 12h813q15 0 24 -12t7 -27l-25 -168q-2 -15 -13.5 -27t-26.5 -12h-271l-69 -488h165q15 0 24 -11.5t7 -26.5l-4 -29q-1 -15 -13.5 -26t-27.5 -11
h-166l-78 -557q-1 -15 -14 -27t-27 -12h-198q-13 0 -23 12t-8 27z" />
    <glyph glyph-name="tbar" unicode="&#x167;" horiz-adv-x="675" 
d="M121 244l14 104h-51q-13 0 -21 12t-6 27l4 31q1 15 12 25t25 10h52l22 151h-74q-13 0 -21.5 12t-6.5 27l18 137q3 17 14 28t25 11h76l30 228q3 15 15.5 26.5t25.5 11.5l179 2q13 0 21 -11.5t5 -26.5l-30 -230h147q15 0 23.5 -11t5.5 -28l-19 -137q-3 -16 -14.5 -27.5
t-26.5 -11.5h-147l-23 -151h144q14 0 22 -11.5t6 -27.5l-4 -29q-2 -15 -13 -26t-26 -11h-143l-10 -67q-9 -66 45 -66q20 0 82 25q15 6 25.5 -1t13.5 -22l20 -135q6 -30 -31 -49q-19 -12 -93 -32.5t-134 -20.5q-105 0 -150 69t-28 195z" />
    <glyph glyph-name="Utilde" unicode="&#x168;" horiz-adv-x="1370" 
d="M162 543l121 852q1 15 14 27t27 12h202q15 0 24 -12t7 -27l-119 -838q-19 -131 37.5 -219t163.5 -88q108 0 190 87.5t101 217.5l119 840q2 15 14 27t27 12h202q13 0 23 -12t8 -27l-121 -852q-22 -156 -102 -283.5t-210.5 -203.5t-287.5 -76q-140 0 -249 75.5t-160.5 205
t-30.5 282.5zM608 1616l-55 43q-20 20 -4 47q11 23 25.5 45.5t41.5 54.5t64 52t78 20q31 0 59.5 -17.5t46.5 -39t41 -39t45 -17.5q35 0 66 64q9 19 26 25t35 -5l47 -37q27 -19 4 -67q-9 -19 -23.5 -41.5t-39.5 -50.5t-60 -46t-73 -18q-32 0 -63.5 18t-51.5 39.5t-42.5 39.5
t-39.5 18q-18 0 -35 -16t-23.5 -27.5t-19.5 -36.5q-6 -12 -21.5 -15t-27.5 7z" />
    <glyph glyph-name="utilde" unicode="&#x169;" horiz-adv-x="966" 
d="M342 -20q-81 0 -139.5 33.5t-87 89.5t-39 129t3.5 151l57 397q1 17 13 28t26 11h178q14 0 23 -11t6 -28l-57 -403q-11 -82 13.5 -129t76.5 -47q28 0 54.5 12t44 29t30.5 34t19 29l7 12l64 463q8 39 45 39h168q14 0 23 -11t6 -28l-103 -741q-1 -15 -14 -27t-27 -12h-80
q-22 0 -30 31l-15 67q-108 -118 -266 -118zM346 1151l-55 43q-20 20 -4 47q11 23 25.5 45.5t41.5 54.5t64 52t78 20q31 0 59.5 -17.5t46.5 -39t41 -39t45 -17.5q35 0 66 64q9 19 26 25t35 -5l47 -36q28 -19 4 -68q-9 -19 -23.5 -41.5t-39.5 -50.5t-60 -46t-73 -18
q-32 0 -63.5 18t-51.5 39.5t-42.5 39.5t-39.5 18q-18 0 -35 -16t-23.5 -27.5t-19.5 -36.5q-6 -12 -21.5 -15t-27.5 7z" />
    <glyph glyph-name="Umacron" unicode="&#x16a;" horiz-adv-x="1370" 
d="M162 543l121 852q1 15 14 27t27 12h202q15 0 24 -12t7 -27l-119 -838q-19 -131 37.5 -219t163.5 -88q108 0 190 87.5t101 217.5l119 840q2 15 14 27t27 12h202q13 0 23 -12t8 -27l-121 -852q-22 -156 -102 -283.5t-210.5 -203.5t-287.5 -76q-140 0 -249 75.5t-160.5 205
t-30.5 282.5zM596 1655q-15 0 -24 11t-7 26l10 69q3 17 14.5 28t26.5 11h474q15 0 23 -11t5 -28l-10 -69q-1 -15 -13.5 -26t-27.5 -11h-471z" />
    <glyph glyph-name="umacron" unicode="&#x16b;" horiz-adv-x="966" 
d="M342 -20q-81 0 -139.5 33.5t-87 89.5t-39 129t3.5 151l57 397q1 17 13 28t26 11h178q14 0 23 -11t6 -28l-57 -403q-11 -82 13.5 -129t76.5 -47q28 0 54.5 12t44 29t30.5 34t19 29l7 12l64 463q8 39 45 39h168q14 0 23 -11t6 -28l-103 -741q-1 -15 -14 -27t-27 -12h-80
q-22 0 -30 31l-15 67q-108 -118 -266 -118zM330 1167q-15 0 -23 11t-6 26l8 70q1 17 13.5 28t27.5 11h473q14 0 23 -11t6 -28l-10 -70q-2 -15 -13 -26t-26 -11h-473z" />
    <glyph glyph-name="Ubreve" unicode="&#x16c;" horiz-adv-x="1370" 
d="M162 543l121 852q1 15 14 27t27 12h202q15 0 24 -12t7 -27l-119 -838q-19 -131 37.5 -219t163.5 -88q108 0 190 87.5t101 217.5l119 840q2 15 14 27t27 12h202q13 0 23 -12t8 -27l-121 -852q-22 -156 -102 -283.5t-210.5 -203.5t-287.5 -76q-140 0 -249 75.5t-160.5 205
t-30.5 282.5zM803 1569q-94 0 -159.5 69.5t-65.5 171.5q0 18 11 30.5t29 12.5h76q19 0 23 -28q8 -49 34 -79t68 -30q41 0 77 32t54 77q12 28 35 28h84q17 0 24.5 -12.5t4.5 -30.5q-30 -106 -109.5 -173.5t-185.5 -67.5z" />
    <glyph glyph-name="ubreve" unicode="&#x16d;" horiz-adv-x="966" 
d="M342 -20q-81 0 -139.5 33.5t-87 89.5t-39 129t3.5 151l57 397q1 17 13 28t26 11h178q14 0 23 -11t6 -28l-57 -403q-11 -82 13.5 -129t76.5 -47q28 0 54.5 12t44 29t30.5 34t19 29l7 12l64 463q8 39 45 39h168q14 0 23 -11t6 -28l-103 -741q-1 -15 -14 -27t-27 -12h-80
q-22 0 -30 31l-15 67q-108 -118 -266 -118zM567 1081q-97 0 -162 69.5t-65 172.5q0 19 12 32t29 13h74q10 0 17 -9t9 -20q6 -49 32.5 -78.5t70.5 -29.5q41 0 76 31t53 77q4 12 15 20.5t22 8.5h84q17 0 24 -12.5t4 -32.5q-32 -106 -111.5 -174t-183.5 -68z" />
    <glyph glyph-name="Uring" unicode="&#x16e;" horiz-adv-x="1370" 
d="M162 543l121 852q1 15 14 27t27 12h202q15 0 24 -12t7 -27l-119 -838q-19 -131 37.5 -219t163.5 -88q108 0 190 87.5t101 217.5l119 840q2 15 14 27t27 12h202q13 0 23 -12t8 -27l-121 -852q-22 -156 -102 -283.5t-210.5 -203.5t-287.5 -76q-140 0 -249 75.5t-160.5 205
t-30.5 282.5zM819 1544q-79 0 -130.5 58.5t-51.5 142.5q0 109 71.5 185.5t174.5 76.5q77 0 128.5 -58.5t51.5 -142.5q0 -108 -72 -185t-172 -77zM836 1673q37 0 67.5 35.5t30.5 79.5q0 36 -20 61t-50 25q-37 0 -67.5 -33.5t-30.5 -77.5q0 -36 20.5 -63t49.5 -27z" />
    <glyph glyph-name="uring" unicode="&#x16f;" horiz-adv-x="966" 
d="M342 -20q-81 0 -139.5 33.5t-87 89.5t-39 129t3.5 151l57 397q1 17 13 28t26 11h178q14 0 23 -11t6 -28l-57 -403q-11 -82 13.5 -129t76.5 -47q28 0 54.5 12t44 29t30.5 34t19 29l7 12l64 463q8 39 45 39h168q14 0 23 -11t6 -28l-103 -741q-1 -15 -14 -27t-27 -12h-80
q-22 0 -30 31l-15 67q-108 -118 -266 -118zM545 991q-79 0 -131 58.5t-52 142.5q0 109 71.5 185.5t174.5 76.5q77 0 128.5 -58.5t51.5 -142.5q0 -108 -71.5 -185t-171.5 -77zM561 1120q37 0 67.5 35.5t30.5 79.5q0 36 -19.5 61t-49.5 25q-37 0 -67.5 -33.5t-30.5 -77.5
q0 -36 20 -63t49 -27z" />
    <glyph glyph-name="Uhungarumlaut" unicode="&#x170;" horiz-adv-x="1370" 
d="M162 543l121 852q1 15 14 27t27 12h202q15 0 24 -12t7 -27l-119 -838q-19 -131 37.5 -219t163.5 -88q108 0 190 87.5t101 217.5l119 840q2 15 14 27t27 12h202q13 0 23 -12t8 -27l-121 -852q-22 -156 -102 -283.5t-210.5 -203.5t-287.5 -76q-140 0 -249 75.5t-160.5 205
t-30.5 282.5zM934 1573q-14 0 -24.5 12.5t-4.5 26.5l101 289q13 38 47 38h153q26 0 32.5 -15.5t-7.5 -35.5l-182 -284q-19 -31 -45 -31h-70zM629 1573q-14 0 -24.5 12.5t-4.5 26.5l100 289q13 38 48 38h153q26 0 32.5 -15.5t-7.5 -35.5l-183 -284q-19 -31 -45 -31h-69z" />
    <glyph glyph-name="uhungarumlaut" unicode="&#x171;" horiz-adv-x="966" 
d="M342 -20q-81 0 -139.5 33.5t-87 89.5t-39 129t3.5 151l57 397q1 17 13 28t26 11h178q14 0 23 -11t6 -28l-57 -403q-11 -82 13.5 -129t76.5 -47q28 0 54.5 12t44 29t30.5 34t19 29l7 12l64 463q8 39 45 39h168q14 0 23 -11t6 -28l-103 -741q-1 -15 -14 -27t-27 -12h-80
q-22 0 -30 31l-15 67q-108 -118 -266 -118zM664 1067q-14 0 -24.5 12.5t-4.5 26.5l100 289q14 39 47 39h154q26 0 32.5 -16t-7.5 -36l-183 -284q-19 -31 -45 -31h-69zM358 1067q-14 0 -24 12.5t-4 26.5l100 289q14 39 47 39h154q25 0 31.5 -16t-7.5 -36l-182 -284
q-19 -31 -45 -31h-70z" />
    <glyph glyph-name="Uogonek" unicode="&#x172;" horiz-adv-x="1380" 
d="M406 -274q0 145 120 260q-183 31 -286 188.5t-74 368.5l121 852q1 15 14 27t27 12h202q15 0 24 -12t7 -27l-119 -838q-19 -131 37.5 -219t163.5 -88q108 0 190 87.5t101 217.5l119 840q2 15 14 27t27 12h202q13 0 23 -12t8 -27l-121 -852q-31 -228 -183 -386t-370 -175
q-94 -94 -94 -199q0 -49 27.5 -80t81.5 -31q15 0 29 3t30.5 8.5l22.5 7.5q17 4 27 -6t7 -29l-8 -62q-2 -25 -33 -38q-10 -6 -48 -13.5t-74 -7.5q-89 0 -152 50.5t-63 140.5z" />
    <glyph glyph-name="uogonek" unicode="&#x173;" horiz-adv-x="966" 
d="M342 -20q-81 0 -139.5 33.5t-87 89.5t-39 129t3.5 151l57 397q1 17 13 28t26 11h178q14 0 23 -11t6 -28l-57 -403q-11 -82 13.5 -129t76.5 -47q28 0 54.5 12t44 29t30.5 34t19 29l7 12l64 463q8 39 45 39h168q14 0 23 -11t6 -28l-103 -741q-1 -15 -14 -27t-27 -12h-14
q-113 -102 -113 -217q0 -49 27.5 -80t81.5 -31q15 0 29 3t30.5 8.5l22.5 7.5q17 4 27 -6t7 -29l-8 -62q-3 -25 -32 -38q-9 -6 -48 -13.5t-75 -7.5q-89 0 -152 50.5t-63 140.5q0 169 170 301l-15 71q-108 -118 -266 -118z" />
    <glyph glyph-name="Wcircumflex" unicode="&#x174;" horiz-adv-x="1679" 
d="M330 8l-154 1376q-3 21 8.5 35.5t30.5 14.5h178q10 0 18.5 -9t10.5 -20l70 -776h8l413 803q11 22 35 22h33q25 0 29 -22l166 -803h8l291 776q5 11 15.5 20t20.5 9h195q20 0 28 -14t-1 -36l-541 -1376q-4 -12 -15 -20t-22 -8h-31q-24 0 -28 22l-209 887h-8l-455 -887
q-11 -22 -35 -22h-29q-26 0 -30 28zM791 1567q-26 -16 -41 6l-45 67q-19 27 10 48l274 206q23 17 43 0l217 -206q8 -7 10.5 -17.5t-4.5 -21.5l-59 -76q-19 -25 -41 -6l-160 127z" />
    <glyph glyph-name="wcircumflex" unicode="&#x175;" horiz-adv-x="1163" 
d="M197 2l-131 774q-6 43 34 43h158q10 0 19 -7t10 -17l55 -346h2l236 372q13 19 32 19h17q18 0 26 -19l121 -372h2l158 346q10 24 47 24h150q20 0 25.5 -13.5t-3.5 -33.5l-348 -770q-11 -22 -37 -22h-8q-20 0 -27 18l-166 463h-2l-301 -463q-11 -18 -33 -18h-8
q-24 0 -28 22zM428 1083l-45 68q-19 27 10 47l275 207q23 17 43 0l217 -207q8 -7 10.5 -17.5t-4.5 -21.5l-60 -76q-19 -25 -40 -6l-160 127l-205 -127q-26 -16 -41 6z" />
    <glyph glyph-name="Ycircumflex" unicode="&#x176;" horiz-adv-x="1089" 
d="M330 39l92 651l-320 694q-9 20 2 35t33 15h193q16 0 24.5 -6.5t14.5 -22.5l215 -471l344 481q14 19 33 19h225q23 0 27.5 -17t-9.5 -37l-516 -688l-90 -653q-1 -15 -14 -27t-27 -12h-199q-14 0 -22 11.5t-6 27.5zM481 1567q-26 -16 -41 6l-45 67q-19 27 11 48l274 206
q23 17 43 0l217 -206q8 -7 10.5 -17.5t-4.5 -21.5l-59 -76q-19 -25 -41 -6l-160 127z" />
    <glyph glyph-name="ycircumflex" unicode="&#x177;" horiz-adv-x="870" 
d="M233 57l-186 709q-6 21 2 37t29 16h176q8 0 17 -6.5t12 -15.5l106 -486h2l240 486q10 22 41 22h182q22 0 28.5 -16.5t-5.5 -36.5l-754 -1356q-16 -24 -35 -24h-190q-21 0 -26.5 13.5t7.5 35.5zM270 1083l-45 68q-18 26 11 47l274 207q23 17 43 0l217 -207
q8 -7 10.5 -17.5t-4.5 -21.5l-59 -76q-19 -25 -41 -6l-160 127l-205 -127q-26 -16 -41 6z" />
    <glyph glyph-name="Ydieresis" unicode="&#x178;" horiz-adv-x="1089" 
d="M330 39l92 651l-320 694q-9 20 2 35t33 15h193q16 0 24.5 -6.5t14.5 -22.5l215 -471l344 481q14 19 33 19h225q23 0 27.5 -17t-9.5 -37l-516 -688l-90 -653q-1 -15 -14 -27t-27 -12h-199q-14 0 -22 11.5t-6 27.5zM901 1587q-49 0 -77.5 38.5t-20.5 92.5q6 54 44.5 91.5
t88.5 37.5q47 0 76.5 -37.5t23.5 -91.5q-7 -54 -47.5 -92.5t-87.5 -38.5zM444 1587q-47 0 -75.5 38.5t-20.5 92.5q6 54 44.5 91.5t86.5 37.5q49 0 79 -37.5t24 -91.5q-8 -54 -48.5 -92.5t-89.5 -38.5z" />
    <glyph glyph-name="Zacute" unicode="&#x179;" horiz-adv-x="1026" 
d="M14 0q-14 0 -22.5 12t-5.5 27l4 37l680 1102v8h-434q-13 0 -23 12t-8 27l24 170q1 15 14 27t27 12h777q13 0 22.5 -12t7.5 -27l-4 -27l-667 -1112v-8h438q14 0 22 -11.5t6 -27.5l-22 -170q-2 -15 -14 -27t-27 -12h-795zM539 1573q-35 -15 -47 12l-33 80q-10 26 16 39
l336 199q34 23 49 -11l49 -106q8 -19 2.5 -34t-20.5 -21z" />
    <glyph glyph-name="zacute" unicode="&#x17a;" horiz-adv-x="700" 
d="M20 0q-14 0 -23.5 12t-6.5 27l4 20l317 537v4h-190q-13 0 -21 12t-6 27l19 141q1 17 13 28t26 11h493q22 0 29.5 -17.5t-4.5 -37.5l-328 -541v-6h182q15 0 23 -11t6 -28l-18 -139q-2 -15 -14 -27t-27 -12h-474zM293 1081q-22 -8 -31.5 -5t-15.5 18l-33 80q-9 25 16 38
l336 199q35 23 49 -10l50 -107q8 -19 2 -33.5t-21 -21.5z" />
    <glyph glyph-name="Zdotaccent" unicode="&#x17b;" horiz-adv-x="1026" 
d="M14 0q-14 0 -22.5 12t-5.5 27l4 37l680 1102v8h-434q-13 0 -23 12t-8 27l24 170q1 15 14 27t27 12h777q13 0 22.5 -12t7.5 -27l-4 -27l-667 -1112v-8h438q14 0 22 -11.5t6 -27.5l-22 -170q-2 -15 -14 -27t-27 -12h-795zM682 1599q-53 0 -87 37.5t-34 92.5q0 68 49 116.5
t113 48.5q53 0 88 -37t35 -92q0 -68 -50 -117t-114 -49z" />
    <glyph glyph-name="zdotaccent" unicode="&#x17c;" horiz-adv-x="700" 
d="M20 0q-14 0 -23.5 12t-6.5 27l4 20l317 537v4h-190q-13 0 -21 12t-6 27l19 141q1 17 13 28t26 11h493q22 0 29.5 -17.5t-4.5 -37.5l-328 -541v-6h182q15 0 23 -11t6 -28l-18 -139q-2 -15 -14 -27t-27 -12h-474zM432 1098q-52 0 -86.5 37.5t-34.5 91.5q0 68 49.5 117
t114.5 49q52 0 86.5 -37.5t34.5 -91.5q0 -68 -49.5 -117t-114.5 -49z" />
    <glyph glyph-name="Zcaron" unicode="&#x17d;" horiz-adv-x="1026" 
d="M14 0q-14 0 -22.5 12t-5.5 27l4 37l680 1102v8h-434q-13 0 -23 12t-8 27l24 170q1 15 14 27t27 12h777q13 0 22.5 -12t7.5 -27l-4 -27l-667 -1112v-8h438q14 0 22 -11.5t6 -27.5l-22 -170q-2 -15 -14 -27t-27 -12h-795zM655 1565l-217 207q-21 17 -6 38l60 76q19 25 40 6
l160 -127l205 127q26 16 41 -6l45 -67q19 -27 -10 -47l-275 -207q-23 -17 -43 0z" />
    <glyph glyph-name="zcaron" unicode="&#x17e;" horiz-adv-x="700" 
d="M20 0q-14 0 -23.5 12t-6.5 27l4 20l317 537v4h-190q-13 0 -21 12t-6 27l19 141q1 17 13 28t26 11h493q22 0 29.5 -17.5t-4.5 -37.5l-328 -541v-6h182q15 0 23 -11t6 -28l-18 -139q-2 -15 -14 -27t-27 -12h-474zM403 1075l-217 207q-8 7 -10.5 17.5t4.5 21.5l60 76
q19 25 41 6l159 -127l205 127q26 16 41 -6l45 -68q19 -27 -10 -47l-275 -207q-23 -17 -43 0z" />
    <glyph glyph-name="florin" unicode="&#x192;" horiz-adv-x="720" 
d="M100 -221l115 827h-143q-15 0 -24 12t-7 27l20 135q1 17 12.5 28t26.5 11h146l30 223q30 202 136 307t288 105q118 0 205 -80q9 -9 9.5 -24t-7.5 -25l-88 -119q-21 -27 -45 -10q-39 27 -92 27q-49 0 -90.5 -47t-54.5 -136l-31 -221h176q14 0 23 -11t6 -28l-19 -135
q-3 -16 -14.5 -27.5t-26.5 -11.5h-176l-117 -829q-27 -197 -138.5 -304.5t-282.5 -107.5q-71 0 -125.5 25.5t-81.5 54.5q-8 9 -8 23t8 26l84 123q7 12 20 15t23 -5q40 -30 96 -30q50 0 92 46.5t55 135.5z" />
    <glyph glyph-name="Aringacute" unicode="&#x1fa;" horiz-adv-x="1232" 
d="M623 1827l-33 80q-10 26 16 39l336 198q35 23 49 -10l49 -106q8 -19 2 -34.5t-20 -21.5l-352 -157q-35 -15 -47 12zM-43 0q-21 0 -28.5 16.5t3.5 36.5l725 1301q-47 23 -74.5 72t-27.5 110q0 109 71.5 185.5t174.5 76.5q77 0 128.5 -58.5t51.5 -142.5q0 -88 -49 -157
t-125 -94l354 -1293q6 -20 -5.5 -36.5t-33.5 -16.5h-178q-24 0 -36.5 9t-16.5 32l-51 227h-510l-119 -227q-21 -41 -66 -41h-188zM754 1464q37 0 67.5 35.5t30.5 79.5q0 36 -20 61t-50 25q-37 0 -67.5 -33.5t-30.5 -77.5q0 -36 20.5 -63t49.5 -27zM451 489h323l-96 447h-4z
" />
    <glyph glyph-name="aringacute" unicode="&#x1fb;" horiz-adv-x="970" 
d="M500 887q-79 0 -131 58t-52 142q0 109 71.5 186t174.5 77q77 0 128.5 -58.5t51.5 -142.5q0 -108 -71.5 -185t-171.5 -77zM516 1016q37 0 67.5 35t30.5 79q0 36 -19.5 61.5t-49.5 25.5q-37 0 -68 -33.5t-31 -77.5q0 -36 20.5 -63t49.5 -27zM440 1376q-22 -8 -31.5 -5
t-15.5 18l-33 79q-10 26 17 39l336 199q35 23 49 -10l49 -107q8 -19 2.5 -34t-20.5 -21zM569 334l25 170q-6 37 -41 75.5t-92 38.5q-75 0 -134 -71.5t-59 -186.5q0 -68 37 -113.5t98 -45.5q57 0 104.5 46t61.5 87zM872 780l-102 -741q-1 -15 -14 -27t-27 -12h-80
q-26 0 -33 35l-12 61q-22 -20 -36.5 -32t-50.5 -35.5t-81 -36t-96 -12.5q-128 0 -214.5 109t-86.5 267q0 200 122 342t300 142q78 0 138.5 -36.5t90.5 -76.5l37 66q15 26 37 26h80q14 0 22.5 -11t5.5 -28z" />
    <glyph glyph-name="AEacute" unicode="&#x1fc;" horiz-adv-x="1681" 
d="M-72 0q-21 0 -24.5 16.5t10.5 36.5l924 1317q2 3 10.5 14t10.5 13.5t8.5 10.5t9.5 9.5t9.5 6.5t12 6t13 2.5t16.5 1.5h735q13 0 22 -12t7 -27l-25 -168q-2 -15 -13 -27t-26 -12h-528l-47 -336h436q13 0 23 -12t8 -27l-25 -170q-3 -17 -15 -28t-26 -11h-436l-51 -358h528
q14 0 22.5 -11.5t6.5 -27.5l-23 -168q-2 -15 -14 -27t-27 -12h-758q-15 0 -23.5 11.5t-6.5 27.5l33 223h-359l-151 -231q-22 -31 -56 -31h-211zM510 489h225l64 455zM1221 1575q-35 -15 -47 12l-33 80q-10 26 16 39l336 199q34 23 49 -11l49 -106q8 -19 2.5 -34t-20.5 -21z
" />
    <glyph glyph-name="aeacute" unicode="&#x1fd;" horiz-adv-x="1226" 
d="M4 215q0 133 91.5 218t240.5 85q31 0 63.5 -4t48.5 -8l17 -4q8 82 -8 115.5t-72 33.5q-68 0 -197 -33q-14 -2 -25 8t-11 25l-5 111q0 14 11.5 26t25.5 15q146 37 252 37q142 0 209 -101q40 46 118 73.5t157 27.5q120 0 191 -61t71 -156q0 -74 -50 -131t-130 -88
t-164.5 -46t-169.5 -16q-5 -67 28.5 -108t106.5 -41q35 0 76 14.5t69 34.5q33 22 47 0l68 -97q8 -10 7 -25.5t-13 -27.5q-122 -112 -293 -112q-156 0 -248 133h-2q-92 -133 -278 -133q-102 0 -167 64.5t-65 170.5zM702 502q55 1 109.5 10.5t98.5 32t44 53.5q0 23 -17.5 37
t-51.5 14q-59 0 -112 -45.5t-71 -101.5zM217 248q0 -40 27.5 -66t64.5 -26q40 0 67.5 18.5t41.5 52t19.5 63.5t8.5 70q-60 15 -102 15q-47 0 -87 -36t-40 -91zM629 1081q-22 -8 -31.5 -5t-15.5 18l-33 80q-9 25 16 38l336 199q35 23 49 -10l49 -107q8 -19 2.5 -34t-20.5 -21
z" />
    <glyph glyph-name="Oslashacute" unicode="&#x1fe;" horiz-adv-x="1507" 
d="M55 47q-9 9 -8 24.5t14 28.5l150 144q-107 164 -107 370q0 171 59 326t160 268t244 179.5t303 66.5q120 0 227 -50t185 -138l152 145q11 10 24.5 9.5t22.5 -9.5l18 -20q9 -11 6.5 -26.5t-14.5 -27.5l-154 -147q109 -170 109 -377q0 -170 -59.5 -324t-161 -265.5
t-244 -177.5t-301.5 -66q-122 0 -228 49t-184 137l-147 -141q-11 -10 -24 -9t-23 11zM422 446l653 623q-94 119 -235 119q-87 0 -171 -43.5t-147 -116t-102 -173t-39 -206.5q0 -113 41 -203zM473 362q92 -116 236 -116q88 0 172 42.5t147.5 114t102 171t38.5 206.5
q0 110 -43 207zM764 1573q-35 -15 -47 12l-33 80q-10 26 16 39l336 199q34 23 49 -11l50 -106q8 -19 2 -33.5t-21 -21.5z" />
    <glyph glyph-name="oslashacute" unicode="&#x1ff;" horiz-adv-x="890" 
d="M393 1081q-22 -8 -31.5 -5t-15.5 18l-33 80q-9 25 17 38l336 199q35 23 49 -10l49 -107q8 -19 2 -33.5t-21 -21.5zM45 29l-18 20q-9 9 -7 25.5t13 27.5l53 52q-49 93 -49 200q0 129 59.5 241t162.5 178.5t224 66.5q125 0 219 -97l58 56q25 22 47 0l18 -21q9 -11 6.5 -26
t-14.5 -27l-59 -57q51 -88 51 -201q0 -130 -61 -242.5t-164 -178.5t-222 -66q-130 0 -219 96l-51 -49q-11 -10 -24 -9t-23 11zM266 326l266 256q-31 36 -79 36q-76 0 -133.5 -71t-57.5 -168q0 -21 4 -53zM309 238q37 -37 84 -37q74 0 131.5 72t57.5 171q0 18 -4 50z" />
    <glyph glyph-name="Scommaaccent" unicode="&#x218;" horiz-adv-x="1038" 
d="M55 139q-26 26 0 62l80 116q12 20 32.5 20.5t31.5 -11.5q124 -107 254 -107q72 0 127 50t55 124q0 64 -41.5 114t-134.5 111q-40 26 -69 47t-66.5 52t-63 62.5t-49 70t-35.5 83.5t-12 95q0 80 28 153.5t82 135.5t145.5 99.5t207.5 37.5q124 0 223 -45.5t141 -87.5
q37 -37 6 -82l-79 -113q-12 -19 -31 -20t-41 16q-38 31 -101 60.5t-131 29.5q-75 0 -124.5 -48t-49.5 -111q0 -57 37.5 -96.5t140.5 -108.5q125 -84 176 -131q140 -130 140 -297q0 -186 -134.5 -313t-355.5 -127q-74 0 -144 19t-119 47.5t-79.5 51.5t-46.5 41zM264 -340
q0 62 47 108t113 46q52 0 92.5 -43t40.5 -133q0 -63 -18 -124t-40.5 -102t-59 -84t-55 -60.5t-46.5 -41.5q-22 -19 -41 2l-29 33q-8 10 -4 22.5t15 22.5q1 1 16 14.5t29 26.5t33.5 36.5t35 46.5t29.5 55t20 64l-4 -1l-10 -2.5t-14 -3t-18.5 -2.5t-20.5 -1q-47 0 -79 35
t-32 86z" />
    <glyph glyph-name="scommaaccent" unicode="&#x219;" horiz-adv-x="704" 
d="M23 59q-22 19 -3 50l68 104q6 11 21 14t26 -4q61 -39 148 -39q28 0 46.5 13t18.5 34q0 31 -21.5 53t-88.5 62q-83 46 -124.5 100.5t-41.5 137.5q0 110 74 183t235 73q76 0 139 -21.5t96 -46.5q13 -10 17 -26.5t-6 -32.5l-70 -103q-8 -11 -22.5 -14.5t-30.5 6.5
q-56 31 -137 31q-66 0 -66 -47q0 -22 18 -38.5t64 -41.5q54 -30 87 -52t65.5 -53.5t47.5 -69.5t15 -85q0 -112 -85 -189t-239 -77q-156 0 -251 79zM94 -340q0 62 47 108t113 46q52 0 92.5 -43t40.5 -133q0 -63 -18 -124t-40.5 -102t-59 -84t-55 -60.5t-46.5 -41.5
q-22 -19 -41 2l-29 33q-8 10 -4 22.5t15 22.5q1 1 16 14.5t29 26.5t33.5 36.5t35 46.5t29.5 55t20 64l-4 -1l-10 -2.5t-14 -3t-18.5 -2.5t-20.5 -1q-47 0 -79 35t-32 86z" />
    <glyph glyph-name="uni021A" unicode="&#x21a;" horiz-adv-x="935" 
d="M256 39l162 1149h-271q-15 0 -23.5 11.5t-6.5 27.5l24 168q1 15 13 27t26 12h813q15 0 24 -12t7 -27l-25 -168q-2 -15 -14 -27t-27 -12h-270l-162 -1149q-1 -15 -14 -27t-27 -12h-198q-13 0 -23 12t-8 27zM197 -340q0 62 47 108t112 46q52 0 92.5 -43t40.5 -133
q0 -63 -18 -124t-40.5 -102t-59 -84t-55 -60.5t-46.5 -41.5q-22 -19 -41 2l-28 33q-8 10 -4.5 22.5t14.5 22.5q2 2 16.5 15t28.5 26t34 36.5t35.5 47t29.5 55t20 63.5l-4 -1q-4 -1 -10.5 -2.5t-14 -3t-18.5 -2.5t-21 -1q-47 0 -78.5 35t-31.5 86z" />
    <glyph glyph-name="uni021B" unicode="&#x21b;" horiz-adv-x="677" 
d="M121 244l51 360h-74q-13 0 -21.5 12t-6.5 27l18 137q3 17 14 28t25 11h76l30 228q3 15 15.5 26.5t25.5 11.5l179 2q13 0 21 -11.5t5 -26.5l-30 -230h147q15 0 23.5 -11t5.5 -28l-19 -137q-3 -16 -14.5 -27.5t-26.5 -11.5h-147l-47 -323q-9 -66 45 -66q20 0 82 25
q15 6 25.5 -1t13.5 -22l20 -135q6 -30 -31 -49q-19 -12 -93 -32.5t-134 -20.5q-105 0 -150 69t-28 195zM129 -340q0 62 47 108t113 46q52 0 92.5 -43t40.5 -133q0 -63 -18 -124t-40.5 -102t-59 -84t-55 -60.5t-46.5 -41.5q-22 -19 -41 2l-29 33q-8 10 -4.5 22.5t14.5 22.5
q2 2 16.5 15t28.5 26t34 36.5t35.5 47t29.5 55t20 63.5l-4 -1l-10 -2.5t-14 -3t-18.5 -2.5t-20.5 -1q-47 0 -79 35t-32 86z" />
    <glyph glyph-name="dotlessj" unicode="&#x237;" 
d="M6 -221l139 1001q3 17 15 28t26 11h185q14 0 22.5 -11t5.5 -28l-145 -1020q-26 -189 -128.5 -292t-262.5 -103q-67 0 -134 27.5t-94 52.5q-9 9 -9 24t9 29l64 113q10 16 25.5 19.5t25.5 -3.5q63 -33 109 -33q122 0 147 185z" />
    <glyph glyph-name="circumflex" unicode="&#x2c6;" horiz-adv-x="688" 
d="M154 1083l-45 68q-19 27 10 47l274 207q23 17 43 0l217 -207q8 -7 10.5 -17.5t-4.5 -21.5l-59 -76q-19 -25 -41 -6l-160 127l-204 -127q-26 -16 -41 6z" />
    <glyph glyph-name="caron" unicode="&#x2c7;" horiz-adv-x="688" 
d="M350 1075l-217 207q-8 7 -10.5 17.5t4.5 21.5l59 76q19 25 41 6l160 -127l205 127q26 16 41 -6l45 -68q19 -27 -10 -47l-275 -207q-23 -17 -43 0z" />
    <glyph glyph-name="uni02C9" unicode="&#x2c9;" horiz-adv-x="763" 
d="M186 1167q-15 0 -22.5 10.5t-5.5 26.5l8 70q1 17 13.5 28t27.5 11h473q14 0 23 -11t6 -28l-11 -70q-2 -15 -13 -26t-26 -11h-473z" />
    <glyph glyph-name="breve" unicode="&#x2d8;" horiz-adv-x="636" 
d="M348 1081q-97 0 -162 69.5t-65 172.5q0 19 12 32t29 13h74q10 0 17 -9t9 -20q6 -49 32.5 -78.5t70.5 -29.5q41 0 76 31t53 77q5 12 15.5 20.5t20.5 8.5h84q17 0 24.5 -13t4.5 -32q-32 -106 -111.5 -174t-183.5 -68z" />
    <glyph glyph-name="dotaccent" unicode="&#x2d9;" horiz-adv-x="403" 
d="M231 1098q-52 0 -86 37t-34 92q0 68 49 117t114 49q52 0 86.5 -37.5t34.5 -91.5q0 -68 -49.5 -117t-114.5 -49z" />
    <glyph glyph-name="ring" unicode="&#x2da;" horiz-adv-x="534" 
d="M285 991q-79 0 -131 58.5t-52 142.5q0 109 71.5 185.5t174.5 76.5q77 0 128.5 -58.5t51.5 -142.5q0 -108 -71.5 -185t-171.5 -77zM301 1120q37 0 67.5 35.5t30.5 79.5q0 36 -19.5 61t-49.5 25q-37 0 -68 -33.5t-31 -77.5q0 -36 20.5 -63t49.5 -27z" />
    <glyph glyph-name="ogonek" unicode="&#x2db;" horiz-adv-x="512" 
d="M250 29h125q-6 -4 -16 -12.5t-35 -34.5t-44 -53.5t-35 -67.5t-16 -78q0 -49 27.5 -80t81.5 -31q15 0 29 3t30.5 8.5l22.5 7.5q17 5 27.5 -5.5t7.5 -29.5l-9 -62q-3 -25 -32 -38q-9 -6 -48 -13.5t-75 -7.5q-89 0 -152 50.5t-63 140.5q0 53 18 103.5t43.5 85t51 61.5
t43.5 40z" />
    <glyph glyph-name="tilde" unicode="&#x2dc;" horiz-adv-x="700" 
d="M172 1151l-55 43q-20 20 -4 47q11 23 25.5 45.5t41.5 54.5t64 52t78 20q31 0 59.5 -17.5t46.5 -39t41 -39t45 -17.5q35 0 66 64q9 19 26 25t35 -5l47 -36q28 -19 4 -68q-9 -19 -23.5 -41.5t-39.5 -50.5t-60 -46t-73 -18q-32 0 -63.5 18t-51.5 39.5t-42.5 39.5t-39.5 18
q-18 0 -35 -16t-23.5 -27.5t-19.5 -36.5q-6 -12 -21.5 -15t-27.5 7z" />
    <glyph glyph-name="hungarumlaut" unicode="&#x2dd;" horiz-adv-x="722" 
d="M430 1067q-14 0 -24.5 12.5t-4.5 26.5l101 289q14 39 47 39h153q26 0 32.5 -16t-7.5 -36l-182 -284q-19 -31 -45 -31h-70zM125 1067q-14 0 -24.5 12.5t-4.5 26.5l101 289q14 39 47 39h153q26 0 32.5 -16t-7.5 -36l-182 -284q-19 -31 -45 -31h-70z" />
    <glyph glyph-name="uni0394" unicode="&#x394;" horiz-adv-x="1439" 
d="M-10 0q-37 0 -47.5 22t12.5 66l747 1348q10 20 31 20h17q21 0 28 -20l365 -1352q10 -33 -2 -58.5t-45 -25.5h-1106zM315 244h521l-164 676h-2z" />
    <glyph glyph-name="uni03A9" unicode="&#x3a9;" horiz-adv-x="1599" 
d="M-8 0q-15 0 -23 11t-6 26l27 180q2 14 13 25.5t24 11.5h168q-66 55 -106 162t-40 225q0 165 63.5 316.5t168.5 260t246 172.5t292 64q159 0 290 -78.5t206.5 -218.5t75.5 -313q0 -165 -76 -337t-195 -253h156q13 0 22 -11.5t7 -25.5l-27 -180q-2 -15 -13 -26t-24 -11
h-508q-14 0 -21.5 10t-4.5 27l16 110q6 37 16.5 51t36.5 27q156 81 248 240.5t92 325.5q0 170 -91.5 282.5t-242.5 112.5q-95 0 -182.5 -46.5t-150 -123t-99.5 -178.5t-37 -209q0 -129 51.5 -236.5t151.5 -167.5q26 -15 33 -31.5t2 -46.5l-16 -110q-2 -15 -12 -26t-25 -11
h-506z" />
    <glyph glyph-name="uni03BC" unicode="&#x3bc;" horiz-adv-x="1003" 
d="M285 -12l-78 -563q-1 -15 -14 -27t-27 -12h-176q-13 0 -23 12t-8 27l193 1355q1 17 12.5 28t25.5 11h179q14 0 22.5 -11t5.5 -28l-59 -422q-6 -74 18.5 -115.5t73.5 -41.5q44 0 83 29t56 58l17 29l63 463q8 39 45 39h168q14 0 23 -11t6 -28l-103 -741q-1 -15 -13.5 -27
t-26.5 -12h-80q-23 0 -31 31l-14 67q-108 -118 -267 -118q-25 0 -71 8z" />
    <glyph glyph-name="pi" unicode="&#x3c0;" horiz-adv-x="1394" 
d="M225 37l80 567h-129q-13 0 -23 11.5t-8 25.5l21 141q1 15 14 26t27 11h1055q14 0 21.5 -10t4.5 -25l-20 -143q-2 -15 -13 -26t-24 -11h-139l-80 -567q-1 -15 -14 -26t-27 -11h-189q-12 0 -19.5 11t-6.5 26l80 567h-277l-80 -567q-1 -14 -13.5 -25.5t-25.5 -11.5h-188
q-13 0 -21 11t-6 26z" />
    <glyph glyph-name="Wgrave" unicode="&#x1e80;" horiz-adv-x="1679" 
d="M330 8l-154 1376q-3 21 8.5 35.5t30.5 14.5h178q10 0 18.5 -9t10.5 -20l70 -776h8l413 803q11 22 35 22h33q25 0 29 -22l166 -803h8l291 776q5 11 15.5 20t20.5 9h195q20 0 28 -14t-1 -36l-541 -1376q-4 -12 -15 -20t-22 -8h-31q-24 0 -28 22l-209 887h-8l-455 -887
q-11 -22 -35 -22h-29q-26 0 -30 28zM1114 1575l-307 158q-29 17 -4 55l59 88q12 19 31 21.5t25 -5.5l280 -198q8 -5 10.5 -16t-4.5 -23l-41 -68q-19 -28 -49 -12z" />
    <glyph glyph-name="wgrave" unicode="&#x1e81;" horiz-adv-x="1163" 
d="M197 2l-131 774q-6 43 34 43h158q10 0 19 -7t10 -17l55 -346h2l236 372q13 19 32 19h17q18 0 26 -19l121 -372h2l158 346q10 24 47 24h150q20 0 25.5 -13.5t-3.5 -33.5l-348 -770q-11 -22 -37 -22h-8q-20 0 -27 18l-166 463h-2l-301 -463q-11 -18 -33 -18h-8
q-24 0 -28 22zM793 1087l-308 158q-29 17 -4 55l60 89q12 19 30.5 21.5t24.5 -5.5l281 -199q8 -5 10.5 -16t-4.5 -23l-41 -67q-19 -29 -49 -13z" />
    <glyph glyph-name="Wacute" unicode="&#x1e82;" horiz-adv-x="1679" 
d="M330 8l-154 1376q-3 21 8.5 35.5t30.5 14.5h178q10 0 18.5 -9t10.5 -20l70 -776h8l413 803q11 22 35 22h33q25 0 29 -22l166 -803h8l291 776q5 11 15.5 20t20.5 9h195q20 0 28 -14t-1 -36l-541 -1376q-4 -12 -15 -20t-22 -8h-31q-24 0 -28 22l-209 887h-8l-455 -887
q-11 -22 -35 -22h-29q-26 0 -30 28zM852 1573q-35 -15 -47 12l-33 80q-10 26 16 39l336 199q13 10 28 7.5t22 -18.5l49 -106q8 -19 2 -33.5t-21 -21.5z" />
    <glyph glyph-name="wacute" unicode="&#x1e83;" horiz-adv-x="1163" 
d="M197 2l-131 774q-6 43 34 43h158q10 0 19 -7t10 -17l55 -346h2l236 372q13 19 32 19h17q18 0 26 -19l121 -372h2l158 346q10 24 47 24h150q20 0 25.5 -13.5t-3.5 -33.5l-348 -770q-11 -22 -37 -22h-8q-20 0 -27 18l-166 463h-2l-301 -463q-11 -18 -33 -18h-8
q-24 0 -28 22zM528 1081q-22 -8 -31.5 -5t-15.5 18l-32 80q-9 25 16 38l336 199q35 23 49 -10l49 -107q8 -19 2.5 -34t-20.5 -21z" />
    <glyph glyph-name="Wdieresis" unicode="&#x1e84;" horiz-adv-x="1679" 
d="M330 8l-154 1376q-3 21 8.5 35.5t30.5 14.5h178q10 0 18.5 -9t10.5 -20l70 -776h8l413 803q11 22 35 22h33q25 0 29 -22l166 -803h8l291 776q5 11 15.5 20t20.5 9h195q20 0 28 -14t-1 -36l-541 -1376q-4 -12 -15 -20t-22 -8h-31q-24 0 -28 22l-209 887h-8l-455 -887
q-11 -22 -35 -22h-29q-26 0 -30 28zM1208 1587q-49 0 -77.5 38.5t-20.5 92.5q6 54 44.5 91.5t88.5 37.5q47 0 76.5 -37.5t23.5 -91.5q-7 -54 -47.5 -92.5t-87.5 -38.5zM752 1587q-47 0 -75.5 38.5t-21.5 92.5q6 54 44.5 91.5t86.5 37.5q49 0 79 -37.5t24 -91.5
q-8 -54 -48 -92.5t-89 -38.5z" />
    <glyph glyph-name="wdieresis" unicode="&#x1e85;" horiz-adv-x="1163" 
d="M197 2l-131 774q-6 43 34 43h158q10 0 19 -7t10 -17l55 -346h2l236 372q13 19 32 19h17q18 0 26 -19l121 -372h2l158 346q10 24 47 24h150q20 0 25.5 -13.5t-3.5 -33.5l-348 -770q-11 -22 -37 -22h-8q-20 0 -27 18l-166 463h-2l-301 -463q-11 -18 -33 -18h-8
q-24 0 -28 22zM844 1128q-49 0 -78 39t-21 93q6 54 45 91.5t89 37.5q48 0 78 -37.5t24 -91.5q-7 -54 -48 -93t-89 -39zM473 1128q-47 0 -76 39t-22 93q6 53 45.5 91t87.5 38q49 0 78.5 -37.5t23.5 -91.5q-8 -54 -48 -93t-89 -39z" />
    <glyph glyph-name="Ygrave" unicode="&#x1ef2;" horiz-adv-x="1089" 
d="M330 39l92 651l-320 694q-9 20 2 35t33 15h193q16 0 24.5 -6.5t14.5 -22.5l215 -471l344 481q14 19 33 19h225q23 0 27.5 -17t-9.5 -37l-516 -688l-90 -653q-1 -15 -14 -27t-27 -12h-199q-14 0 -22 11.5t-6 27.5zM809 1575l-307 158q-29 17 -4 55l59 88q12 19 30.5 21.5
t24.5 -5.5l281 -198q8 -5 10.5 -16t-4.5 -23l-41 -68q-19 -28 -49 -12z" />
    <glyph glyph-name="ygrave" unicode="&#x1ef3;" horiz-adv-x="870" 
d="M233 57l-186 709q-6 21 2 37t29 16h176q8 0 17 -6.5t12 -15.5l106 -486h2l240 486q10 22 41 22h182q22 0 28.5 -16.5t-5.5 -36.5l-754 -1356q-16 -24 -35 -24h-190q-21 0 -26.5 13.5t7.5 35.5zM635 1087l-307 158q-29 17 -4 55l59 89q12 19 30.5 21.5t24.5 -5.5l281 -199
q8 -5 10.5 -16t-4.5 -23l-41 -67q-19 -29 -49 -13z" />
    <glyph glyph-name="endash" unicode="&#x2013;" horiz-adv-x="1032" 
d="M139 430q-15 0 -23.5 11t-6.5 26l10 76q1 17 13.5 28t27.5 11h743q15 0 23 -11t6 -28l-10 -76q-1 -15 -13.5 -26t-27.5 -11h-742z" />
    <glyph glyph-name="emdash" unicode="&#x2014;" horiz-adv-x="1437" 
d="M139 430q-15 0 -23.5 11t-6.5 26l10 76q1 17 13.5 28t27.5 11h1149q31 0 28 -39l-10 -76q-1 -15 -13.5 -26t-27.5 -11h-1147z" />
    <glyph glyph-name="quoteleft" unicode="&#x2018;" horiz-adv-x="395" 
d="M252 852q-52 0 -92.5 43t-40.5 133q0 63 18 124t40.5 102t59 84t55 60.5t46.5 41.5q22 19 41 -2l29 -33q8 -10 4 -22.5t-15 -22.5q-1 -1 -16 -14.5t-29 -27t-34 -36.5t-35.5 -46.5t-29.5 -55.5t-20 -64l4 1q4 1 10.5 2.5t14 3t18.5 2.5t21 1q47 0 79 -34.5t32 -85.5
q0 -62 -47 -108t-113 -46z" />
    <glyph glyph-name="quoteright" unicode="&#x2019;" horiz-adv-x="389" 
d="M174 868l-29 33q-8 10 -4 22.5t15 22.5q1 1 16 14.5t29 27t33.5 36.5t35 46.5t29.5 55.5t20 64l-4 -1l-10 -2.5t-14 -3t-18.5 -2.5t-20.5 -1q-47 0 -79 34.5t-32 85.5q0 62 47 108t113 46q52 0 92.5 -43t40.5 -133q0 -63 -18 -124t-40.5 -102t-59 -84t-55 -60.5
t-46.5 -41.5q-22 -19 -41 2z" />
    <glyph glyph-name="quotesinglbase" unicode="&#x201a;" horiz-adv-x="450" 
d="M14 100q0 62 47 108t113 46q52 0 92.5 -43t40.5 -133q0 -63 -18 -124t-40.5 -102t-59 -84t-55 -60.5t-46.5 -41.5q-22 -19 -41 2l-29 33q-8 10 -4 22.5t15 22.5q1 1 16 14.5t29 27t34 36.5t35.5 46.5t29.5 55.5t20 64l-4 -1q-4 -1 -10.5 -2.5t-14 -3t-18.5 -2.5t-21 -1
q-47 0 -79 34.5t-32 85.5z" />
    <glyph glyph-name="quotedblleft" unicode="&#x201c;" horiz-adv-x="757" 
d="M614 852q-52 0 -92.5 43t-40.5 133q0 63 18 124t40.5 102t59 84t55 60.5t46.5 41.5q22 19 41 -2l29 -33q8 -10 4.5 -22.5t-14.5 -22.5q-1 -1 -16 -14.5t-29 -27t-34 -36.5t-35.5 -46.5t-29.5 -55.5t-20 -64l4 1q4 1 10.5 2.5t14 3t18.5 2.5t21 1q47 0 78.5 -34.5
t31.5 -85.5q0 -62 -47 -108t-113 -46zM252 852q-52 0 -92.5 43t-40.5 133q0 63 18 124t40.5 102t59 84t55 60.5t46.5 41.5q22 19 41 -2l29 -33q8 -10 4 -22.5t-15 -22.5q-1 -1 -16 -14.5t-29 -27t-34 -36.5t-35.5 -46.5t-29.5 -55.5t-20 -64l4 1q4 1 10.5 2.5t14 3t18.5 2.5
t21 1q47 0 79 -34.5t32 -85.5q0 -62 -47 -108t-113 -46z" />
    <glyph glyph-name="quotedblright" unicode="&#x201d;" horiz-adv-x="749" 
d="M535 868l-29 33q-8 10 -4.5 22.5t14.5 22.5q1 1 16 14.5t29 27t34 36.5t35.5 46.5t29.5 55.5t20 64l-4 -1q-4 -1 -10.5 -2.5t-14 -3t-18.5 -2.5t-21 -1q-47 0 -78.5 34.5t-31.5 85.5q0 62 47 108t113 46q52 0 92.5 -43t40.5 -133q0 -63 -18.5 -124t-41 -102t-59 -84
t-55 -60.5t-46.5 -41.5q-22 -19 -40 2zM174 868l-29 33q-8 10 -4 22.5t15 22.5q1 1 16 14.5t29 27t33.5 36.5t35 46.5t29.5 55.5t20 64l-4 -1l-10 -2.5t-14 -3t-18.5 -2.5t-20.5 -1q-47 0 -79 34.5t-32 85.5q0 62 47 108t113 46q52 0 92.5 -43t40.5 -133q0 -63 -18 -124
t-40.5 -102t-59 -84t-55 -60.5t-46.5 -41.5q-22 -19 -41 2z" />
    <glyph glyph-name="quotedblbase" unicode="&#x201e;" horiz-adv-x="811" 
d="M375 100q0 62 47 108t113 46q52 0 92.5 -43t40.5 -133q0 -63 -18 -124t-40.5 -102t-59 -84t-55 -60.5t-46.5 -41.5q-22 -19 -41 2l-29 33q-8 10 -4.5 22.5t14.5 22.5q1 1 16 14.5t29 27t34 36.5t35.5 46.5t29.5 55.5t20 64l-4 -1q-4 -1 -10.5 -2.5t-14 -3t-18.5 -2.5
t-21 -1q-47 0 -78.5 34.5t-31.5 85.5zM14 100q0 62 47 108t113 46q52 0 92.5 -43t40.5 -133q0 -63 -18 -124t-40.5 -102t-59 -84t-55 -60.5t-46.5 -41.5q-22 -19 -41 2l-29 33q-8 10 -4 22.5t15 22.5q1 1 16 14.5t29 27t34 36.5t35.5 46.5t29.5 55.5t20 64l-4 -1
q-4 -1 -10.5 -2.5t-14 -3t-18.5 -2.5t-21 -1q-47 0 -79 34.5t-32 85.5z" />
    <glyph glyph-name="dagger" unicode="&#x2020;" horiz-adv-x="1138" 
d="M129 586q-13 0 -22 12t-7 27l23 155q1 15 13 27t26 12h301l80 576q3 15 15.5 27t25.5 12h202q13 0 22 -12t7 -27l-80 -576h314q13 0 21.5 -12t6.5 -27l-22 -155q-1 -15 -13 -27t-26 -12h-330l-231 -1168q-3 -12 -15 -22t-24 -10h-37q-12 0 -22 10t-9 22l98 1168h-317z
" />
    <glyph glyph-name="daggerdbl" unicode="&#x2021;" horiz-adv-x="1138" 
d="M74 41l20 154q1 15 14 26.5t27 11.5h277l49 582l2 2h-301q-13 0 -22 12t-7 27l21 156q1 15 14 27t27 12h301l47 344q3 15 15.5 27t25.5 12h202q13 0 22 -12t7 -27l-49 -344h315q13 0 22 -12t7 -27l-23 -156q-2 -15 -13.5 -27t-24.5 -12h-316l-112 -584h290q13 0 22 -11.5
t7 -26.5l-22 -154q-2 -15 -14 -27t-25 -12h-308l-116 -584q-3 -12 -15 -22t-24 -10h-37q-12 0 -22 10t-9 22l45 584h-291q-13 0 -21.5 12t-6.5 27z" />
    <glyph glyph-name="bullet" unicode="&#x2022;" horiz-adv-x="733" 
d="M328 195q-91 0 -153 68.5t-62 164.5q0 121 89 212t201 91q95 0 158.5 -69.5t63.5 -169.5q0 -120 -90 -208.5t-207 -88.5z" />
    <glyph glyph-name="ellipsis" unicode="&#x2026;" horiz-adv-x="1253" 
d="M829 109q0 68 49.5 116.5t114.5 48.5q52 0 86.5 -37.5t34.5 -91.5q0 -67 -49.5 -116t-114.5 -49q-52 0 -86.5 38t-34.5 91zM428 109q0 68 49 116.5t113 48.5q53 0 88 -37t35 -92q0 -67 -50 -116t-114 -49q-53 0 -87 37.5t-34 91.5zM16 109q0 68 48.5 116.5t113.5 48.5
q52 0 86.5 -37.5t34.5 -91.5q0 -67 -49.5 -116t-114.5 -49q-52 0 -85.5 37.5t-33.5 91.5z" />
    <glyph glyph-name="perthousand" unicode="&#x2030;" horiz-adv-x="1816" 
d="M385 901q-96 0 -160.5 69.5t-64.5 170.5q0 132 78 222.5t202 90.5q95 0 159.5 -70t64.5 -170q0 -130 -81.5 -221.5t-197.5 -91.5zM152 55l825 1358q14 21 35 21h106q20 0 27.5 -18t-4.5 -38l-828 -1358q-15 -20 -32 -20h-105q-22 0 -29 17.5t5 37.5zM397 1077
q33 0 59.5 35t26.5 80q0 35 -16 59.5t-43 24.5q-34 0 -61 -34t-27 -81q0 -35 17 -59.5t44 -24.5zM1198 219q0 132 78.5 222.5t202.5 90.5q95 0 159 -69.5t64 -169.5q0 -130 -81.5 -221.5t-197.5 -91.5q-96 0 -160.5 69.5t-64.5 169.5zM643 219q0 132 78.5 222.5t202.5 90.5
q95 0 159 -69.5t64 -169.5q0 -130 -81.5 -221.5t-197.5 -91.5q-96 0 -160.5 69.5t-64.5 169.5zM1374 240q0 -35 17.5 -59.5t44.5 -24.5q33 0 59.5 34.5t26.5 79.5q0 35 -16.5 59.5t-43.5 24.5q-34 0 -61 -34t-27 -80zM819 240q0 -35 17.5 -59.5t44.5 -24.5q33 0 59.5 34.5
t26.5 79.5q0 35 -16.5 59.5t-43.5 24.5q-34 0 -61 -34t-27 -80z" />
    <glyph glyph-name="guilsinglleft" unicode="&#x2039;" horiz-adv-x="536" 
d="M184 80l-147 317q-13 26 6 49l233 304q19 24 43 24h132q24 0 29 -19t-9 -44l-164 -305l66 -281q6 -25 -4 -43.5t-33 -18.5h-127q-17 0 -25 17z" />
    <glyph glyph-name="guilsinglright" unicode="&#x203a;" horiz-adv-x="534" 
d="M43 63q-24 0 -29 19.5t9 44.5l163 305l-65 281q-6 25 4 43t33 18h127q16 0 24 -16l148 -318q13 -26 -6 -49l-234 -303q-20 -25 -43 -25h-131z" />
    <glyph glyph-name="fraction" unicode="&#x2044;" horiz-adv-x="245" 
d="M-113 20q-15 -20 -32 -20h-105q-22 0 -29 17.5t5 37.5l825 1358q14 21 35 21h106q20 0 27.5 -18t-4.5 -38z" />
    <glyph glyph-name="zerosuperior" unicode="&#x2070;" horiz-adv-x="663" 
d="M473 1012q-92 0 -146.5 69t-54.5 183q0 181 77.5 288t213.5 107q93 0 147 -68t54 -184q0 -180 -78.5 -287.5t-212.5 -107.5zM494 1163q42 0 70 69t28 169q0 49 -13.5 77.5t-35.5 28.5q-43 0 -71 -69.5t-28 -167.5q0 -49 14 -78t36 -29z" />
    <glyph glyph-name="foursuperior" unicode="&#x2074;" horiz-adv-x="688" 
d="M516 1032q-8 0 -12.5 6t-3.5 13l14 98h-246q-6 0 -10 5t-4 11l14 105l342 358q10 10 27 10h80q6 0 10.5 -5.5t3.5 -12.5l-49 -348h72q7 0 11.5 -5.5t2.5 -11.5l-12 -88q0 -7 -6.5 -12.5t-12.5 -5.5h-73l-13 -98q-4 -19 -20 -19h-115zM412 1270h120l25 147z" />
    <glyph glyph-name="fivesuperior" unicode="&#x2075;" horiz-adv-x="602" 
d="M426 1012q-55 0 -106.5 26t-67.5 52q-10 16 2 30l55 66q15 18 29 4q41 -41 98 -41q35 0 61.5 25.5t26.5 62.5q0 29 -18 47.5t-49 18.5h-135q-13 0 -20 9.5t-5 22.5l41 285q4 18 20 18h295q8 0 12 -5.5t3 -12.5l-13 -90q0 -7 -6 -13t-14 -6h-182l-11 -79h58
q87 0 135.5 -49.5t48.5 -129.5q0 -106 -67.5 -173.5t-190.5 -67.5z" />
    <glyph glyph-name="sixsuperior" unicode="&#x2076;" horiz-adv-x="620" 
d="M461 1012q-87 0 -142 61t-55 152q0 86 31 160t72.5 119.5t97 83t90 53t66.5 26.5q27 8 34 -16l29 -70q0 -26 -22 -33q-50 -16 -114.5 -56.5t-90.5 -94.5q2 2 12.5 7.5t35.5 12t52 6.5q59 0 102 -44t43 -122q0 -104 -68.5 -174.5t-172.5 -70.5zM475 1153q28 0 51 27t23 63
q0 30 -14 49t-37 19q-24 0 -46.5 -20t-33.5 -42q-5 -36 12 -66t45 -30z" />
    <glyph glyph-name="sevensuperior" unicode="&#x2077;" horiz-adv-x="598" 
d="M264 1032q-11 0 -16 4t-4 13l2 12l268 446h-184q-6 0 -12 5.5t-5 11.5l15 96q4 18 20 18h367q6 0 10.5 -5.5t3.5 -12.5l-4 -29l-313 -540q-14 -19 -31 -19h-117z" />
    <glyph glyph-name="eightsuperior" unicode="&#x2078;" horiz-adv-x="641" 
d="M459 1012q-92 0 -147.5 44t-55.5 113q0 31 14 60.5t29.5 47t40 35t32 21.5t19.5 10v3q-29 13 -52.5 45.5t-23.5 78.5q0 85 67.5 137t168.5 52q83 0 136.5 -42t53.5 -110q0 -60 -37.5 -101.5t-80.5 -59.5v-3q36 -11 65 -46t29 -89q0 -86 -70.5 -141t-187.5 -55zM516 1407
q24 5 40.5 25t16.5 47q0 21 -11.5 32t-29.5 11q-23 0 -40 -17.5t-17 -44.5q0 -42 41 -53zM481 1143q26 0 47 19t21 52q0 23 -13.5 41t-37.5 21q-27 -3 -47.5 -27.5t-20.5 -54.5q0 -23 14.5 -37t36.5 -14z" />
    <glyph glyph-name="ninesuperior" unicode="&#x2079;" horiz-adv-x="620" 
d="M371 999q-28 -8 -35 17l-29 69q0 26 23 33q50 16 114.5 57t90.5 95q-3 -3 -13.5 -8.5t-35.5 -12t-52 -6.5q-59 0 -102 44t-43 122q0 104 69 175t172 71q87 0 142 -61t55 -152q0 -86 -31 -160t-72 -120t-96.5 -83.5t-90 -53t-66.5 -26.5zM494 1356q24 0 46 19.5t33 41.5
q5 36 -12 66t-45 30t-51 -27t-23 -63q0 -29 14.5 -48t37.5 -19z" />
    <glyph glyph-name="zeroinferior" unicode="&#x2080;" horiz-adv-x="663" 
d="M68 -76q0 181 77.5 288t212.5 107q93 0 147 -67.5t54 -183.5q0 -180 -78.5 -288t-212.5 -108q-92 0 -146 68.5t-54 183.5zM240 -70q0 -49 13.5 -77.5t35.5 -28.5q42 0 70 69t28 168q0 49 -13.5 78t-35.5 29q-43 0 -70.5 -70t-27.5 -168z" />
    <glyph glyph-name="oneinferior" unicode="&#x2081;" horiz-adv-x="462" 
d="M104 98q-15 0 -12 19l6 61q2 19 19 29l151 92h107q7 0 11.5 -5t2.5 -13l-80 -570q-4 -18 -20 -18h-127q-17 0 -17 18l56 395z" />
    <glyph glyph-name="twoinferior" unicode="&#x2082;" horiz-adv-x="583" 
d="M156 150l-37 67q-8 11 -6 21t20 22q83 59 180 59q76 0 128.5 -45t52.5 -116q0 -103 -86 -203l-117 -131h135q8 0 12.5 -6t3.5 -13l-14 -94q0 -7 -6 -12.5t-12 -5.5h-361q-19 0 -16 18l6 35l229 258q60 69 60 117q0 25 -12.5 41t-36.5 16q-34 0 -91 -39q-19 -13 -32 11z
" />
    <glyph glyph-name="threeinferior" unicode="&#x2083;" horiz-adv-x="583" 
d="M143 -33l9 64q3 28 34 28h54q30 0 50.5 21t20.5 53q0 23 -14 37t-39 14q-32 0 -68 -32q-8 -6 -14.5 -5.5t-13.5 11.5l-43 63q-6 7 -3.5 19t11.5 18q7 7 21 17t56.5 27t86.5 17q84 0 137 -40t53 -107q0 -60 -35 -102.5t-81 -63.5q34 -16 62 -50.5t28 -86.5
q0 -91 -68.5 -144t-169.5 -53q-44 0 -82.5 15t-55.5 28t-28 25q-17 17 0 37l45 53q20 20 35 4q27 -27 76 -27q39 0 58.5 19.5t19.5 54.5q0 26 -16.5 42t-47.5 16h-57q-26 0 -21 28z" />
    <glyph glyph-name="fourinferior" unicode="&#x2084;" horiz-adv-x="688" 
d="M63 -70l343 359q10 10 26 10h80q6 0 10.5 -5.5t3.5 -12.5l-49 -349h72q7 0 11.5 -5t2.5 -11l-12 -88q0 -7 -6.5 -12.5t-12.5 -5.5h-73l-13 -99q-4 -18 -20 -18h-115q-8 0 -12.5 5.5t-3.5 12.5l14 99h-246q-6 0 -10 5t-4 11zM207 -70h121l24 148z" />
    <glyph glyph-name="fiveinferior" unicode="&#x2085;" horiz-adv-x="602" 
d="M92 -4l41 285q4 18 21 18h295q7 0 11.5 -5t2.5 -13l-12 -91q0 -7 -6.5 -12.5t-14.5 -5.5h-182l-10 -80h57q87 0 135.5 -49t48.5 -129q0 -106 -67.5 -174t-190.5 -68q-55 0 -106.5 26t-67.5 52q-10 17 2 31l55 65q15 18 29 4q40 -40 98 -40q35 0 61.5 25.5t26.5 62.5
q0 29 -18 47t-49 18h-135q-13 0 -20 10t-5 23z" />
    <glyph glyph-name="sixinferior" unicode="&#x2086;" horiz-adv-x="620" 
d="M59 -115q0 86 31 160t72.5 120t97 83.5t90 53t66.5 26.5q28 8 35 -17l28 -69q0 -26 -22 -33q-50 -16 -114.5 -57t-90.5 -95q3 3 13 8.5t35 12t52 6.5q60 0 103 -44t43 -122q0 -104 -69 -175t-173 -71q-87 0 -142 61t-55 152zM213 -90q-5 -36 12 -66t45 -30t51 27t23 63
q0 30 -14 48.5t-37 18.5q-24 0 -46.5 -19.5t-33.5 -41.5z" />
    <glyph glyph-name="seveninferior" unicode="&#x2087;" horiz-adv-x="598" 
d="M125 168q-6 0 -11.5 5t-4.5 11l14 97q4 18 20 18h367q6 0 10.5 -5.5t3.5 -12.5l-4 -29l-313 -541q-13 -18 -31 -18h-117q-11 0 -16 3.5t-4 12.5l2 12l268 447h-184z" />
    <glyph glyph-name="eightinferior" unicode="&#x2088;" horiz-adv-x="641" 
d="M111 131q0 84 67 136t168 52q83 0 137 -41.5t54 -109.5q0 -60 -38 -102t-81 -60v-2q36 -11 65 -46t29 -89q0 -86 -70.5 -141.5t-187.5 -55.5q-92 0 -147.5 44.5t-55.5 113.5q0 106 135 174v2q-28 13 -51.5 46t-23.5 79zM270 121q0 -42 41 -53q24 5 41 24.5t17 46.5
q0 21 -11.5 32t-29.5 11q-23 0 -40.5 -17t-17.5 -44zM225 -145q0 -23 14.5 -37.5t36.5 -14.5q26 0 47 19.5t21 52.5q0 23 -13.5 41t-37.5 21q-27 -3 -47.5 -27.5t-20.5 -54.5z" />
    <glyph glyph-name="nineinferior" unicode="&#x2089;" horiz-adv-x="620" 
d="M84 70q0 103 69 174t173 71q86 0 141 -61t55 -152q0 -86 -31 -160t-72 -119.5t-96.5 -83t-90 -53t-66.5 -26.5q-28 -8 -35 16l-29 70q0 26 23 33q50 16 114.5 56.5t90.5 94.5q-2 -2 -13 -7.5t-36 -12t-52 -6.5q-59 0 -102 44t-43 122zM238 84q0 -30 14 -49t37 -19
q24 0 46.5 20t33.5 42q5 36 -12.5 66t-45.5 30t-50.5 -27t-22.5 -63z" />
    <glyph glyph-name="Euro" unicode="&#x20ac;" horiz-adv-x="1359" 
d="M92 512q-13 0 -21 12t-5 27l4 27q3 15 14.5 26.5t24.5 11.5h73q0 56 11 142h-66q-13 0 -21.5 12t-5.5 27l4 26q3 16 13.5 27.5t23.5 11.5h72q71 265 272 428.5t461 163.5q132 0 241 -52.5t185 -141.5q9 -12 7 -29t-15 -29l-111 -106q-36 -31 -67 0q-106 102 -254 102
q-136 0 -251.5 -94t-170.5 -242h414q14 0 22 -11.5t6 -27.5l-4 -30q-2 -15 -13 -26t-26 -11h-428q-8 -47 -8 -105v-35h342q15 0 24 -11.5t7 -26.5l-4 -29q-3 -15 -14.5 -26t-26.5 -11h-312q30 -119 107.5 -191.5t189.5 -72.5q142 0 281 121q40 34 66 -2l106 -134
q7 -11 4 -27.5t-14 -27.5q-207 -198 -463 -198q-234 0 -390 149.5t-188 382.5h-96z" />
    <glyph glyph-name="afii61289" unicode="&#x2113;" horiz-adv-x="1034" 
d="M301 -20q-90 0 -144.5 49t-69.5 122.5t-1 163.5q8 51 23 125q-60 -18 -84 -22q-25 -3 -25 22l2 68q0 35 33 41q72 13 121 31q33 120 49 174q114 356 226.5 528t260.5 172q98 0 146.5 -78t29.5 -207q-18 -123 -73.5 -233t-138.5 -197t-184.5 -154.5t-219.5 -113.5
q-23 -84 -33 -152q-27 -200 100 -200q138 0 285 90q23 11 30.5 8t14.5 -18l21 -43q10 -19 8 -29.5t-21 -26.5q-14 -11 -42 -27t-76 -39t-112 -38.5t-126 -15.5zM299 623q163 73 284 220.5t148 325.5q20 144 -59 144q-86 0 -169.5 -148.5t-170.5 -433.5z" />
    <glyph glyph-name="trademark" unicode="&#x2122;" horiz-adv-x="1329" 
d="M659 788q-18 0 -26 14.5t-2 33.5l176 577q8 31 41 31h6q21 0 29 -23l110 -379l221 379q14 23 35 23h6q12 0 21.5 -9.5t9.5 -21.5l17 -579q0 -19 -12 -32.5t-29 -13.5h-82q-12 0 -20.5 10.5t-8.5 24.5v256l-152 -278q-11 -19 -32 -19h-11q-22 0 -28 21l-76 276l-72 -258
q-3 -13 -15 -23t-26 -10h-80zM291 788q-15 0 -23.5 12t-5.5 27l64 455h-115q-14 0 -23 11t-6 28l11 74q1 15 13.5 27t26.5 12h383q15 0 24 -12t7 -27l-10 -74q-3 -17 -14.5 -28t-26.5 -11h-115l-63 -455q-1 -15 -14 -27t-27 -12h-86z" />
    <glyph glyph-name="Omega" unicode="&#x2126;" horiz-adv-x="1599" 
d="M-8 0q-15 0 -23 11t-6 26l27 180q2 14 13 25.5t24 11.5h168q-66 55 -106 162t-40 225q0 165 63.5 316.5t168.5 260t246 172.5t292 64q159 0 290 -78.5t206.5 -218.5t75.5 -313q0 -165 -76 -337t-195 -253h156q13 0 22 -11.5t7 -25.5l-27 -180q-2 -15 -13 -26t-24 -11
h-508q-14 0 -21.5 10t-4.5 27l16 110q6 37 16.5 51t36.5 27q156 81 248 240.5t92 325.5q0 170 -91.5 282.5t-242.5 112.5q-95 0 -182.5 -46.5t-150 -123t-99.5 -178.5t-37 -209q0 -129 51.5 -236.5t151.5 -167.5q26 -15 33 -31.5t2 -46.5l-16 -110q-2 -15 -12 -26t-25 -11
h-506z" />
    <glyph glyph-name="estimated" unicode="&#x212e;" horiz-adv-x="1685" 
d="M238 344q54 -109 156 -170t231 -61q96 0 199 43.5t196 122.5q34 31 53 4l33 -45q20 -26 -19 -60q-198 -198 -481 -198q-138 0 -254 57t-191.5 155t-109 234t-12.5 289q29 205 141.5 374.5t280 267t352.5 97.5q183 0 323 -99t205 -270t39 -376q-4 -33 -16.5 -46.5
t-36.5 -13.5h-1046zM299 778h844l43 307q-60 110 -159.5 172t-231.5 62q-265 0 -453 -229z" />
    <glyph glyph-name="onethird" unicode="&#x2153;" horiz-adv-x="1245" 
d="M125 55l825 1358q14 21 35 21h107q20 0 27 -18t-5 -38l-827 -1358q-15 -20 -33 -20h-104q-22 0 -29.5 17.5t4.5 37.5zM260 827q-16 0 -16 19l55 395l-96 -8q-16 0 -13 18l7 62q2 19 18 28l152 93h106q7 0 11.5 -5.5t2.5 -13.5l-79 -569q-4 -19 -21 -19h-127zM711 47
q-17 17 0 37l45 53q20 19 35 4q26 -26 75 -26q78 0 78 73q0 26 -16 42t-47 16h-58q-13 0 -18 6t-2 22l8 64q3 29 35 29h53q30 0 51 20.5t21 52.5q0 24 -14.5 38t-38.5 14q-31 0 -68 -33q-8 -6 -15 -5.5t-14 11.5l-43 63q-6 7 -3.5 19t11.5 18q7 7 21 17.5t56.5 27.5t86.5 17
q84 0 137.5 -40.5t53.5 -107.5q0 -60 -35.5 -102.5t-81.5 -63.5q34 -16 62 -50.5t28 -86.5q0 -91 -68 -143.5t-169 -52.5q-44 0 -82.5 14.5t-55.5 27.5t-28 25z" />
    <glyph glyph-name="twothirds" unicode="&#x2154;" horiz-adv-x="1245" 
d="M51 827q-19 0 -16 19l6 35l229 258q60 69 60 116q0 25 -12.5 41.5t-36.5 16.5q-34 0 -91 -39q-19 -13 -32 10l-37 68q-8 11 -6 21t20 22q83 59 180 59q76 0 128.5 -45.5t52.5 -116.5q0 -102 -86 -202l-117 -132h135q8 0 12.5 -5.5t3.5 -12.5l-14 -94q0 -7 -6 -13t-12 -6
h-361zM125 55l825 1358q14 21 35 21h107q20 0 27 -18t-5 -38l-827 -1358q-15 -20 -33 -20h-104q-22 0 -29.5 17.5t4.5 37.5zM711 47q-17 17 0 37l45 53q20 19 35 4q26 -26 75 -26q78 0 78 73q0 26 -16 42t-47 16h-58q-13 0 -18 6t-2 22l8 64q3 29 35 29h53q30 0 51 20.5
t21 52.5q0 24 -14.5 38t-38.5 14q-31 0 -68 -33q-8 -6 -15 -5.5t-14 11.5l-43 63q-6 7 -3.5 19t11.5 18q7 7 21 17.5t56.5 27.5t86.5 17q84 0 137.5 -40.5t53.5 -107.5q0 -60 -35.5 -102.5t-81.5 -63.5q34 -16 62 -50.5t28 -86.5q0 -91 -68 -143.5t-169 -52.5
q-44 0 -82.5 14.5t-55.5 27.5t-28 25z" />
    <glyph glyph-name="oneeighth" unicode="&#x215b;" horiz-adv-x="1245" 
d="M125 55l825 1358q14 21 35 21h107q20 0 27 -18t-5 -38l-827 -1358q-15 -20 -33 -20h-104q-22 0 -29.5 17.5t4.5 37.5zM260 827q-16 0 -16 19l55 395l-96 -8q-16 0 -13 18l7 62q2 19 18 28l152 93h106q7 0 11.5 -5.5t2.5 -13.5l-79 -569q-4 -19 -21 -19h-127zM711 137
q0 31 14 60.5t29.5 47t40 35t32 21.5t19.5 10v2q-28 13 -52 46t-24 79q0 85 67.5 137t168.5 52q83 0 136.5 -42t53.5 -110q0 -60 -38 -102t-81 -60v-2q36 -11 65 -46t29 -89q0 -86 -70.5 -141t-187.5 -55q-92 0 -147 44t-55 113zM930 428q0 -42 41 -53q24 5 40.5 24.5
t16.5 46.5q0 21 -11.5 32t-29.5 11q-23 0 -40 -17t-17 -44zM885 162q0 -23 14.5 -37t36.5 -14q26 0 47 19t21 52q0 23 -14 41t-38 21q-27 -3 -47 -27.5t-20 -54.5z" />
    <glyph glyph-name="threeeighths" unicode="&#x215c;" horiz-adv-x="1245" 
d="M219 807q-44 0 -82.5 14.5t-55.5 27.5t-28 25q-17 17 0 37l45 54q20 19 35 4q27 -27 76 -27q39 0 58.5 19.5t19.5 54.5q0 26 -16.5 41.5t-47.5 15.5h-57q-26 0 -21 29l9 63q3 29 34 29h54q30 0 50.5 21t20.5 53q0 23 -14 37t-39 14q-30 0 -67 -33q-8 -6 -15 -5.5
t-14 11.5l-43 64q-6 7 -3.5 19t11.5 18q7 7 21 17t56.5 27t86.5 17q84 0 137 -40t53 -107q0 -60 -35 -102.5t-81 -63.5q34 -16 62 -50.5t28 -86.5q0 -91 -68.5 -144t-169.5 -53zM127 55l825 1358q14 21 35 21h107q20 0 27 -18t-5 -38l-827 -1358q-15 -20 -33 -20h-104
q-22 0 -29.5 17.5t4.5 37.5zM713 137q0 31 14 60.5t29.5 47t40 35t32 21.5t19.5 10v2q-28 13 -52 46t-24 79q0 85 67.5 137t168.5 52q83 0 136.5 -42t53.5 -110q0 -60 -38 -102t-81 -60v-2q36 -11 65.5 -46.5t29.5 -88.5q0 -86 -71 -141t-188 -55q-92 0 -147 44t-55 113z
M932 428q0 -42 41 -53q24 5 40.5 24.5t16.5 46.5q0 21 -11.5 32t-29.5 11q-23 0 -40 -17t-17 -44zM887 162q0 -23 14.5 -37t36.5 -14q26 0 47 19t21 52q0 23 -14 41t-38 21q-27 -3 -47 -27.5t-20 -54.5z" />
    <glyph glyph-name="fiveeighths" unicode="&#x215d;" horiz-adv-x="1245" 
d="M125 55l825 1358q14 21 35 21h107q20 0 27 -18t-5 -38l-827 -1358q-15 -20 -33 -20h-104q-22 0 -29.5 17.5t4.5 37.5zM209 807q-55 0 -106.5 26t-67.5 52q-10 16 2 30l55 66q15 18 29 4q41 -41 98 -41q35 0 61.5 25.5t26.5 62.5q0 30 -18.5 48t-48.5 18h-136
q-13 0 -19.5 9.5t-4.5 22.5l41 285q4 19 20 19h295q7 0 12 -5.5t3 -13.5l-13 -90q0 -7 -6 -12.5t-14 -5.5h-182l-11 -80h58q87 0 135.5 -49t48.5 -129q0 -106 -67.5 -174t-190.5 -68zM711 137q0 31 14 60.5t29.5 47t40 35t32 21.5t19.5 10v2q-28 13 -52 46t-24 79
q0 85 67.5 137t168.5 52q83 0 136.5 -42t53.5 -110q0 -60 -38 -102t-81 -60v-2q36 -11 65 -46t29 -89q0 -86 -70.5 -141t-187.5 -55q-92 0 -147 44t-55 113zM930 428q0 -42 41 -53q24 5 40.5 24.5t16.5 46.5q0 21 -11.5 32t-29.5 11q-23 0 -40 -17t-17 -44zM885 162
q0 -23 14.5 -37t36.5 -14q26 0 47 19t21 52q0 23 -14 41t-38 21q-27 -3 -47 -27.5t-20 -54.5z" />
    <glyph glyph-name="seveneighths" unicode="&#x215e;" horiz-adv-x="1245" 
d="M125 55l825 1358q14 21 35 21h107q20 0 27 -18t-5 -38l-827 -1358q-15 -20 -33 -20h-104q-22 0 -29.5 17.5t4.5 37.5zM106 827q-11 0 -16 4t-4 13l2 12l268 447h-184q-6 0 -11.5 5t-4.5 11l14 96q1 7 7.5 13t12.5 6h367q6 0 10.5 -6t3.5 -13l-4 -29l-313 -540
q-14 -19 -31 -19h-117zM711 137q0 31 14 60.5t29.5 47t40 35t32 21.5t19.5 10v2q-28 13 -52 46t-24 79q0 85 67.5 137t168.5 52q83 0 136.5 -42t53.5 -110q0 -60 -38 -102t-81 -60v-2q36 -11 65 -46t29 -89q0 -86 -70.5 -141t-187.5 -55q-92 0 -147 44t-55 113zM930 428
q0 -42 41 -53q24 5 40.5 24.5t16.5 46.5q0 21 -11.5 32t-29.5 11q-23 0 -40 -17t-17 -44zM885 162q0 -23 14.5 -37t36.5 -14q26 0 47 19t21 52q0 23 -14 41t-38 21q-27 -3 -47 -27.5t-20 -54.5z" />
    <glyph glyph-name="partialdiff" unicode="&#x2202;" horiz-adv-x="1167" 
d="M117 449q15 106 60 192.5t107 140t132.5 82.5t140.5 29q57 0 109.5 -18.5t81.5 -38.5q-8 64 -38 124.5t-68.5 104t-84 80t-82.5 57t-65 31.5q-45 17 -25 59l57 117q18 41 56 29q25 -10 52.5 -23t64 -34.5t71 -47.5t73.5 -61.5t71 -77t64.5 -93.5t52.5 -110.5t36 -128.5
t15 -148t-11 -169q-22 -157 -88 -283t-178 -204t-252 -78q-112 0 -199 63t-128.5 171t-24.5 235zM502 213q54 0 98.5 27t73.5 72t47.5 96t26.5 106q-4 31 -15 59.5t-30.5 56.5t-53.5 45t-78 17q-86 0 -150.5 -69.5t-78.5 -169.5q-14 -99 31 -169.5t129 -70.5z" />
    <glyph glyph-name="Delta" unicode="&#x2206;" horiz-adv-x="1439" 
d="M-10 0q-37 0 -47.5 22t12.5 66l747 1348q10 20 31 20h17q21 0 28 -20l365 -1352q10 -33 -2 -58.5t-45 -25.5h-1106zM315 244h521l-164 676h-2z" />
    <glyph glyph-name="product" unicode="&#x220f;" horiz-adv-x="1404" 
d="M63 37l191 1360q3 15 15 26t26 11h1016q12 0 20.5 -11t5.5 -26l-190 -1360q-3 -15 -15 -26t-24 -11h-205q-13 0 -20 11t-4 26l159 1143h-544l-160 -1143q-3 -15 -14.5 -26t-24.5 -11h-203q-14 0 -23 11t-6 26z" />
    <glyph glyph-name="summation" unicode="&#x2211;" horiz-adv-x="1118" 
d="M51 37l10 82l578 631l-408 577l11 70q3 15 14.5 26t24.5 11h755q14 0 23 -11t6 -26l-25 -180q-3 -15 -15 -26t-26 -11h-370l235 -322q31 -43 25 -80l-15 -92q-2 -15 -6 -26.5t-10.5 -21.5t-10 -15t-11.5 -13.5t-9 -9.5l-327 -346h370q14 0 23 -11t6 -26l-25 -180
q-3 -15 -15 -26t-25 -11h-756q-14 0 -22 11t-5 26z" />
    <glyph glyph-name="minus" unicode="&#x2212;" horiz-adv-x="987" 
d="M133 614q-13 0 -22 12t-7 27l17 115q1 15 13 27t26 12h735q13 0 21 -12t6 -27l-17 -115q-1 -15 -13 -27t-26 -12h-733z" />
    <glyph glyph-name="uni2215" unicode="&#x2215;" horiz-adv-x="1165" 
d="M33 0q-22 0 -29.5 17.5t4.5 37.5l826 1358q14 21 34 21h107q20 0 27 -18t-5 -38l-827 -1358q-15 -20 -33 -20h-104z" />
    <glyph glyph-name="uni2219" unicode="&#x2219;" horiz-adv-x="735" 
d="M430 342q-67 0 -112.5 47.5t-45.5 114.5q0 85 64 147t145 62q70 0 117 -48t47 -118q0 -82 -65.5 -143.5t-149.5 -61.5z" />
    <glyph glyph-name="radical" unicode="&#x221a;" horiz-adv-x="1406" 
d="M403 2l-208 770q-6 19 3.5 33t28.5 14h162q8 0 15.5 -6.5t9.5 -13.5l80 -314h8l508 926q14 23 32 23h359q13 0 22 -11t7 -26l-21 -148q-3 -15 -14.5 -26t-24.5 -11h-219l-674 -1210q-11 -22 -31 -22h-16q-23 0 -27 22z" />
    <glyph glyph-name="infinity" unicode="&#x221e;" horiz-adv-x="1214" 
d="M371 319q-105 0 -169.5 84.5t-47.5 202.5q15 122 99 204.5t198 82.5q55 0 102.5 -32.5t73.5 -80.5q41 49 99.5 81t113.5 32q105 0 170.5 -84t50.5 -203q-18 -122 -101 -204.5t-200 -82.5q-54 0 -101.5 31.5t-78.5 81.5q-95 -113 -209 -113zM698 606q-7 -44 16.5 -75
t63.5 -31t74 31t41 75q6 44 -19 75.5t-65 31.5t-72.5 -31.5t-38.5 -75.5zM399 500q40 0 74 31t41 75q6 44 -19 75.5t-65 31.5q-38 0 -70 -31.5t-38 -75.5q-7 -44 15.5 -75t61.5 -31z" />
    <glyph glyph-name="integral" unicode="&#x222b;" horiz-adv-x="724" 
d="M180 -221l176 1263q30 202 136 307t288 105q118 0 205 -80q9 -9 9.5 -24t-7.5 -25l-88 -119q-21 -27 -45 -10q-39 27 -92 27q-49 0 -91 -47t-55 -136l-178 -1263q-27 -197 -139 -304.5t-283 -107.5q-71 0 -125 25.5t-81 54.5q-8 9 -8 23t8 26l84 123q7 12 20 15t23 -5
q40 -30 96 -30q50 0 92 46.5t55 135.5z" />
    <glyph glyph-name="approxequal" unicode="&#x2248;" horiz-adv-x="948" 
d="M209 643l-64 68q-15 15 2 41q12 20 29 42t49.5 54.5t76.5 53t91 20.5q16 0 31.5 -4t25.5 -8t24.5 -14t19.5 -14t19.5 -17t16.5 -15t14 -13t17.5 -15t17 -11.5t22 -10.5t22.5 -3q56 0 125 96q22 25 43 4l59 -66q12 -15 -4 -43q-9 -16 -19.5 -31.5t-34 -42t-49 -45.5
t-63.5 -33.5t-78 -14.5q-20 0 -37.5 4.5t-33.5 14.5t-24.5 16.5t-25 22.5t-20.5 19q-4 4 -17 15t-19.5 15.5t-19 9.5t-26.5 5q-34 0 -71 -30.5t-60 -63.5q-7 -13 -20 -14.5t-19 8.5zM154 236l-64 67q-15 15 2 41q12 20 29 42t49.5 54.5t76.5 53t91 20.5q16 0 31.5 -4
t25.5 -8t24.5 -14t19.5 -14t19.5 -17t16.5 -15q3 -2 14 -12.5t17 -15.5t17 -12t21.5 -10t22.5 -3q56 0 125 96q22 25 43 4l60 -65q12 -15 -4 -43q-12 -22 -27.5 -42.5t-46.5 -53t-75.5 -52.5t-94.5 -20q-20 0 -37.5 4.5t-33.5 15t-25 17t-24.5 22t-20.5 19.5q-4 4 -17 15
t-19.5 15.5t-19 9.5t-26.5 5q-34 0 -71 -30.5t-60 -63.5q-7 -13 -20 -14.5t-19 8.5z" />
    <glyph glyph-name="notequal" unicode="&#x2260;" horiz-adv-x="868" 
d="M242 104q-13 7 -16 22t5 28l58 106h-125q-14 0 -22.5 11.5t-6.5 27.5l17 117q2 16 12.5 27.5t25.5 11.5h216l122 237h-303q-15 0 -23.5 11.5t-6.5 27.5l16 115q2 15 14 27t27 12h391l86 153q7 14 23 20t26 -1l25 -13q26 -13 8 -49l-59 -110h114q14 0 22.5 -11.5
t6.5 -27.5l-16 -115q-2 -15 -13 -27t-26 -12h-203l-125 -237h293q15 0 24 -12t7 -27l-17 -117q-2 -15 -14 -27t-27 -12h-381l-84 -151q-7 -13 -22 -18t-25 1z" />
    <glyph glyph-name="lessequal" unicode="&#x2264;" horiz-adv-x="933" 
d="M100 780q-15 7 -12 35l2 25q3 21 25 32l782 385q20 9 32 1t9 -31l-23 -158q-3 -23 -18 -29l-491 -217l430 -209q12 -7 12 -28l-21 -140q-3 -23 -18.5 -32t-30.5 2zM18 96q-13 0 -20.5 11.5t-5.5 27.5l14 115q2 15 14 27t25 12h725q13 0 22 -12t7 -27l-17 -115
q-2 -15 -14 -27t-25 -12h-725z" />
    <glyph glyph-name="greaterequal" unicode="&#x2265;" horiz-adv-x="933" 
d="M74 416q-19 -11 -31.5 -2t-9.5 32l24 160q0 19 17 29l491 209l-430 217q-13 5 -10 29l18 137q3 23 18 31.5t32 -1.5l675 -385q16 -12 13 -32l-4 -25q-5 -26 -23 -35zM18 96q-13 0 -20.5 11.5t-5.5 27.5l14 115q2 15 14 27t25 12h725q13 0 23 -12t8 -27l-17 -115
q-1 -15 -14 -27t-27 -12h-725z" />
    <glyph glyph-name="lozenge" unicode="&#x25ca;" horiz-adv-x="1439" 
d="M584 20l-357 619q-29 53 -8 113q11 32 45 71l518 613q13 20 31 20h18q20 0 27 -20l346 -611q35 -60 19 -118q-9 -29 -45 -78l-519 -609q-13 -20 -30 -20h-19q-18 0 -26 20zM664 365h4l299 376l-191 355h-4l-305 -383z" />
    <glyph glyph-name="uniF8FF" unicode="&#xf8ff;" horiz-adv-x="1226" 
d="M102 61v1311q0 62 62 62h899q32 0 46.5 -15t14.5 -47v-1311q0 -32 -14.5 -46.5t-46.5 -14.5h-899q-32 0 -47 14.5t-15 46.5zM537 643q0 -10 8.5 -17.5t19.5 -7.5h74q31 0 31 27v53q0 23 16 44.5t40 39t51.5 40.5t51.5 46.5t40 59.5t16 78q0 99 -73 163t-183 64
q-50 0 -96 -13t-75.5 -31.5t-52.5 -36.5t-33 -31l-10 -13q-16 -24 0 -37l46 -45q17 -11 34 0q1 1 15 14.5t20.5 19t23.5 17.5t31.5 17.5t36.5 10.5t45 5q59 0 92 -31t33 -75q0 -35 -21 -65t-50.5 -53t-59 -47.5t-50.5 -59.5t-21 -77v-59zM502 319q0 -40 29 -69t69 -29
q41 0 70.5 29t29.5 69t-29.5 69.5t-70.5 29.5q-40 0 -69 -29.5t-29 -69.5z" />
    <glyph glyph-name="CR" horiz-adv-x="0" 
 />
    <glyph glyph-name="grave.cap" horiz-adv-x="557" 
d="M471 1575l-307 158q-29 17 -4 55l59 88q12 19 30.5 21.5t24.5 -5.5l281 -198q8 -5 10.5 -16t-4.5 -23l-41 -68q-19 -28 -49 -12z" />
    <glyph glyph-name="acute.cap" horiz-adv-x="557" 
d="M215 1573q-35 -15 -47 12l-33 80q-10 26 17 39l335 199q13 10 28 7.5t22 -18.5l49 -106q8 -19 2 -33.5t-21 -21.5z" />
    <glyph glyph-name="circumflex.cap" horiz-adv-x="688" 
d="M223 1567q-26 -16 -41 6l-45 67q-19 27 10 48l275 206q23 17 43 0l217 -206q8 -7 10.5 -17.5t-4.5 -21.5l-59 -76q-19 -25 -41 -6l-160 127z" />
    <glyph glyph-name="caron.cap" horiz-adv-x="688" 
d="M377 1565l-217 207q-21 17 -6 38l59 76q19 25 41 6l160 -127l204 127q26 16 41 -6l46 -67q18 -26 -11 -47l-274 -207q-23 -17 -43 0z" />
    <glyph glyph-name="caron.alt" horiz-adv-x="688" 
d="M240 1300q0 62 47 108t112 46q52 0 92.5 -43t40.5 -133q0 -63 -18 -124t-40.5 -102t-59 -84t-55 -60.5t-46.5 -41.5q-22 -19 -41 2l-28 33q-8 10 -4.5 22.5t14.5 22.5q1 1 16 14.5t29 27t34 36.5t35.5 46.5t29.5 55.5t20 64l-4 -1q-4 -1 -10.5 -2.5t-14 -3t-18.5 -2.5
t-21 -1q-47 0 -78.5 34.5t-31.5 85.5z" />
    <glyph glyph-name="tilde.cap" horiz-adv-x="700" 
d="M195 1616l-56 43q-20 20 -4 47q11 23 25.5 45.5t41.5 54.5t64 52t78 20q25 0 48.5 -11.5t40.5 -28t33.5 -33.5t34.5 -28.5t36 -11.5q22 0 36.5 17t28.5 47q9 19 27 25.5t35 -5.5l47 -37q27 -19 4 -67q-9 -19 -24 -41.5t-39.5 -50.5t-60 -46t-73.5 -18q-32 0 -63.5 18
t-51 39.5t-42 39.5t-39.5 18q-18 0 -35 -16t-23.5 -27.5t-19.5 -36.5q-6 -12 -21.5 -15t-27.5 7z" />
    </font>
</defs>
</svg>
